<svg viewBox="0 0 1000 700" xmlns="http://www.w3.org/2000/svg" preserveAspectRatio="xMidYMid slice"><defs>
<linearGradient id="sky" x1="0" y1="0" x2="0" y2="1">
  <stop offset="0%" stop-color="#e4f1ee"/><stop offset="42%" stop-color="#f7ddd2"/>
  <stop offset="58%" stop-color="#f6d0c2"/><stop offset="74%" stop-color="#d3e9e0"/>
  <stop offset="100%" stop-color="#c2e1d7"/>
</linearGradient>
<linearGradient id="h1" x1="0" y1="0" x2="0" y2="1"><stop offset="0%" stop-color="#bfe0d6"/><stop offset="100%" stop-color="#a9d6c9"/></linearGradient>
<linearGradient id="h2" x1="0" y1="0" x2="0" y2="1"><stop offset="0%" stop-color="#88c8b9"/><stop offset="100%" stop-color="#6cb8a7"/></linearGradient>
<linearGradient id="h3" x1="0" y1="0" x2="0" y2="1"><stop offset="0%" stop-color="#4f9e8e"/><stop offset="100%" stop-color="#3a8576"/></linearGradient>
<linearGradient id="water" x1="0" y1="0" x2="0" y2="1">
  <stop offset="0%" stop-color="#bfeae3"/><stop offset="35%" stop-color="#73c6bd"/>
  <stop offset="70%" stop-color="#2f8f86"/><stop offset="100%" stop-color="#13524d"/>
</linearGradient>
</defs><rect width="1000" height="700" fill="url(#sky)"/><circle cx="770" cy="235" r="80" fill="#f6c7a9" opacity="0.5"/><circle cx="770" cy="235" r="56" fill="#ef9d78"/><g stroke="#2f7062" stroke-width="3" fill="none" stroke-linecap="round"><path d="M250 150 q12 -10 24 0 q12 -10 24 0"/><path d="M320 185 q9 -8 18 0 q9 -8 18 0"/></g><path d="M0 422 Q 500 408 1000 422 L1000 545 L0 545 Z" fill="#6cb8a7"/><path d="M0 470 Q 500 458 1000 470 L1000 545 L0 545 Z" fill="#4f9e8e"/><path d="M0 430 Q 260 422 520 430 T 1000 430 L1000 446 L0 446 Z" fill="#ffffff" opacity="0.18"/><path d="M0 525 C 250 500, 600 520, 1000 510 L1000 700 L0 700 Z" fill="#e0d2ba"/><ellipse cx="700" cy="612" rx="150" ry="24" fill="#6cb8a7" opacity="0.75"/><path d="M0 588 C 240 566, 560 590, 1000 580 L1000 700 L0 700 Z" fill="#d3c4a8"/><g transform="translate(250,470) scale(0.205,0.205)"><g transform="translate(0.000000,577.000000) scale(0.100000,-0.100000)"
fill="#143b35" stroke="none">
<path d="M1645 5759 c-255 -23 -479 -75 -605 -140 -116 -60 -198 -130 -368
-314 -140 -152 -242 -250 -312 -298 -24 -17 -90 -48 -147 -68 -128 -47 -159
-69 -189 -133 -46 -99 -20 -201 72 -287 92 -85 189 -130 379 -174 142 -33 213
-61 415 -167 289 -150 418 -252 530 -419 113 -170 138 -240 171 -487 25 -188
44 -264 104 -418 95 -239 215 -456 442 -794 142 -212 163 -262 144 -344 -20
-86 -53 -129 -144 -190 -103 -68 -185 -106 -250 -113 l-50 -6 36 -19 c60 -30
141 -47 367 -73 118 -14 243 -32 278 -40 125 -30 209 -93 231 -172 15 -52 13
-72 -8 -118 -32 -70 -109 -129 -295 -221 -305 -152 -551 -335 -674 -502 -51
-69 -122 -201 -122 -226 0 -10 16 -18 48 -23 69 -12 932 -6 1015 7 83 13 114
28 382 188 552 330 785 388 1685 422 311 12 389 18 755 60 496 57 557 58 1595
38 629 -12 1037 -5 1355 22 294 26 807 92 1575 205 938 138 1441 204 1722 226
205 16 643 7 768 -16 52 -9 165 -42 250 -72 294 -104 385 -131 490 -148 58 -9
206 -34 330 -55 344 -60 412 -69 699 -91 334 -27 682 -29 793 -6 219 45 289
134 221 279 -56 118 -126 196 -263 293 -125 88 -175 155 -206 275 -21 83 -22
215 -1 262 21 49 58 70 181 104 55 15 128 39 160 53 l59 25 -44 39 c-66 60
-195 141 -274 172 -58 23 -89 29 -183 33 -130 5 -157 1 -452 -73 -431 -108
-680 -135 -1271 -135 -255 0 -298 2 -303 15 -3 9 -18 15 -35 15 -47 0 -151 36
-216 75 -102 62 -162 113 -377 322 -337 329 -373 352 -693 454 -236 76 -274
93 -565 261 -796 459 -1280 684 -1765 822 -276 79 -457 112 -955 175 -429 55
-457 56 -1185 56 l-680 0 -215 -28 c-499 -65 -694 -78 -895 -58 -162 16 -268
39 -529 116 -284 84 -381 104 -542 112 l-131 6 -28 59 c-56 119 -146 218 -340
376 -71 59 -223 197 -336 307 -115 112 -245 228 -295 263 -105 75 -272 158
-403 202 -254 83 -598 117 -906 89z"/>
</g></g></svg>