<svg viewBox="0 0 1062 380" xmlns="http://www.w3.org/2000/svg" font-family="Mulish, Helvetica, Arial, sans-serif">
<defs>
  <linearGradient id="forest" x1="0" y1="0" x2="0" y2="1"><stop offset="0%" stop-color="#3f5a3a"/><stop offset="100%" stop-color="#243a26"/></linearGradient>
  <linearGradient id="panel" x1="0" y1="0" x2="0" y2="1"><stop offset="0%" stop-color="#0e3a4a"/><stop offset="100%" stop-color="#176074"/></linearGradient>
  <radialGradient id="heat" cx="50%" cy="50%" r="50%"><stop offset="0%" stop-color="#e29578" stop-opacity="0.85"/><stop offset="60%" stop-color="#e29578" stop-opacity="0.35"/><stop offset="100%" stop-color="#e29578" stop-opacity="0"/></radialGradient>
  <marker id="arrow" viewBox="0 0 10 10" refX="8" refY="5" markerWidth="7" markerHeight="7" orient="auto-start-reverse"><path d="M0 1 L9 5 L0 9 Z" fill="#e29578"/></marker>
  <filter id="cardshadow" x="-20%" y="-20%" width="140%" height="150%"><feDropShadow dx="0" dy="5" stdDeviation="9" flood-color="#1c2b28" flood-opacity="0.08"/></filter>
  <style>
    .title { font-family: Newsreader, Georgia, 'Times New Roman', serif; font-size: 26px; font-weight: 600; fill: #161616; }
    .desc  { font-size: 15px; fill: #60626a; }
    .step  { font-size: 13px; font-weight: 700; letter-spacing: 0.12em; fill: #e29578; }
    .chip  { font-size: 11px; font-weight: 700; fill: #fff; }
    .drop  { transform-box: fill-box; transform-origin: 50% 50%; animation: drop 3s ease-in-out infinite; }
    .box   { animation: boxp 2.2s ease-in-out infinite; }
    .ping  { transform-box: fill-box; transform-origin: 50% 50%; animation: ping 2.6s ease-out infinite; }
    .glow  { animation: glow 2.4s ease-in-out infinite; }
    @keyframes drop { 0%{opacity:0;transform:translateY(-14px)} 18%{opacity:1} 76%{opacity:1;transform:translateY(0)} 100%{opacity:0;transform:translateY(0)} }
    @keyframes boxp { 0%,100%{opacity:0.55} 50%{opacity:1} }
    @keyframes ping { 0%{transform:scale(0.4);opacity:0.8} 100%{transform:scale(2);opacity:0} }
    @keyframes glow { 0%,100%{opacity:0.6} 50%{opacity:1} }
    @media (prefers-reduced-motion: reduce) { * { animation: none !important; } }
  </style>
  <!-- camera-trap photo thumbnail -->
  <g id="tile">
    <rect x="-26" y="-19" width="52" height="38" rx="5" fill="#dfe9e2" stroke="#b9c6bf" stroke-width="1.5"/>
    <rect x="-23" y="-16" width="46" height="21" rx="2" fill="#4a6b44"/>
    <rect x="-23" y="3" width="46" height="13" rx="2" fill="#2f4a2e"/>
    <ellipse cx="3" cy="9" rx="9" ry="4" fill="#2a1d15"/><circle cx="11" cy="5" r="3.2" fill="#2a1d15"/>
  </g>
  <!-- fox-like critter (faces right) -->
  <g id="fox">
    <path d="M-22 2 C -36 4 -40 -10 -34 -16 C -33 -8 -28 -4 -22 -4 Z" fill="#b15e26"/>
    <ellipse cx="0" cy="0" rx="21" ry="9" fill="#c4742f"/>
    <circle cx="18" cy="-6" r="7.5" fill="#c4742f"/>
    <path d="M11 -12 L9 -22 L17 -16 Z" fill="#b15e26"/><path d="M24 -12 L27 -22 L18 -17 Z" fill="#b15e26"/>
    <path d="M24 -5 L31 -3 L24 -1 Z" fill="#8a4f20"/>
    <circle cx="20" cy="-6" r="1.5" fill="#2a1810"/>
    <rect x="-16" y="7" width="4" height="12" rx="2" fill="#8a4f20"/><rect x="-4" y="8" width="4" height="12" rx="2" fill="#8a4f20"/><rect x="8" y="8" width="4" height="11" rx="2" fill="#8a4f20"/>
  </g>
  <!-- mini folder glyph -->
  <g id="folder"><path d="M-10 -7 h6 l2 2 h11 a2 2 0 0 1 2 2 v8 a2 2 0 0 1 -2 2 h-19 a2 2 0 0 1 -2 -2 v-10 a2 2 0 0 1 2 -2 z" fill="#e8b84b"/></g>
  <!-- map pin -->
  <g id="pin"><path d="M0 6 C -6 -2 -7 -7 -3 -10 C 1 -13 6 -10 6 -5 C 6 -1 3 2 0 6 Z" fill="#e29578"/><circle cx="1" cy="-6" r="2.2" fill="#fff"/></g>
</defs>

<g stroke="#e29578" stroke-width="3.5" fill="none" stroke-linecap="round">
  <line x1="250" y1="134" x2="291" y2="134" marker-end="url(#arrow)"/>
  <line x1="509" y1="134" x2="550" y2="134" marker-end="url(#arrow)"/>
  <line x1="768" y1="134" x2="809" y2="134" marker-end="url(#arrow)"/>
</g>

<!-- CARD 1 — IMPORT -->
<rect x="36" y="28" width="212" height="212" rx="20" fill="#fbf6f6" stroke="#ede0d4" stroke-width="2" filter="url(#cardshadow)"/>
<g transform="translate(142,118)">
  <g transform="translate(-16,4) rotate(-10)"><use href="#tile"/></g>
  <g transform="translate(10,-2) rotate(8)"><use href="#tile"/></g>
  <g transform="translate(-3,-14) rotate(-2)"><g class="drop"><use href="#tile"/></g></g>
  <g transform="translate(0,52)"><rect x="-78" y="-11" width="156" height="22" rx="11" fill="#006d77"/><text class="chip" x="0" y="3.5" text-anchor="middle" font-size="9">folder · GBIF · Camtrap DP</text></g>
</g>
<text class="step" x="142" y="280" text-anchor="middle">01</text>
<text class="title" x="142" y="312" text-anchor="middle">Import</text>
<text class="desc"  x="142" y="338" text-anchor="middle">Images or datasets</text>

<!-- CARD 2 — IDENTIFY -->
<rect x="295" y="28" width="212" height="212" rx="20" fill="#fbf6f6" stroke="#ede0d4" stroke-width="2" filter="url(#cardshadow)"/>
<g transform="translate(401,128)">
  <rect x="-78" y="-58" width="156" height="116" rx="12" fill="url(#forest)"/>
  <clipPath id="c2"><rect x="-78" y="-58" width="156" height="116" rx="12"/></clipPath>
  <g clip-path="url(#c2)">
    <g stroke="#5d7a52" stroke-width="6" opacity="0.45" stroke-linecap="round"><path d="M-52 58 V-6"/><path d="M50 58 V8"/></g>
    <path d="M-78 40 Q0 30 78 40 L78 58 L-78 58 Z" fill="#1c3320"/>
    <g transform="translate(-4,28) scale(1.0)"><use href="#fox"/></g>
  </g>
  <rect class="box" x="-40" y="6" width="74" height="40" rx="3" fill="none" stroke="#e29578" stroke-width="3"/>
  <g transform="translate(-14,-2)"><rect x="-26" y="-10" width="52" height="18" rx="9" fill="#e29578"/><text class="chip" x="0" y="3.5" text-anchor="middle" font-size="10">fox 0.97</text></g>
  <g transform="translate(48,-46)"><rect x="-24" y="-11" width="48" height="20" rx="6" fill="#006d77"/><text class="chip" x="0" y="3.5" text-anchor="middle" font-size="9">on-device</text></g>
</g>
<text class="step" x="401" y="280" text-anchor="middle">02</text>
<text class="title" x="401" y="312" text-anchor="middle">Identify</text>
<text class="desc"  x="401" y="338" text-anchor="middle">Species, on your machine</text>

<!-- CARD 3 — EXPLORE -->
<rect x="554" y="28" width="212" height="212" rx="20" fill="#fbf6f6" stroke="#ede0d4" stroke-width="2" filter="url(#cardshadow)"/>
<g transform="translate(660,128)">
  <rect x="-78" y="-58" width="156" height="116" rx="12" fill="#e3ece4"/>
  <clipPath id="c3"><rect x="-78" y="-58" width="156" height="116" rx="12"/></clipPath>
  <g clip-path="url(#c3)">
    <path d="M-78 -20 C -40 -30 -20 -8 10 -16 C 44 -25 60 -6 78 -14 L78 58 L-78 58 Z" fill="#cfe0d2"/>
    <path d="M-30 -58 C -24 -20 -36 6 -20 34 C -8 54 -14 58 -14 58" stroke="#a9cfcf" stroke-width="5" fill="none" opacity="0.8"/>
    <circle cx="-34" cy="22" r="26" fill="url(#heat)"/>
    <!-- ping ring on a marker -->
    <g transform="translate(-34,18)"><g class="ping"><circle r="12" fill="none" stroke="#e29578" stroke-width="2.5"/></g></g>
  </g>
  <g transform="translate(-34,18) scale(1.5)"><use href="#pin"/></g>
  <g transform="translate(18,-26) scale(1.1)"><use href="#pin"/></g>
  <g transform="translate(44,28) scale(1.1)"><use href="#pin"/></g>
  <!-- species pie-chart, bottom-right -->
  <g transform="translate(52,40)"><circle r="13" fill="#fff" stroke="#cdd4d6" stroke-width="1"/><path d="M0 0 L0 -13 A13 13 0 0 1 11 7 Z" fill="#006d77"/><path d="M0 0 L11 7 A13 13 0 0 1 -11 7 Z" fill="#83c5be"/><path d="M0 0 L-11 7 A13 13 0 0 1 0 -13 Z" fill="#e29578"/></g>
</g>
<text class="step" x="660" y="280" text-anchor="middle">03</text>
<text class="title" x="660" y="312" text-anchor="middle">Explore</text>
<text class="desc"  x="660" y="338" text-anchor="middle">Maps &amp; activity charts</text>

<!-- CARD 4 — EXPORT -->
<rect x="813" y="28" width="212" height="212" rx="20" fill="#fbf6f6" stroke="#ede0d4" stroke-width="2" filter="url(#cardshadow)"/>
<g transform="translate(919,128)">
  <rect x="-80" y="-64" width="160" height="128" rx="12" fill="url(#panel)"/>
  <text class="chip" x="-66" y="-46" font-size="10" fill="#cfe9e0" letter-spacing="0.08em">ONE FOLDER / SPECIES</text>
  <g transform="translate(0,-24)"><rect x="-66" y="-12" width="132" height="22" rx="6" fill="#0a4a55"/><g transform="translate(-48,0)"><use href="#folder"/></g><text class="chip" x="56" y="3" text-anchor="end" font-size="11" fill="#cfe9e0">fox/</text></g>
  <g transform="translate(0,4)"><rect x="-66" y="-12" width="132" height="22" rx="6" fill="#0a4a55"/><g transform="translate(-48,0)"><use href="#folder"/></g><text class="chip" x="56" y="3" text-anchor="end" font-size="11" fill="#cfe9e0">deer/</text></g>
  <g transform="translate(0,32)"><rect x="-66" y="-12" width="132" height="22" rx="6" fill="#0a4a55"/><g transform="translate(-48,0)"><use href="#folder"/></g><text class="chip" x="56" y="3" text-anchor="end" font-size="11" fill="#cfe9e0">wild boar/</text></g>
  <g transform="translate(0,54)" class="glow"><rect x="-60" y="-11" width="120" height="22" rx="11" fill="#0a7d86" stroke="#3fd07a" stroke-width="2"/><text class="chip" x="0" y="3.5" text-anchor="middle" font-size="10.5">Publish to GBIF</text></g>
</g>
<text class="step" x="919" y="280" text-anchor="middle">04</text>
<text class="title" x="919" y="312" text-anchor="middle">Export</text>
<text class="desc"  x="919" y="338" text-anchor="middle">GBIF &amp; tidy folders</text>
</svg>
