<svg viewBox="0 0 1000 700" xmlns="http://www.w3.org/2000/svg" preserveAspectRatio="xMidYMid slice"><defs>
<linearGradient id="sky" x1="0" y1="0" x2="0" y2="1">
  <stop offset="0%" stop-color="#e4f1ee"/><stop offset="42%" stop-color="#f7ddd2"/>
  <stop offset="58%" stop-color="#f6d0c2"/><stop offset="74%" stop-color="#d3e9e0"/>
  <stop offset="100%" stop-color="#c2e1d7"/>
</linearGradient>
<linearGradient id="h1" x1="0" y1="0" x2="0" y2="1"><stop offset="0%" stop-color="#bfe0d6"/><stop offset="100%" stop-color="#a9d6c9"/></linearGradient>
<linearGradient id="h2" x1="0" y1="0" x2="0" y2="1"><stop offset="0%" stop-color="#88c8b9"/><stop offset="100%" stop-color="#6cb8a7"/></linearGradient>
<linearGradient id="h3" x1="0" y1="0" x2="0" y2="1"><stop offset="0%" stop-color="#4f9e8e"/><stop offset="100%" stop-color="#3a8576"/></linearGradient>
<linearGradient id="water" x1="0" y1="0" x2="0" y2="1">
  <stop offset="0%" stop-color="#bfeae3"/><stop offset="35%" stop-color="#73c6bd"/>
  <stop offset="70%" stop-color="#2f8f86"/><stop offset="100%" stop-color="#13524d"/>
</linearGradient>
</defs><rect width="1000" height="700" fill="url(#sky)"/><circle cx="800" cy="230" r="80" fill="#f6c7a9" opacity="0.5"/><circle cx="800" cy="230" r="56" fill="#ef9d78"/><g stroke="#2f7062" stroke-width="3" fill="none" stroke-linecap="round"><path d="M250 150 q12 -10 24 0 q12 -10 24 0"/><path d="M320 185 q9 -8 18 0 q9 -8 18 0"/></g><path d="M0 430 C 180 388, 380 412, 600 396 C 800 382, 900 408, 1000 398 L1000 700 L0 700 Z" fill="url(#h1)"/><g><path d="M260 470 l8 0 l-8 -24 l-8 24 Z M260 457 l6 0 l-6 -15 l-6 15 Z" fill="#8ccabb"/><path d="M360 470 l9 0 l-9 -28 l-9 28 Z M360 455 l6 0 l-6 -17 l-6 17 Z" fill="#8ccabb"/><path d="M470 470 l8 0 l-8 -24 l-8 24 Z M470 457 l6 0 l-6 -15 l-6 15 Z" fill="#8ccabb"/><path d="M620 470 l9 0 l-9 -26 l-9 26 Z M620 456 l6 0 l-6 -16 l-6 16 Z" fill="#8ccabb"/></g><path d="M0 520 C 220 486, 470 510, 720 498 C 860 491, 940 508, 1000 502 L1000 700 L0 700 Z" fill="url(#h2)"/><g transform="translate(860,600) scale(1.0)" fill="#173f39"><rect x="-58" y="-78" width="116" height="78"/><path d="M-66 -78 L0 -126 L66 -78 Z"/><rect x="-14" y="-44" width="28" height="44"/></g><path d="M0 600 C 240 572, 560 602, 1000 592 L1000 700 L0 700 Z" fill="url(#h3)"/><g fill="#15463f"><rect x="620" y="566" width="7" height="46" rx="2"/><rect x="676" y="566" width="7" height="46" rx="2"/><rect x="732" y="566" width="7" height="46" rx="2"/><rect x="788" y="566" width="7" height="46" rx="2"/><rect x="844" y="566" width="7" height="46" rx="2"/><rect x="900" y="566" width="7" height="46" rx="2"/><rect x="956" y="566" width="7" height="46" rx="2"/><rect x="616" y="572" width="372" height="6" rx="3"/><rect x="616" y="590" width="372" height="6" rx="3"/></g><g><path d="M55 560 l18 0 l-18 -70 l-18 70 Z M55 522 l13 0 l-13 -43 l-13 43 Z" fill="#15463f"/><path d="M120 560 l14 0 l-14 -52 l-14 52 Z M120 531 l10 0 l-10 -32 l-10 32 Z" fill="#15463f"/><path d="M180 556 l16 0 l-16 -60 l-16 60 Z M180 523 l12 0 l-12 -37 l-12 37 Z" fill="#15463f"/><path d="M95 508 l13 0 l-13 -44 l-13 44 Z M95 484 l9 0 l-9 -27 l-9 27 Z" fill="#2c7165"/><path d="M165 508 l12 0 l-12 -40 l-12 40 Z M165 486 l9 0 l-9 -25 l-9 25 Z" fill="#2c7165"/></g><g transform="translate(300,455) scale(0.0375,0.0375)"><g transform="translate(0.000000,3981.000000) scale(0.100000,-0.100000)"
fill="#143b35" stroke="none">
<path d="M24260 39799 c-768 -24 -995 -43 -1310 -108 -179 -36 -563 -101
-1070 -181 l-385 -60 -710 -211 c-543 -161 -4215 -1283 -4466 -1365 -89 -29
-2113 -1129 -2696 -1466 -95 -55 -218 -131 -275 -169 -313 -213 -793 -527
-1725 -1124 l-673 -431 -517 -480 c-1033 -957 -1572 -1453 -1800 -1657 -139
-123 -262 -267 -456 -533 -279 -383 -476 -712 -513 -857 -41 -157 -183 -363
-710 -1028 -312 -393 -408 -517 -467 -599 -25 -36 -185 -342 -355 -680 -170
-338 -351 -691 -401 -785 -128 -235 -400 -783 -499 -1001 -224 -496 -262 -623
-491 -1614 -246 -1069 -383 -1750 -421 -2097 -12 -104 -46 -393 -76 -643 -136
-1133 -159 -1382 -174 -1885 -6 -181 -21 -514 -35 -740 -40 -666 -51 -1024
-37 -1229 17 -250 32 -324 271 -1316 230 -956 289 -1337 237 -1514 -57 -192
-278 -590 -571 -1026 -368 -548 -714 -990 -1265 -1615 -235 -267 -298 -346
-366 -462 -65 -111 -128 -183 -191 -220 -24 -14 -96 -45 -161 -70 -146 -55
-178 -74 -272 -160 -41 -37 -156 -138 -255 -223 -305 -263 -447 -404 -579
-574 -164 -213 -492 -692 -478 -699 4 -3 81 -17 171 -33 90 -16 165 -33 167
-39 2 -5 -97 -298 -220 -650 -123 -352 -223 -641 -222 -642 1 -2 60 29 130 68
70 39 129 69 131 67 2 -1 -26 -75 -61 -163 -98 -244 -192 -529 -204 -620 -23
-168 -33 -219 -106 -520 -143 -587 -170 -765 -141 -927 23 -128 90 -361 201
-693 90 -269 132 -387 429 -1215 74 -206 146 -422 161 -480 31 -118 82 -246
181 -460 37 -80 94 -208 127 -285 32 -77 83 -185 112 -240 80 -151 286 -495
319 -535 28 -32 88 -82 145 -120 21 -14 24 -25 32 -170 14 -232 24 -278 87
-414 30 -66 72 -163 93 -215 66 -167 188 -439 296 -661 171 -351 233 -443 309
-461 94 -21 246 -22 397 0 82 12 197 21 257 21 109 0 109 0 162 -36 30 -20 77
-58 105 -85 29 -26 64 -51 79 -55 47 -12 117 2 137 27 l19 22 31 -23 c18 -13
47 -24 66 -25 42 -3 46 -10 123 -197 l52 -127 34 15 c18 8 49 21 67 29 26 11
40 27 55 60 24 55 37 56 131 15 45 -20 85 -30 116 -30 59 0 338 56 375 76 37
19 171 200 210 283 17 36 38 80 46 98 14 30 50 75 229 295 60 74 60 75 93 214
17 76 48 192 68 257 l36 119 -6 226 c-3 149 -13 291 -29 412 -12 102 -23 228
-23 281 0 91 2 98 32 145 117 180 117 182 38 564 l-57 275 6 145 c7 148 17
217 76 510 45 225 47 232 73 271 12 19 61 64 107 101 117 92 191 173 267 290
35 55 87 130 115 167 28 36 56 79 63 95 18 42 25 20 32 -96 6 -116 15 -141 45
-136 15 2 37 31 73 95 28 51 54 96 58 99 3 4 4 -16 0 -45 -5 -41 -2 -55 12
-71 31 -34 71 -24 134 34 26 24 32 26 27 11 -34 -90 -9 -121 98 -119 220 4
776 238 1042 438 74 55 101 58 182 17 63 -32 162 -115 162 -136 0 -14 22 -25
50 -25 21 0 235 105 369 180 90 51 95 52 153 47 70 -6 103 -25 122 -72 10 -24
22 -35 36 -35 11 0 75 26 143 59 114 55 462 197 711 290 183 69 1399 701 1566
815 25 16 87 70 138 120 50 49 92 84 92 79 0 -6 -14 -54 -30 -108 -52 -169
-59 -276 -24 -362 16 -39 55 -53 93 -32 33 19 95 108 117 168 21 56 68 122
193 268 l96 111 5 -110 c4 -94 8 -112 24 -124 11 -8 24 -14 30 -14 11 0 120
110 258 260 53 58 98 103 101 100 9 -9 -13 -122 -39 -198 -14 -41 -23 -76 -21
-78 2 -2 198 129 436 292 238 162 439 298 446 300 14 6 57 -67 147 -249 33
-66 81 -154 107 -196 116 -184 208 -421 271 -696 26 -114 74 -408 96 -590 9
-77 23 -150 31 -163 35 -56 93 -46 195 34 56 43 58 44 62 22 3 -13 13 -135 22
-273 9 -137 20 -253 23 -257 4 -5 43 20 86 53 145 112 270 191 250 160 -15
-25 -5 -102 21 -168 15 -38 71 -153 124 -258 150 -295 214 -481 260 -755 11
-69 34 -193 50 -275 35 -180 79 -628 87 -882 7 -209 -7 -398 -44 -618 -29
-176 -88 -417 -137 -563 -19 -57 -32 -102 -28 -100 4 2 80 40 169 86 89 45
164 82 167 82 3 0 -1 -18 -9 -40 -8 -22 -33 -116 -57 -208 -35 -139 -42 -183
-42 -262 0 -85 4 -105 36 -185 117 -299 256 -484 423 -566 68 -33 98 -41 200
-54 212 -26 676 -48 1275 -60 513 -11 4559 -140 5180 -165 135 -6 351 -14 480
-20 299 -12 687 -12 1050 0 549 19 695 40 912 135 144 64 232 65 473 9 533
-124 840 -167 1185 -168 180 -1 187 0 260 28 97 37 284 131 409 205 l98 58 54
-34 c75 -48 138 -75 161 -67 11 3 23 17 29 31 14 37 11 159 -7 280 l-16 108
-85 88 c-54 56 -93 106 -107 140 -35 78 -94 268 -187 597 l-84 295 -140 141
c-117 118 -152 147 -214 177 -40 20 -79 37 -86 37 -7 0 -147 43 -312 96 -367
117 -569 176 -691 199 -85 17 -115 17 -375 6 -300 -13 -497 -6 -619 23 -88 21
-381 121 -453 156 -81 39 -141 92 -172 154 -14 28 -39 70 -55 94 -53 77 -77
143 -88 242 -6 52 -14 354 -18 670 l-7 575 63 185 c35 102 165 480 289 840
416 1214 755 2242 812 2467 11 43 41 225 66 406 46 331 63 427 109 617 14 58
48 247 76 420 27 173 56 352 64 397 8 45 22 159 31 255 27 298 56 413 133 525
47 68 81 101 182 175 94 69 149 128 230 248 116 171 210 243 395 304 118 38
247 62 518 96 333 42 666 89 1097 154 201 30 455 66 565 81 317 41 649 119
1105 260 399 123 438 144 543 285 l41 54 8 -29 c5 -17 11 -88 15 -158 6 -126
6 -128 33 -142 l27 -14 80 107 c98 133 223 282 234 282 19 0 -33 -155 -88
-263 -20 -40 -33 -80 -31 -95 6 -49 41 -40 213 59 261 149 367 191 591 234 76
15 229 49 339 76 159 39 228 51 335 59 74 5 257 29 405 54 324 54 470 74 1205
166 311 39 586 76 611 81 25 6 100 36 166 68 l121 59 5 -281 c3 -218 8 -299
21 -357 11 -49 15 -92 11 -125 -26 -202 -134 -411 -278 -533 -100 -85 -344
-245 -514 -337 -56 -30 -61 -40 -40 -69 13 -17 16 -17 84 3 38 12 74 21 78 21
4 0 -39 -30 -96 -67 l-103 -68 199 -6 c110 -4 280 -7 377 -8 l176 -1 11 -32
c19 -63 130 -475 170 -633 88 -354 84 -298 82 -1110 -3 -911 -13 -1076 -83
-1294 -38 -120 -133 -346 -238 -571 -45 -96 -91 -197 -101 -223 -61 -154 20
-165 300 -40 7 3 -8 -23 -34 -58 -50 -67 -84 -133 -85 -161 0 -26 28 -48 63
-48 18 0 91 16 162 35 133 36 192 42 224 25 40 -21 272 -317 413 -527 157
-234 242 -393 303 -563 54 -152 103 -258 225 -495 216 -420 226 -481 170 -999
-11 -99 -20 -206 -20 -238 0 -52 3 -60 24 -69 32 -15 58 -8 128 35 l58 35 6
-27 c12 -59 39 -121 90 -208 124 -213 200 -402 239 -592 22 -108 22 -286 0
-367 -23 -88 -61 -165 -101 -206 -29 -30 -33 -39 -26 -60 9 -23 13 -24 78 -20
60 3 67 1 55 -12 -19 -24 3 -55 47 -66 20 -6 98 -15 172 -21 320 -25 361 -30
380 -40 30 -16 24 -27 -17 -35 -122 -22 -110 -82 45 -221 48 -44 148 -137 222
-209 243 -235 324 -297 499 -384 251 -126 620 -257 856 -304 365 -73 1140
-204 2005 -339 l275 -43 490 1 c467 1 775 8 1715 39 l415 14 410 118 409 119
86 142 c47 77 89 141 93 142 14 0 171 -164 224 -235 34 -46 57 -91 77 -153 50
-154 73 -159 176 -36 91 109 104 139 97 224 -5 61 -73 341 -116 478 l-19 64
26 -7 c55 -14 173 -79 198 -109 14 -17 55 -75 90 -130 134 -203 299 -409 439
-549 75 -75 140 -137 144 -137 3 0 6 51 6 114 0 63 3 118 7 121 4 4 23 -6 43
-24 20 -17 42 -31 49 -31 23 0 93 57 117 97 21 33 24 49 22 128 -3 189 -33
300 -167 625 -134 324 -212 461 -378 665 l-74 90 -322 151 c-177 82 -327 155
-333 161 -12 12 21 25 181 69 83 23 124 27 325 34 127 5 266 12 310 16 l79 7
-18 -29 c-11 -16 -30 -45 -42 -64 -13 -19 -20 -37 -16 -41 4 -3 106 -32 227
-64 249 -65 262 -70 218 -79 -37 -9 -76 -48 -71 -72 6 -33 64 -60 214 -98 263
-67 413 -121 513 -184 154 -98 445 -334 680 -554 l64 -60 -21 -85 c-24 -97
-36 -115 -92 -133 -48 -16 -63 -31 -58 -62 2 -19 17 -28 93 -53 75 -25 91 -34
93 -53 4 -23 -50 -86 -93 -110 -11 -6 -18 -13 -15 -15 3 -3 104 -46 225 -96
235 -98 243 -103 379 -226 49 -44 123 -111 165 -149 42 -37 94 -76 116 -86 22
-10 96 -28 165 -40 68 -11 134 -27 145 -34 19 -12 25 -37 45 -163 32 -211 72
-361 116 -441 23 -42 69 -99 123 -152 152 -151 261 -191 641 -239 356 -45 440
-49 780 -35 173 7 511 21 750 30 239 10 638 18 885 18 500 1 490 2 820 -73
321 -74 514 -104 916 -146 386 -39 639 -57 1189 -81 230 -11 552 18 745 67
166 42 486 167 517 201 17 19 18 19 45 0 42 -31 83 -77 160 -182 81 -110 120
-147 168 -156 47 -8 242 14 278 32 38 20 73 98 98 217 22 106 23 166 8 272
-12 82 -9 96 18 73 36 -30 121 -76 182 -98 56 -21 71 -22 154 -15 51 5 130 9
177 9 78 1 92 -2 160 -35 113 -54 182 -123 235 -233 30 -64 59 -107 96 -143
93 -93 141 -101 258 -42 75 38 125 92 147 162 l17 54 40 -9 c45 -10 95 3 120
30 23 25 57 175 57 250 0 36 -8 87 -19 120 -40 117 -238 509 -374 742 -48 81
-84 127 -161 203 -148 146 -236 207 -441 308 -99 48 -263 133 -365 188 -101
55 -242 124 -312 152 -184 74 -242 130 -312 304 -68 169 -88 186 -316 263
-180 61 -216 68 -263 48 -42 -17 -191 -40 -402 -60 -350 -35 -502 -30 -740 20
-66 14 -191 36 -278 49 -238 35 -237 35 -434 205 -142 123 -212 196 -265 275
-292 442 -299 454 -309 610 -12 183 -74 507 -161 845 -61 239 -83 306 -190
580 -55 140 -144 377 -198 525 -107 294 -161 432 -269 688 -81 191 -60 83
-226 1137 -205 1303 -384 2492 -446 2965 -39 302 -65 902 -49 1153 13 213 19
249 95 627 35 176 80 426 100 555 l37 235 134 360 c322 867 401 1109 480 1455
84 371 303 1222 403 1564 100 341 209 1019 232 1446 20 370 71 759 148 1130
32 150 75 318 86 328 3 3 12 -3 19 -14 8 -10 120 -157 249 -326 l235 -308 7
120 c4 66 10 120 12 120 2 0 114 -85 248 -190 134 -104 247 -190 250 -190 3 0
3 52 -1 114 l-7 115 24 5 c13 3 114 20 224 37 228 35 348 59 479 94 101 27
271 60 701 135 470 82 682 127 771 161 45 17 255 46 649 89 610 67 884 104
973 129 18 6 55 28 82 51 97 81 310 236 355 259 32 16 49 20 54 13 4 -7 81 37
205 118 108 72 200 130 204 130 4 0 34 -78 66 -173 32 -94 62 -176 66 -180 6
-6 214 212 361 377 8 9 126 -59 217 -126 90 -66 178 -155 265 -268 126 -163
526 -610 546 -610 4 0 62 63 130 141 104 118 127 140 146 135 27 -7 488 -217
610 -278 50 -25 164 -69 255 -98 204 -65 356 -129 482 -203 54 -32 239 -163
413 -293 174 -130 318 -234 321 -231 3 3 10 59 15 124 15 197 36 343 49 343
11 0 65 -151 80 -225 l13 -60 15 35 c49 112 142 298 156 315 17 19 17 15 13
-80 -3 -55 -3 -106 0 -112 3 -7 15 -13 28 -13 17 0 42 22 90 80 102 122 455
460 579 554 l111 84 163 11 c133 9 190 8 315 -4 330 -33 663 -81 816 -116 46
-11 120 -36 165 -55 142 -63 280 -112 746 -269 250 -84 626 -214 835 -288 432
-153 862 -296 980 -326 181 -45 433 -53 565 -17 67 19 93 38 263 195 l135 124
7 66 c11 115 8 132 -50 320 -31 100 -54 185 -51 188 6 7 163 -35 212 -57 23
-10 49 -31 59 -48 36 -60 142 -95 327 -108 148 -10 438 32 475 69 7 6 85 134
174 282 88 149 210 345 270 437 159 244 181 288 190 395 4 48 8 89 8 91 1 2
35 0 76 -4 59 -5 85 -3 119 10 46 18 108 78 138 134 13 24 24 32 45 32 15 0
40 7 56 15 51 26 243 183 254 207 5 12 20 68 33 122 27 119 24 153 -24 329
-51 184 -86 261 -164 359 -37 46 -179 231 -317 411 -276 360 -262 337 -410
702 -99 244 -174 403 -222 468 -20 29 -103 133 -183 232 -80 99 -161 200 -180
225 -19 24 -79 94 -134 155 -111 124 -122 143 -232 425 -93 237 -199 475 -252
567 -22 37 -71 100 -108 138 -245 253 -525 608 -540 684 -2 14 -22 80 -44 146
-53 163 -66 220 -85 360 -8 66 -26 156 -40 199 -41 128 -31 205 55 455 63 184
87 293 100 451 6 69 17 147 25 174 18 60 20 266 4 334 -7 26 -45 120 -85 210
-85 188 -112 271 -159 489 -49 231 -43 214 -200 518 l-99 190 -302 345 c-166
190 -315 357 -332 370 -75 61 -603 564 -652 621 -90 105 -341 358 -405 409
-41 32 -197 115 -485 258 -234 116 -479 242 -545 279 -137 77 -177 114 -441
408 -89 99 -183 200 -208 225 -59 56 -59 79 -3 162 48 70 101 111 323 248 147
91 238 171 308 273 35 51 47 88 117 355 43 163 79 300 79 304 0 4 -16 0 -36
-8 -20 -8 -37 -14 -39 -12 -2 2 4 66 11 143 8 77 13 174 12 215 -3 68 -5 75
-24 78 -16 2 -31 -10 -57 -45 -19 -26 -46 -58 -59 -70 l-24 -23 -48 163 c-55
186 -178 504 -240 622 -136 254 -194 357 -234 420 -26 38 -124 150 -218 250
-145 152 -185 188 -255 229 -46 27 -104 67 -129 89 -81 72 -115 81 -280 81
-176 -1 -650 -39 -739 -60 -36 -8 -105 -33 -155 -55 -50 -23 -148 -63 -218
-89 -70 -27 -154 -63 -187 -80 -113 -61 -389 -319 -435 -408 -30 -57 -118
-298 -133 -361 -16 -70 -52 -152 -82 -188 l-18 -22 -264 121 c-674 308 -1437
633 -1557 664 -51 13 -257 55 -459 94 -318 62 -392 79 -561 136 -427 142 -605
175 -1182 219 -211 16 -378 36 -995 115 -444 57 -882 107 -1089 125 -206 18
-285 33 -741 144 -181 45 -379 93 -440 107 -247 59 -621 198 -900 335 -125 61
-244 134 -545 333 -212 141 -423 284 -470 318 -47 34 -202 148 -345 253 -491
361 -1020 728 -1295 900 -230 144 -924 536 -1510 853 -583 315 -1007 525
-1229 609 l-96 36 -615 47 c-829 65 -1046 78 -1515 91 -729 21 -1017 -4 -1325
-114 -437 -156 -1148 -443 -1465 -592 -148 -69 -494 -216 -705 -300 -283 -112
-432 -164 -564 -195 -307 -73 -1824 -382 -2356 -480 -337 -62 -395 -67 -985
-80 -852 -19 -1298 -38 -1433 -61 -237 -40 -1643 -32 -2167 12 -71 6 -256 35
-410 64 -253 49 -395 76 -935 176 -159 30 -1617 371 -3460 809 -428 102 -781
170 -2120 405 -1167 205 -1264 219 -2959 410 -519 59 -511 59 -971 44z m18174
-32217 c195 -241 493 -788 591 -1088 93 -285 206 -889 244 -1307 6 -68 13
-104 24 -115 29 -28 52 7 72 109 10 49 19 88 20 87 1 -2 43 -106 93 -233 94
-240 130 -346 182 -530 40 -141 49 -164 71 -175 27 -15 60 -12 81 7 10 9 20
14 23 11 6 -5 55 -314 55 -345 0 -22 0 -22 -71 8 -104 42 -223 79 -306 94 -74
13 -91 13 -973 -15 -273 -8 -1018 3 -1058 16 -16 5 -59 101 -74 164 l-11 46
98 144 c54 80 106 163 116 186 23 51 131 472 158 616 12 59 25 165 31 235 12
157 44 356 154 938 96 508 94 494 105 707 10 181 7 172 136 339 104 136 149
181 169 173 8 -3 40 -36 70 -72z m1745 -3718 c-6 -38 -14 -72 -18 -77 -4 -4
-17 3 -29 16 l-22 23 36 58 c20 31 38 55 41 53 2 -3 -1 -36 -8 -73z"/>
</g></g><g stroke="#e29578" stroke-width="4" fill="none" stroke-linecap="round" opacity="0.95"><path d="M284 464 L284 433 L315 433"/><path d="M553 433 L584 433 L584 464"/><path d="M284 586 L284 617 L315 617"/><path d="M553 617 L584 617 L584 586"/></g></svg>