<svg viewBox="0 0 1000 700" xmlns="http://www.w3.org/2000/svg" preserveAspectRatio="xMidYMid slice"><defs>
<linearGradient id="sky" x1="0" y1="0" x2="0" y2="1">
  <stop offset="0%" stop-color="#e4f1ee"/><stop offset="42%" stop-color="#f7ddd2"/>
  <stop offset="58%" stop-color="#f6d0c2"/><stop offset="74%" stop-color="#d3e9e0"/>
  <stop offset="100%" stop-color="#c2e1d7"/>
</linearGradient>
<linearGradient id="h1" x1="0" y1="0" x2="0" y2="1"><stop offset="0%" stop-color="#bfe0d6"/><stop offset="100%" stop-color="#a9d6c9"/></linearGradient>
<linearGradient id="h2" x1="0" y1="0" x2="0" y2="1"><stop offset="0%" stop-color="#88c8b9"/><stop offset="100%" stop-color="#6cb8a7"/></linearGradient>
<linearGradient id="h3" x1="0" y1="0" x2="0" y2="1"><stop offset="0%" stop-color="#4f9e8e"/><stop offset="100%" stop-color="#3a8576"/></linearGradient>
<linearGradient id="water" x1="0" y1="0" x2="0" y2="1">
  <stop offset="0%" stop-color="#bfeae3"/><stop offset="35%" stop-color="#73c6bd"/>
  <stop offset="70%" stop-color="#2f8f86"/><stop offset="100%" stop-color="#13524d"/>
</linearGradient>
</defs><rect width="1000" height="700" fill="url(#water)"/><g fill="#ffffff" opacity="0.09"><path d="M120 -20 L300 -20 L200 720 L70 720 Z"/><path d="M470 -20 L560 -20 L500 720 L430 720 Z"/><path d="M740 -20 L900 -20 L840 720 L690 720 Z"/></g><g stroke="#ffffff" fill="none" stroke-linecap="round"><path d="M80 200 q 90 -12 180 0 t 180 0" stroke-width="3" opacity="0.10"/><path d="M520 160 q 90 -12 180 0 t 200 0" stroke-width="3" opacity="0.09"/><path d="M40 430 q 110 -12 220 0 t 220 0" stroke-width="4" opacity="0.08"/><path d="M540 470 q 100 -10 200 0 t 200 0" stroke-width="4" opacity="0.07"/></g><g fill="#ffffff" opacity="0.35"><circle cx="300" cy="170" r="5"/><circle cx="326" cy="132" r="3"/><circle cx="316" cy="96" r="4"/><circle cx="690" cy="210" r="6"/><circle cx="712" cy="166" r="3"/><circle cx="704" cy="128" r="4"/></g><g transform="translate(300,330) scale(0.18,0.18)"><g transform="translate(0.000000,462.000000) scale(0.100000,-0.100000)"
fill="#bf4f3e" stroke="none">
<path d="M6569 4591 c-86 -54 -298 -232 -359 -300 -34 -38 -85 -103 -113 -144
-55 -80 -134 -150 -277 -247 -47 -32 -121 -91 -165 -131 -90 -82 -183 -145
-288 -194 -72 -35 -217 -63 -482 -95 -49 -5 -171 -21 -270 -35 -99 -13 -259
-34 -355 -46 -96 -11 -215 -31 -265 -43 -119 -30 -222 -50 -445 -87 -102 -16
-257 -45 -345 -64 -88 -19 -203 -41 -255 -49 -52 -9 -129 -25 -170 -36 -41
-11 -124 -32 -185 -45 -147 -33 -209 -54 -262 -87 -55 -35 -304 -122 -443
-155 -232 -55 -366 -95 -449 -132 -79 -35 -320 -134 -646 -266 -71 -29 -195
-86 -275 -127 -80 -42 -178 -88 -217 -103 -40 -15 -73 -30 -73 -35 0 -4 -33
-25 -72 -45 -107 -54 -122 -72 -123 -142 l0 -58 40 -7 c22 -4 100 -11 173 -17
128 -9 137 -11 220 -52 48 -24 109 -62 137 -84 28 -23 59 -47 70 -54 41 -25
-198 -6 -330 27 -66 16 -139 33 -162 36 -53 8 -140 -11 -164 -35 -24 -24 -25
-81 -1 -102 40 -37 374 -172 597 -242 141 -44 281 -106 486 -216 163 -88 204
-103 329 -119 47 -6 148 -26 225 -45 187 -45 298 -63 429 -70 77 -4 123 -12
153 -25 24 -11 61 -22 81 -26 20 -3 87 -19 147 -34 61 -16 137 -34 170 -40 33
-7 116 -30 185 -52 98 -31 151 -41 245 -49 66 -5 176 -14 245 -20 69 -5 222
-16 340 -24 118 -8 262 -19 320 -25 58 -5 272 -14 475 -20 204 -5 462 -17 575
-25 113 -8 273 -20 355 -26 83 -5 200 -21 260 -34 133 -28 235 -41 462 -56
179 -12 219 -9 225 16 2 13 14 9 53 -18 108 -74 275 -176 375 -229 103 -55
479 -196 576 -216 88 -18 368 -46 397 -39 39 10 35 34 -22 119 -26 40 -60 91
-73 113 -14 23 -77 96 -139 164 -63 68 -115 129 -117 136 -3 12 122 25 249 25
31 0 85 9 120 19 49 15 118 22 290 30 208 9 234 13 320 40 61 19 136 34 214
41 85 8 155 23 247 51 168 52 235 65 414 83 111 11 169 22 220 41 274 105 337
95 924 -145 124 -50 280 -116 346 -145 152 -67 261 -101 391 -120 161 -24 197
-7 218 105 8 46 30 79 59 90 16 6 27 22 34 52 6 24 26 66 43 93 91 140 148
235 175 290 10 22 40 65 67 96 31 37 47 65 47 83 0 18 10 37 30 54 36 32 38
55 5 87 -19 20 -34 25 -77 25 -50 0 -279 33 -323 47 -19 6 -19 6 3 14 42 16
447 98 557 113 163 23 403 29 640 18 226 -11 189 -4 517 -103 57 -17 161 -62
250 -108 84 -43 272 -126 418 -184 349 -139 386 -156 510 -237 112 -72 300
-171 384 -200 28 -10 87 -33 131 -53 132 -57 305 -97 418 -97 39 0 57 -5 75
-22 l25 -23 -6 97 c-4 66 -12 111 -26 143 -12 26 -21 67 -21 90 0 44 -29 123
-61 164 -22 27 -24 53 -7 81 10 15 9 26 -5 55 -9 20 -17 41 -17 46 0 6 -11 24
-25 41 -19 23 -25 41 -25 79 0 27 5 49 10 49 26 0 6 38 -34 61 l-43 27 -5 89
c-5 92 -17 128 -50 151 -42 30 -80 163 -59 209 11 24 9 29 -22 62 -49 51 -60
76 -47 101 6 12 8 29 5 40 -3 10 1 33 10 50 10 20 14 42 10 60 -8 38 10 103
39 137 l24 28 -21 29 c-20 28 -20 29 -2 42 13 10 21 34 27 80 6 52 17 83 52
143 25 42 57 102 71 135 16 36 33 60 45 63 25 7 25 9 -6 46 -29 35 -28 68 7
146 10 24 19 59 19 77 0 23 9 44 30 67 22 26 30 45 30 73 0 24 10 55 25 79 13
22 25 49 25 61 0 11 7 35 16 52 8 17 20 61 26 98 5 36 21 89 34 118 13 28 24
68 24 89 l0 37 -53 0 c-29 0 -77 -7 -107 -16 -30 -8 -95 -27 -145 -40 -159
-43 -248 -75 -340 -119 -132 -63 -275 -122 -347 -142 -37 -10 -84 -33 -113
-55 -27 -21 -98 -58 -157 -84 -103 -44 -168 -90 -303 -213 -11 -10 -41 -27
-67 -39 -26 -11 -68 -35 -93 -52 -24 -17 -83 -48 -130 -70 -47 -21 -85 -44
-85 -50 0 -21 -108 -78 -190 -101 -47 -12 -119 -37 -160 -54 -180 -77 -220
-80 -513 -45 -121 15 -242 38 -412 80 -275 68 -442 98 -603 107 -62 3 -115 10
-118 15 -3 4 8 22 25 38 28 28 34 30 106 30 71 0 79 2 105 29 62 62 46 115
-48 159 -53 25 -68 27 -229 30 -199 5 -286 -7 -488 -65 -164 -46 -228 -47
-415 -5 -160 36 -302 56 -540 77 -96 8 -281 28 -410 45 -445 56 -1143 113
-1730 140 -358 17 -440 23 -440 30 0 18 66 32 197 44 111 10 148 17 163 31 26
24 25 35 -9 82 -18 25 -40 42 -58 46 -18 4 -44 25 -73 59 -68 81 -327 308
-351 308 -5 0 -14 11 -19 25 -5 14 -31 38 -56 53 -25 15 -79 60 -119 100 -40
39 -77 72 -83 72 -5 0 -22 19 -37 42 -47 72 -115 137 -169 162 -28 13 -69 36
-92 50 l-41 25 -44 -28z"/>
</g></g><g transform="translate(540,270) scale(0.13,0.13)"><g transform="translate(0.000000,462.000000) scale(0.100000,-0.100000)"
fill="#cb6450" stroke="none">
<path d="M6569 4591 c-86 -54 -298 -232 -359 -300 -34 -38 -85 -103 -113 -144
-55 -80 -134 -150 -277 -247 -47 -32 -121 -91 -165 -131 -90 -82 -183 -145
-288 -194 -72 -35 -217 -63 -482 -95 -49 -5 -171 -21 -270 -35 -99 -13 -259
-34 -355 -46 -96 -11 -215 -31 -265 -43 -119 -30 -222 -50 -445 -87 -102 -16
-257 -45 -345 -64 -88 -19 -203 -41 -255 -49 -52 -9 -129 -25 -170 -36 -41
-11 -124 -32 -185 -45 -147 -33 -209 -54 -262 -87 -55 -35 -304 -122 -443
-155 -232 -55 -366 -95 -449 -132 -79 -35 -320 -134 -646 -266 -71 -29 -195
-86 -275 -127 -80 -42 -178 -88 -217 -103 -40 -15 -73 -30 -73 -35 0 -4 -33
-25 -72 -45 -107 -54 -122 -72 -123 -142 l0 -58 40 -7 c22 -4 100 -11 173 -17
128 -9 137 -11 220 -52 48 -24 109 -62 137 -84 28 -23 59 -47 70 -54 41 -25
-198 -6 -330 27 -66 16 -139 33 -162 36 -53 8 -140 -11 -164 -35 -24 -24 -25
-81 -1 -102 40 -37 374 -172 597 -242 141 -44 281 -106 486 -216 163 -88 204
-103 329 -119 47 -6 148 -26 225 -45 187 -45 298 -63 429 -70 77 -4 123 -12
153 -25 24 -11 61 -22 81 -26 20 -3 87 -19 147 -34 61 -16 137 -34 170 -40 33
-7 116 -30 185 -52 98 -31 151 -41 245 -49 66 -5 176 -14 245 -20 69 -5 222
-16 340 -24 118 -8 262 -19 320 -25 58 -5 272 -14 475 -20 204 -5 462 -17 575
-25 113 -8 273 -20 355 -26 83 -5 200 -21 260 -34 133 -28 235 -41 462 -56
179 -12 219 -9 225 16 2 13 14 9 53 -18 108 -74 275 -176 375 -229 103 -55
479 -196 576 -216 88 -18 368 -46 397 -39 39 10 35 34 -22 119 -26 40 -60 91
-73 113 -14 23 -77 96 -139 164 -63 68 -115 129 -117 136 -3 12 122 25 249 25
31 0 85 9 120 19 49 15 118 22 290 30 208 9 234 13 320 40 61 19 136 34 214
41 85 8 155 23 247 51 168 52 235 65 414 83 111 11 169 22 220 41 274 105 337
95 924 -145 124 -50 280 -116 346 -145 152 -67 261 -101 391 -120 161 -24 197
-7 218 105 8 46 30 79 59 90 16 6 27 22 34 52 6 24 26 66 43 93 91 140 148
235 175 290 10 22 40 65 67 96 31 37 47 65 47 83 0 18 10 37 30 54 36 32 38
55 5 87 -19 20 -34 25 -77 25 -50 0 -279 33 -323 47 -19 6 -19 6 3 14 42 16
447 98 557 113 163 23 403 29 640 18 226 -11 189 -4 517 -103 57 -17 161 -62
250 -108 84 -43 272 -126 418 -184 349 -139 386 -156 510 -237 112 -72 300
-171 384 -200 28 -10 87 -33 131 -53 132 -57 305 -97 418 -97 39 0 57 -5 75
-22 l25 -23 -6 97 c-4 66 -12 111 -26 143 -12 26 -21 67 -21 90 0 44 -29 123
-61 164 -22 27 -24 53 -7 81 10 15 9 26 -5 55 -9 20 -17 41 -17 46 0 6 -11 24
-25 41 -19 23 -25 41 -25 79 0 27 5 49 10 49 26 0 6 38 -34 61 l-43 27 -5 89
c-5 92 -17 128 -50 151 -42 30 -80 163 -59 209 11 24 9 29 -22 62 -49 51 -60
76 -47 101 6 12 8 29 5 40 -3 10 1 33 10 50 10 20 14 42 10 60 -8 38 10 103
39 137 l24 28 -21 29 c-20 28 -20 29 -2 42 13 10 21 34 27 80 6 52 17 83 52
143 25 42 57 102 71 135 16 36 33 60 45 63 25 7 25 9 -6 46 -29 35 -28 68 7
146 10 24 19 59 19 77 0 23 9 44 30 67 22 26 30 45 30 73 0 24 10 55 25 79 13
22 25 49 25 61 0 11 7 35 16 52 8 17 20 61 26 98 5 36 21 89 34 118 13 28 24
68 24 89 l0 37 -53 0 c-29 0 -77 -7 -107 -16 -30 -8 -95 -27 -145 -40 -159
-43 -248 -75 -340 -119 -132 -63 -275 -122 -347 -142 -37 -10 -84 -33 -113
-55 -27 -21 -98 -58 -157 -84 -103 -44 -168 -90 -303 -213 -11 -10 -41 -27
-67 -39 -26 -11 -68 -35 -93 -52 -24 -17 -83 -48 -130 -70 -47 -21 -85 -44
-85 -50 0 -21 -108 -78 -190 -101 -47 -12 -119 -37 -160 -54 -180 -77 -220
-80 -513 -45 -121 15 -242 38 -412 80 -275 68 -442 98 -603 107 -62 3 -115 10
-118 15 -3 4 8 22 25 38 28 28 34 30 106 30 71 0 79 2 105 29 62 62 46 115
-48 159 -53 25 -68 27 -229 30 -199 5 -286 -7 -488 -65 -164 -46 -228 -47
-415 -5 -160 36 -302 56 -540 77 -96 8 -281 28 -410 45 -445 56 -1143 113
-1730 140 -358 17 -440 23 -440 30 0 18 66 32 197 44 111 10 148 17 163 31 26
24 25 35 -9 82 -18 25 -40 42 -58 46 -18 4 -44 25 -73 59 -68 81 -327 308
-351 308 -5 0 -14 11 -19 25 -5 14 -31 38 -56 53 -25 15 -79 60 -119 100 -40
39 -77 72 -83 72 -5 0 -22 19 -37 42 -47 72 -115 137 -169 162 -28 13 -69 36
-92 50 l-41 25 -44 -28z"/>
</g></g><g transform="translate(110,250) scale(0.12,0.12)"><g transform="translate(0.000000,462.000000) scale(0.100000,-0.100000)"
fill="#cb6450" stroke="none">
<path d="M6569 4591 c-86 -54 -298 -232 -359 -300 -34 -38 -85 -103 -113 -144
-55 -80 -134 -150 -277 -247 -47 -32 -121 -91 -165 -131 -90 -82 -183 -145
-288 -194 -72 -35 -217 -63 -482 -95 -49 -5 -171 -21 -270 -35 -99 -13 -259
-34 -355 -46 -96 -11 -215 -31 -265 -43 -119 -30 -222 -50 -445 -87 -102 -16
-257 -45 -345 -64 -88 -19 -203 -41 -255 -49 -52 -9 -129 -25 -170 -36 -41
-11 -124 -32 -185 -45 -147 -33 -209 -54 -262 -87 -55 -35 -304 -122 -443
-155 -232 -55 -366 -95 -449 -132 -79 -35 -320 -134 -646 -266 -71 -29 -195
-86 -275 -127 -80 -42 -178 -88 -217 -103 -40 -15 -73 -30 -73 -35 0 -4 -33
-25 -72 -45 -107 -54 -122 -72 -123 -142 l0 -58 40 -7 c22 -4 100 -11 173 -17
128 -9 137 -11 220 -52 48 -24 109 -62 137 -84 28 -23 59 -47 70 -54 41 -25
-198 -6 -330 27 -66 16 -139 33 -162 36 -53 8 -140 -11 -164 -35 -24 -24 -25
-81 -1 -102 40 -37 374 -172 597 -242 141 -44 281 -106 486 -216 163 -88 204
-103 329 -119 47 -6 148 -26 225 -45 187 -45 298 -63 429 -70 77 -4 123 -12
153 -25 24 -11 61 -22 81 -26 20 -3 87 -19 147 -34 61 -16 137 -34 170 -40 33
-7 116 -30 185 -52 98 -31 151 -41 245 -49 66 -5 176 -14 245 -20 69 -5 222
-16 340 -24 118 -8 262 -19 320 -25 58 -5 272 -14 475 -20 204 -5 462 -17 575
-25 113 -8 273 -20 355 -26 83 -5 200 -21 260 -34 133 -28 235 -41 462 -56
179 -12 219 -9 225 16 2 13 14 9 53 -18 108 -74 275 -176 375 -229 103 -55
479 -196 576 -216 88 -18 368 -46 397 -39 39 10 35 34 -22 119 -26 40 -60 91
-73 113 -14 23 -77 96 -139 164 -63 68 -115 129 -117 136 -3 12 122 25 249 25
31 0 85 9 120 19 49 15 118 22 290 30 208 9 234 13 320 40 61 19 136 34 214
41 85 8 155 23 247 51 168 52 235 65 414 83 111 11 169 22 220 41 274 105 337
95 924 -145 124 -50 280 -116 346 -145 152 -67 261 -101 391 -120 161 -24 197
-7 218 105 8 46 30 79 59 90 16 6 27 22 34 52 6 24 26 66 43 93 91 140 148
235 175 290 10 22 40 65 67 96 31 37 47 65 47 83 0 18 10 37 30 54 36 32 38
55 5 87 -19 20 -34 25 -77 25 -50 0 -279 33 -323 47 -19 6 -19 6 3 14 42 16
447 98 557 113 163 23 403 29 640 18 226 -11 189 -4 517 -103 57 -17 161 -62
250 -108 84 -43 272 -126 418 -184 349 -139 386 -156 510 -237 112 -72 300
-171 384 -200 28 -10 87 -33 131 -53 132 -57 305 -97 418 -97 39 0 57 -5 75
-22 l25 -23 -6 97 c-4 66 -12 111 -26 143 -12 26 -21 67 -21 90 0 44 -29 123
-61 164 -22 27 -24 53 -7 81 10 15 9 26 -5 55 -9 20 -17 41 -17 46 0 6 -11 24
-25 41 -19 23 -25 41 -25 79 0 27 5 49 10 49 26 0 6 38 -34 61 l-43 27 -5 89
c-5 92 -17 128 -50 151 -42 30 -80 163 -59 209 11 24 9 29 -22 62 -49 51 -60
76 -47 101 6 12 8 29 5 40 -3 10 1 33 10 50 10 20 14 42 10 60 -8 38 10 103
39 137 l24 28 -21 29 c-20 28 -20 29 -2 42 13 10 21 34 27 80 6 52 17 83 52
143 25 42 57 102 71 135 16 36 33 60 45 63 25 7 25 9 -6 46 -29 35 -28 68 7
146 10 24 19 59 19 77 0 23 9 44 30 67 22 26 30 45 30 73 0 24 10 55 25 79 13
22 25 49 25 61 0 11 7 35 16 52 8 17 20 61 26 98 5 36 21 89 34 118 13 28 24
68 24 89 l0 37 -53 0 c-29 0 -77 -7 -107 -16 -30 -8 -95 -27 -145 -40 -159
-43 -248 -75 -340 -119 -132 -63 -275 -122 -347 -142 -37 -10 -84 -33 -113
-55 -27 -21 -98 -58 -157 -84 -103 -44 -168 -90 -303 -213 -11 -10 -41 -27
-67 -39 -26 -11 -68 -35 -93 -52 -24 -17 -83 -48 -130 -70 -47 -21 -85 -44
-85 -50 0 -21 -108 -78 -190 -101 -47 -12 -119 -37 -160 -54 -180 -77 -220
-80 -513 -45 -121 15 -242 38 -412 80 -275 68 -442 98 -603 107 -62 3 -115 10
-118 15 -3 4 8 22 25 38 28 28 34 30 106 30 71 0 79 2 105 29 62 62 46 115
-48 159 -53 25 -68 27 -229 30 -199 5 -286 -7 -488 -65 -164 -46 -228 -47
-415 -5 -160 36 -302 56 -540 77 -96 8 -281 28 -410 45 -445 56 -1143 113
-1730 140 -358 17 -440 23 -440 30 0 18 66 32 197 44 111 10 148 17 163 31 26
24 25 35 -9 82 -18 25 -40 42 -58 46 -18 4 -44 25 -73 59 -68 81 -327 308
-351 308 -5 0 -14 11 -19 25 -5 14 -31 38 -56 53 -25 15 -79 60 -119 100 -40
39 -77 72 -83 72 -5 0 -22 19 -37 42 -47 72 -115 137 -169 162 -28 13 -69 36
-92 50 l-41 25 -44 -28z"/>
</g></g><g transform="translate(430,190) scale(0.095,0.095)"><g transform="translate(0.000000,462.000000) scale(0.100000,-0.100000)"
fill="#db8a76" stroke="none">
<path d="M6569 4591 c-86 -54 -298 -232 -359 -300 -34 -38 -85 -103 -113 -144
-55 -80 -134 -150 -277 -247 -47 -32 -121 -91 -165 -131 -90 -82 -183 -145
-288 -194 -72 -35 -217 -63 -482 -95 -49 -5 -171 -21 -270 -35 -99 -13 -259
-34 -355 -46 -96 -11 -215 -31 -265 -43 -119 -30 -222 -50 -445 -87 -102 -16
-257 -45 -345 -64 -88 -19 -203 -41 -255 -49 -52 -9 -129 -25 -170 -36 -41
-11 -124 -32 -185 -45 -147 -33 -209 -54 -262 -87 -55 -35 -304 -122 -443
-155 -232 -55 -366 -95 -449 -132 -79 -35 -320 -134 -646 -266 -71 -29 -195
-86 -275 -127 -80 -42 -178 -88 -217 -103 -40 -15 -73 -30 -73 -35 0 -4 -33
-25 -72 -45 -107 -54 -122 -72 -123 -142 l0 -58 40 -7 c22 -4 100 -11 173 -17
128 -9 137 -11 220 -52 48 -24 109 -62 137 -84 28 -23 59 -47 70 -54 41 -25
-198 -6 -330 27 -66 16 -139 33 -162 36 -53 8 -140 -11 -164 -35 -24 -24 -25
-81 -1 -102 40 -37 374 -172 597 -242 141 -44 281 -106 486 -216 163 -88 204
-103 329 -119 47 -6 148 -26 225 -45 187 -45 298 -63 429 -70 77 -4 123 -12
153 -25 24 -11 61 -22 81 -26 20 -3 87 -19 147 -34 61 -16 137 -34 170 -40 33
-7 116 -30 185 -52 98 -31 151 -41 245 -49 66 -5 176 -14 245 -20 69 -5 222
-16 340 -24 118 -8 262 -19 320 -25 58 -5 272 -14 475 -20 204 -5 462 -17 575
-25 113 -8 273 -20 355 -26 83 -5 200 -21 260 -34 133 -28 235 -41 462 -56
179 -12 219 -9 225 16 2 13 14 9 53 -18 108 -74 275 -176 375 -229 103 -55
479 -196 576 -216 88 -18 368 -46 397 -39 39 10 35 34 -22 119 -26 40 -60 91
-73 113 -14 23 -77 96 -139 164 -63 68 -115 129 -117 136 -3 12 122 25 249 25
31 0 85 9 120 19 49 15 118 22 290 30 208 9 234 13 320 40 61 19 136 34 214
41 85 8 155 23 247 51 168 52 235 65 414 83 111 11 169 22 220 41 274 105 337
95 924 -145 124 -50 280 -116 346 -145 152 -67 261 -101 391 -120 161 -24 197
-7 218 105 8 46 30 79 59 90 16 6 27 22 34 52 6 24 26 66 43 93 91 140 148
235 175 290 10 22 40 65 67 96 31 37 47 65 47 83 0 18 10 37 30 54 36 32 38
55 5 87 -19 20 -34 25 -77 25 -50 0 -279 33 -323 47 -19 6 -19 6 3 14 42 16
447 98 557 113 163 23 403 29 640 18 226 -11 189 -4 517 -103 57 -17 161 -62
250 -108 84 -43 272 -126 418 -184 349 -139 386 -156 510 -237 112 -72 300
-171 384 -200 28 -10 87 -33 131 -53 132 -57 305 -97 418 -97 39 0 57 -5 75
-22 l25 -23 -6 97 c-4 66 -12 111 -26 143 -12 26 -21 67 -21 90 0 44 -29 123
-61 164 -22 27 -24 53 -7 81 10 15 9 26 -5 55 -9 20 -17 41 -17 46 0 6 -11 24
-25 41 -19 23 -25 41 -25 79 0 27 5 49 10 49 26 0 6 38 -34 61 l-43 27 -5 89
c-5 92 -17 128 -50 151 -42 30 -80 163 -59 209 11 24 9 29 -22 62 -49 51 -60
76 -47 101 6 12 8 29 5 40 -3 10 1 33 10 50 10 20 14 42 10 60 -8 38 10 103
39 137 l24 28 -21 29 c-20 28 -20 29 -2 42 13 10 21 34 27 80 6 52 17 83 52
143 25 42 57 102 71 135 16 36 33 60 45 63 25 7 25 9 -6 46 -29 35 -28 68 7
146 10 24 19 59 19 77 0 23 9 44 30 67 22 26 30 45 30 73 0 24 10 55 25 79 13
22 25 49 25 61 0 11 7 35 16 52 8 17 20 61 26 98 5 36 21 89 34 118 13 28 24
68 24 89 l0 37 -53 0 c-29 0 -77 -7 -107 -16 -30 -8 -95 -27 -145 -40 -159
-43 -248 -75 -340 -119 -132 -63 -275 -122 -347 -142 -37 -10 -84 -33 -113
-55 -27 -21 -98 -58 -157 -84 -103 -44 -168 -90 -303 -213 -11 -10 -41 -27
-67 -39 -26 -11 -68 -35 -93 -52 -24 -17 -83 -48 -130 -70 -47 -21 -85 -44
-85 -50 0 -21 -108 -78 -190 -101 -47 -12 -119 -37 -160 -54 -180 -77 -220
-80 -513 -45 -121 15 -242 38 -412 80 -275 68 -442 98 -603 107 -62 3 -115 10
-118 15 -3 4 8 22 25 38 28 28 34 30 106 30 71 0 79 2 105 29 62 62 46 115
-48 159 -53 25 -68 27 -229 30 -199 5 -286 -7 -488 -65 -164 -46 -228 -47
-415 -5 -160 36 -302 56 -540 77 -96 8 -281 28 -410 45 -445 56 -1143 113
-1730 140 -358 17 -440 23 -440 30 0 18 66 32 197 44 111 10 148 17 163 31 26
24 25 35 -9 82 -18 25 -40 42 -58 46 -18 4 -44 25 -73 59 -68 81 -327 308
-351 308 -5 0 -14 11 -19 25 -5 14 -31 38 -56 53 -25 15 -79 60 -119 100 -40
39 -77 72 -83 72 -5 0 -22 19 -37 42 -47 72 -115 137 -169 162 -28 13 -69 36
-92 50 l-41 25 -44 -28z"/>
</g></g><g transform="translate(690,360) scale(0.11,0.11)"><g transform="translate(0.000000,462.000000) scale(0.100000,-0.100000)"
fill="#c45746" stroke="none">
<path d="M6569 4591 c-86 -54 -298 -232 -359 -300 -34 -38 -85 -103 -113 -144
-55 -80 -134 -150 -277 -247 -47 -32 -121 -91 -165 -131 -90 -82 -183 -145
-288 -194 -72 -35 -217 -63 -482 -95 -49 -5 -171 -21 -270 -35 -99 -13 -259
-34 -355 -46 -96 -11 -215 -31 -265 -43 -119 -30 -222 -50 -445 -87 -102 -16
-257 -45 -345 -64 -88 -19 -203 -41 -255 -49 -52 -9 -129 -25 -170 -36 -41
-11 -124 -32 -185 -45 -147 -33 -209 -54 -262 -87 -55 -35 -304 -122 -443
-155 -232 -55 -366 -95 -449 -132 -79 -35 -320 -134 -646 -266 -71 -29 -195
-86 -275 -127 -80 -42 -178 -88 -217 -103 -40 -15 -73 -30 -73 -35 0 -4 -33
-25 -72 -45 -107 -54 -122 -72 -123 -142 l0 -58 40 -7 c22 -4 100 -11 173 -17
128 -9 137 -11 220 -52 48 -24 109 -62 137 -84 28 -23 59 -47 70 -54 41 -25
-198 -6 -330 27 -66 16 -139 33 -162 36 -53 8 -140 -11 -164 -35 -24 -24 -25
-81 -1 -102 40 -37 374 -172 597 -242 141 -44 281 -106 486 -216 163 -88 204
-103 329 -119 47 -6 148 -26 225 -45 187 -45 298 -63 429 -70 77 -4 123 -12
153 -25 24 -11 61 -22 81 -26 20 -3 87 -19 147 -34 61 -16 137 -34 170 -40 33
-7 116 -30 185 -52 98 -31 151 -41 245 -49 66 -5 176 -14 245 -20 69 -5 222
-16 340 -24 118 -8 262 -19 320 -25 58 -5 272 -14 475 -20 204 -5 462 -17 575
-25 113 -8 273 -20 355 -26 83 -5 200 -21 260 -34 133 -28 235 -41 462 -56
179 -12 219 -9 225 16 2 13 14 9 53 -18 108 -74 275 -176 375 -229 103 -55
479 -196 576 -216 88 -18 368 -46 397 -39 39 10 35 34 -22 119 -26 40 -60 91
-73 113 -14 23 -77 96 -139 164 -63 68 -115 129 -117 136 -3 12 122 25 249 25
31 0 85 9 120 19 49 15 118 22 290 30 208 9 234 13 320 40 61 19 136 34 214
41 85 8 155 23 247 51 168 52 235 65 414 83 111 11 169 22 220 41 274 105 337
95 924 -145 124 -50 280 -116 346 -145 152 -67 261 -101 391 -120 161 -24 197
-7 218 105 8 46 30 79 59 90 16 6 27 22 34 52 6 24 26 66 43 93 91 140 148
235 175 290 10 22 40 65 67 96 31 37 47 65 47 83 0 18 10 37 30 54 36 32 38
55 5 87 -19 20 -34 25 -77 25 -50 0 -279 33 -323 47 -19 6 -19 6 3 14 42 16
447 98 557 113 163 23 403 29 640 18 226 -11 189 -4 517 -103 57 -17 161 -62
250 -108 84 -43 272 -126 418 -184 349 -139 386 -156 510 -237 112 -72 300
-171 384 -200 28 -10 87 -33 131 -53 132 -57 305 -97 418 -97 39 0 57 -5 75
-22 l25 -23 -6 97 c-4 66 -12 111 -26 143 -12 26 -21 67 -21 90 0 44 -29 123
-61 164 -22 27 -24 53 -7 81 10 15 9 26 -5 55 -9 20 -17 41 -17 46 0 6 -11 24
-25 41 -19 23 -25 41 -25 79 0 27 5 49 10 49 26 0 6 38 -34 61 l-43 27 -5 89
c-5 92 -17 128 -50 151 -42 30 -80 163 -59 209 11 24 9 29 -22 62 -49 51 -60
76 -47 101 6 12 8 29 5 40 -3 10 1 33 10 50 10 20 14 42 10 60 -8 38 10 103
39 137 l24 28 -21 29 c-20 28 -20 29 -2 42 13 10 21 34 27 80 6 52 17 83 52
143 25 42 57 102 71 135 16 36 33 60 45 63 25 7 25 9 -6 46 -29 35 -28 68 7
146 10 24 19 59 19 77 0 23 9 44 30 67 22 26 30 45 30 73 0 24 10 55 25 79 13
22 25 49 25 61 0 11 7 35 16 52 8 17 20 61 26 98 5 36 21 89 34 118 13 28 24
68 24 89 l0 37 -53 0 c-29 0 -77 -7 -107 -16 -30 -8 -95 -27 -145 -40 -159
-43 -248 -75 -340 -119 -132 -63 -275 -122 -347 -142 -37 -10 -84 -33 -113
-55 -27 -21 -98 -58 -157 -84 -103 -44 -168 -90 -303 -213 -11 -10 -41 -27
-67 -39 -26 -11 -68 -35 -93 -52 -24 -17 -83 -48 -130 -70 -47 -21 -85 -44
-85 -50 0 -21 -108 -78 -190 -101 -47 -12 -119 -37 -160 -54 -180 -77 -220
-80 -513 -45 -121 15 -242 38 -412 80 -275 68 -442 98 -603 107 -62 3 -115 10
-118 15 -3 4 8 22 25 38 28 28 34 30 106 30 71 0 79 2 105 29 62 62 46 115
-48 159 -53 25 -68 27 -229 30 -199 5 -286 -7 -488 -65 -164 -46 -228 -47
-415 -5 -160 36 -302 56 -540 77 -96 8 -281 28 -410 45 -445 56 -1143 113
-1730 140 -358 17 -440 23 -440 30 0 18 66 32 197 44 111 10 148 17 163 31 26
24 25 35 -9 82 -18 25 -40 42 -58 46 -18 4 -44 25 -73 59 -68 81 -327 308
-351 308 -5 0 -14 11 -19 25 -5 14 -31 38 -56 53 -25 15 -79 60 -119 100 -40
39 -77 72 -83 72 -5 0 -22 19 -37 42 -47 72 -115 137 -169 162 -28 13 -69 36
-92 50 l-41 25 -44 -28z"/>
</g></g><g transform="translate(800,220) scale(0.08,0.08)"><g transform="translate(0.000000,462.000000) scale(0.100000,-0.100000)"
fill="#e0a18e" stroke="none">
<path d="M6569 4591 c-86 -54 -298 -232 -359 -300 -34 -38 -85 -103 -113 -144
-55 -80 -134 -150 -277 -247 -47 -32 -121 -91 -165 -131 -90 -82 -183 -145
-288 -194 -72 -35 -217 -63 -482 -95 -49 -5 -171 -21 -270 -35 -99 -13 -259
-34 -355 -46 -96 -11 -215 -31 -265 -43 -119 -30 -222 -50 -445 -87 -102 -16
-257 -45 -345 -64 -88 -19 -203 -41 -255 -49 -52 -9 -129 -25 -170 -36 -41
-11 -124 -32 -185 -45 -147 -33 -209 -54 -262 -87 -55 -35 -304 -122 -443
-155 -232 -55 -366 -95 -449 -132 -79 -35 -320 -134 -646 -266 -71 -29 -195
-86 -275 -127 -80 -42 -178 -88 -217 -103 -40 -15 -73 -30 -73 -35 0 -4 -33
-25 -72 -45 -107 -54 -122 -72 -123 -142 l0 -58 40 -7 c22 -4 100 -11 173 -17
128 -9 137 -11 220 -52 48 -24 109 -62 137 -84 28 -23 59 -47 70 -54 41 -25
-198 -6 -330 27 -66 16 -139 33 -162 36 -53 8 -140 -11 -164 -35 -24 -24 -25
-81 -1 -102 40 -37 374 -172 597 -242 141 -44 281 -106 486 -216 163 -88 204
-103 329 -119 47 -6 148 -26 225 -45 187 -45 298 -63 429 -70 77 -4 123 -12
153 -25 24 -11 61 -22 81 -26 20 -3 87 -19 147 -34 61 -16 137 -34 170 -40 33
-7 116 -30 185 -52 98 -31 151 -41 245 -49 66 -5 176 -14 245 -20 69 -5 222
-16 340 -24 118 -8 262 -19 320 -25 58 -5 272 -14 475 -20 204 -5 462 -17 575
-25 113 -8 273 -20 355 -26 83 -5 200 -21 260 -34 133 -28 235 -41 462 -56
179 -12 219 -9 225 16 2 13 14 9 53 -18 108 -74 275 -176 375 -229 103 -55
479 -196 576 -216 88 -18 368 -46 397 -39 39 10 35 34 -22 119 -26 40 -60 91
-73 113 -14 23 -77 96 -139 164 -63 68 -115 129 -117 136 -3 12 122 25 249 25
31 0 85 9 120 19 49 15 118 22 290 30 208 9 234 13 320 40 61 19 136 34 214
41 85 8 155 23 247 51 168 52 235 65 414 83 111 11 169 22 220 41 274 105 337
95 924 -145 124 -50 280 -116 346 -145 152 -67 261 -101 391 -120 161 -24 197
-7 218 105 8 46 30 79 59 90 16 6 27 22 34 52 6 24 26 66 43 93 91 140 148
235 175 290 10 22 40 65 67 96 31 37 47 65 47 83 0 18 10 37 30 54 36 32 38
55 5 87 -19 20 -34 25 -77 25 -50 0 -279 33 -323 47 -19 6 -19 6 3 14 42 16
447 98 557 113 163 23 403 29 640 18 226 -11 189 -4 517 -103 57 -17 161 -62
250 -108 84 -43 272 -126 418 -184 349 -139 386 -156 510 -237 112 -72 300
-171 384 -200 28 -10 87 -33 131 -53 132 -57 305 -97 418 -97 39 0 57 -5 75
-22 l25 -23 -6 97 c-4 66 -12 111 -26 143 -12 26 -21 67 -21 90 0 44 -29 123
-61 164 -22 27 -24 53 -7 81 10 15 9 26 -5 55 -9 20 -17 41 -17 46 0 6 -11 24
-25 41 -19 23 -25 41 -25 79 0 27 5 49 10 49 26 0 6 38 -34 61 l-43 27 -5 89
c-5 92 -17 128 -50 151 -42 30 -80 163 -59 209 11 24 9 29 -22 62 -49 51 -60
76 -47 101 6 12 8 29 5 40 -3 10 1 33 10 50 10 20 14 42 10 60 -8 38 10 103
39 137 l24 28 -21 29 c-20 28 -20 29 -2 42 13 10 21 34 27 80 6 52 17 83 52
143 25 42 57 102 71 135 16 36 33 60 45 63 25 7 25 9 -6 46 -29 35 -28 68 7
146 10 24 19 59 19 77 0 23 9 44 30 67 22 26 30 45 30 73 0 24 10 55 25 79 13
22 25 49 25 61 0 11 7 35 16 52 8 17 20 61 26 98 5 36 21 89 34 118 13 28 24
68 24 89 l0 37 -53 0 c-29 0 -77 -7 -107 -16 -30 -8 -95 -27 -145 -40 -159
-43 -248 -75 -340 -119 -132 -63 -275 -122 -347 -142 -37 -10 -84 -33 -113
-55 -27 -21 -98 -58 -157 -84 -103 -44 -168 -90 -303 -213 -11 -10 -41 -27
-67 -39 -26 -11 -68 -35 -93 -52 -24 -17 -83 -48 -130 -70 -47 -21 -85 -44
-85 -50 0 -21 -108 -78 -190 -101 -47 -12 -119 -37 -160 -54 -180 -77 -220
-80 -513 -45 -121 15 -242 38 -412 80 -275 68 -442 98 -603 107 -62 3 -115 10
-118 15 -3 4 8 22 25 38 28 28 34 30 106 30 71 0 79 2 105 29 62 62 46 115
-48 159 -53 25 -68 27 -229 30 -199 5 -286 -7 -488 -65 -164 -46 -228 -47
-415 -5 -160 36 -302 56 -540 77 -96 8 -281 28 -410 45 -445 56 -1143 113
-1730 140 -358 17 -440 23 -440 30 0 18 66 32 197 44 111 10 148 17 163 31 26
24 25 35 -9 82 -18 25 -40 42 -58 46 -18 4 -44 25 -73 59 -68 81 -327 308
-351 308 -5 0 -14 11 -19 25 -5 14 -31 38 -56 53 -25 15 -79 60 -119 100 -40
39 -77 72 -83 72 -5 0 -22 19 -37 42 -47 72 -115 137 -169 162 -28 13 -69 36
-92 50 l-41 25 -44 -28z"/>
</g></g><path d="M0 620 C 250 596, 560 622, 1000 610 L1000 700 L0 700 Z" fill="#0f4742"/><ellipse cx="90" cy="640" rx="26" ry="16" fill="#0e433e"/><ellipse cx="160" cy="660" rx="34" ry="20" fill="#0a3a36"/><ellipse cx="250" cy="648" rx="24" ry="14" fill="#0e433e"/><ellipse cx="340" cy="662" rx="30" ry="18" fill="#0a3a36"/><ellipse cx="450" cy="650" rx="26" ry="16" fill="#0e433e"/><ellipse cx="560" cy="664" rx="34" ry="20" fill="#0a3a36"/><ellipse cx="660" cy="648" rx="22" ry="13" fill="#0e433e"/><ellipse cx="760" cy="662" rx="30" ry="18" fill="#0a3a36"/><ellipse cx="870" cy="650" rx="28" ry="17" fill="#0e433e"/><ellipse cx="950" cy="664" rx="32" ry="19" fill="#0a3a36"/><path d="M260 636 a 40 27 0 0 1 80 0 Z" fill="#176058"/><path d="M688 632 a 32 22 0 0 1 64 0 Z" fill="#13524d"/><g transform="translate(120,636) scale(1.15)" stroke="#15463f" fill="none" stroke-width="6" stroke-linecap="round"><path d="M0 0 C -8 -34 -2 -64 -16 -94"/><path d="M0 0 C 0 -40 4 -74 -2 -108"/><path d="M0 0 C 8 -34 4 -66 18 -92"/><path d="M0 0 C -4 -30 -10 -54 -8 -78"/><path d="M0 0 C 6 -28 12 -52 12 -74"/></g><g transform="translate(380,644) scale(1.35)" stroke="#184e46" fill="none" stroke-width="6" stroke-linecap="round"><path d="M0 0 C -8 -34 -2 -64 -16 -94"/><path d="M0 0 C 0 -40 4 -74 -2 -108"/><path d="M0 0 C 8 -34 4 -66 18 -92"/><path d="M0 0 C -4 -30 -10 -54 -8 -78"/><path d="M0 0 C 6 -28 12 -52 12 -74"/></g><g transform="translate(560,638) scale(1.0)" stroke="#15463f" fill="none" stroke-width="6" stroke-linecap="round"><path d="M0 0 C -8 -34 -2 -64 -16 -94"/><path d="M0 0 C 0 -40 4 -74 -2 -108"/><path d="M0 0 C 8 -34 4 -66 18 -92"/><path d="M0 0 C -4 -30 -10 -54 -8 -78"/><path d="M0 0 C 6 -28 12 -52 12 -74"/></g><g transform="translate(860,644) scale(1.2)" stroke="#184e46" fill="none" stroke-width="6" stroke-linecap="round"><path d="M0 0 C -8 -34 -2 -64 -16 -94"/><path d="M0 0 C 0 -40 4 -74 -2 -108"/><path d="M0 0 C 8 -34 4 -66 18 -92"/><path d="M0 0 C -4 -30 -10 -54 -8 -78"/><path d="M0 0 C 6 -28 12 -52 12 -74"/></g></svg>