<svg viewBox="0 0 1000 700" xmlns="http://www.w3.org/2000/svg" preserveAspectRatio="xMidYMid slice"><defs>
<linearGradient id="sky" x1="0" y1="0" x2="0" y2="1">
  <stop offset="0%" stop-color="#e4f1ee"/><stop offset="42%" stop-color="#f7ddd2"/>
  <stop offset="58%" stop-color="#f6d0c2"/><stop offset="74%" stop-color="#d3e9e0"/>
  <stop offset="100%" stop-color="#c2e1d7"/>
</linearGradient>
<linearGradient id="h1" x1="0" y1="0" x2="0" y2="1"><stop offset="0%" stop-color="#bfe0d6"/><stop offset="100%" stop-color="#a9d6c9"/></linearGradient>
<linearGradient id="h2" x1="0" y1="0" x2="0" y2="1"><stop offset="0%" stop-color="#88c8b9"/><stop offset="100%" stop-color="#6cb8a7"/></linearGradient>
<linearGradient id="h3" x1="0" y1="0" x2="0" y2="1"><stop offset="0%" stop-color="#4f9e8e"/><stop offset="100%" stop-color="#3a8576"/></linearGradient>
<linearGradient id="water" x1="0" y1="0" x2="0" y2="1">
  <stop offset="0%" stop-color="#bfeae3"/><stop offset="35%" stop-color="#73c6bd"/>
  <stop offset="70%" stop-color="#2f8f86"/><stop offset="100%" stop-color="#13524d"/>
</linearGradient>
</defs><rect width="1000" height="700" fill="url(#sky)"/><circle cx="800" cy="225" r="70" fill="#f0cbb4" opacity="0.4"/><path d="M0 430 C 180 380, 360 410, 560 388 C 760 366, 880 400, 1000 386 L1000 700 L0 700 Z" fill="url(#h1)"/><g><path d="M60 430 l9 0 l-9 -26 l-9 26 Z M60 416 l6 0 l-6 -16 l-6 16 Z" fill="#8ccabb"/><path d="M180 430 l10 0 l-10 -32 l-10 32 Z M180 412 l7 0 l-7 -20 l-7 20 Z" fill="#8ccabb"/><path d="M300 430 l8 0 l-8 -24 l-8 24 Z M300 417 l6 0 l-6 -15 l-6 15 Z" fill="#8ccabb"/><path d="M420 430 l10 0 l-10 -30 l-10 30 Z M420 414 l7 0 l-7 -19 l-7 19 Z" fill="#8ccabb"/><path d="M560 430 l9 0 l-9 -26 l-9 26 Z M560 416 l6 0 l-6 -16 l-6 16 Z" fill="#8ccabb"/><path d="M700 430 l10 0 l-10 -32 l-10 32 Z M700 412 l7 0 l-7 -20 l-7 20 Z" fill="#8ccabb"/><path d="M840 430 l9 0 l-9 -28 l-9 28 Z M840 415 l6 0 l-6 -17 l-6 17 Z" fill="#8ccabb"/><path d="M940 430 l8 0 l-8 -24 l-8 24 Z M940 417 l6 0 l-6 -15 l-6 15 Z" fill="#8ccabb"/></g><path d="M0 505 C 200 458, 380 492, 600 476 C 800 462, 900 492, 1000 478 L1000 700 L0 700 Z" fill="url(#h2)"/><g><path d="M50 508 l13 0 l-13 -42 l-13 42 Z M50 485 l9 0 l-9 -26 l-9 26 Z" fill="#2c7165"/><path d="M120 508 l16 0 l-16 -54 l-16 54 Z M120 478 l12 0 l-12 -33 l-12 33 Z" fill="#2c7165"/><path d="M200 508 l14 0 l-14 -46 l-14 46 Z M200 483 l10 0 l-10 -29 l-10 29 Z" fill="#2c7165"/><path d="M280 508 l15 0 l-15 -52 l-15 52 Z M280 479 l11 0 l-11 -32 l-11 32 Z" fill="#2c7165"/><path d="M360 508 l13 0 l-13 -44 l-13 44 Z M360 484 l9 0 l-9 -27 l-9 27 Z" fill="#2c7165"/><path d="M440 508 l16 0 l-16 -54 l-16 54 Z M440 478 l12 0 l-12 -33 l-12 33 Z" fill="#2c7165"/><path d="M520 508 l14 0 l-14 -46 l-14 46 Z M520 483 l10 0 l-10 -29 l-10 29 Z" fill="#2c7165"/><path d="M600 508 l16 0 l-16 -52 l-16 52 Z M600 479 l12 0 l-12 -32 l-12 32 Z" fill="#2c7165"/><path d="M680 508 l13 0 l-13 -44 l-13 44 Z M680 484 l9 0 l-9 -27 l-9 27 Z" fill="#2c7165"/><path d="M770 508 l16 0 l-16 -54 l-16 54 Z M770 478 l12 0 l-12 -33 l-12 33 Z" fill="#2c7165"/><path d="M850 508 l15 0 l-15 -48 l-15 48 Z M850 482 l11 0 l-11 -30 l-11 30 Z" fill="#2c7165"/><path d="M930 508 l13 0 l-13 -42 l-13 42 Z M930 485 l9 0 l-9 -26 l-9 26 Z" fill="#2c7165"/></g><path d="M0 595 C 220 552, 470 580, 720 564 C 860 555, 940 578, 1000 570 L1000 700 L0 700 Z" fill="url(#h3)"/><g transform="translate(230,600) scale(1.05)" fill="#143b35"><path d="M-26 0 L-9 -98 L-3 -98 L-18 0 Z"/><path d="M26 0 L9 -98 L3 -98 L18 0 Z"/><g stroke="#143b35" stroke-width="3"><path d="M-22 -28 L20 -46"/><path d="M22 -28 L-20 -46"/><path d="M-16 -62 L14 -78"/><path d="M16 -62 L-14 -78"/></g><rect x="-27" y="-100" width="54" height="6"/><rect x="-22" y="-128" width="44" height="30"/><path d="M-28 -128 L0 -150 L28 -128 Z"/></g><g transform="translate(706,522) scale(0.6)"><g fill="#aeb7ba" opacity="0.85"><circle cx="0" cy="-18" r="18"/><circle cx="12" cy="-46" r="24"/><circle cx="-10" cy="-82" r="30"/><circle cx="18" cy="-122" r="36"/><circle cx="-8" cy="-166" r="42"/><circle cx="10" cy="-212" r="48"/><circle cx="0" cy="-258" r="54"/></g><g fill="#cdd4d6" opacity="0.7"><circle cx="-4" cy="-22" r="11"/><circle cx="8" cy="-50" r="14"/><circle cx="-14" cy="-86" r="18"/><circle cx="14" cy="-126" r="22"/><circle cx="-12" cy="-170" r="25"/><circle cx="6" cy="-216" r="29"/><circle cx="-4" cy="-262" r="32"/></g></g><g stroke="#e29578" stroke-width="4" fill="none" stroke-linecap="round" opacity="0.95"><path d="M604 288 L604 255 L637 255"/><path d="M763 255 L796 255 L796 288"/><path d="M604 522 L604 555 L637 555"/><path d="M763 555 L796 555 L796 522"/></g><g><path d="M45 700 l20 0 l-20 -86 l-20 86 Z M45 653 l14 0 l-14 -53 l-14 53 Z" fill="#15463f"/><path d="M120 700 l16 0 l-16 -64 l-16 64 Z M120 665 l12 0 l-12 -40 l-12 40 Z" fill="#15463f"/><path d="M905 700 l19 0 l-19 -82 l-19 82 Z M905 655 l14 0 l-14 -51 l-14 51 Z" fill="#15463f"/><path d="M965 700 l15 0 l-15 -62 l-15 62 Z M965 666 l11 0 l-11 -38 l-11 38 Z" fill="#15463f"/></g></svg>