<svg viewBox="0 0 1062 380" xmlns="http://www.w3.org/2000/svg" font-family="Mulish, Helvetica, Arial, sans-serif">
<defs>
  <linearGradient id="sky" x1="0" y1="0" x2="0" y2="1"><stop offset="0%" stop-color="#bfe0e6"/><stop offset="55%" stop-color="#dceee9"/><stop offset="55%" stop-color="#cfe0d6"/><stop offset="100%" stop-color="#e6dcbf"/></linearGradient>
  <linearGradient id="panel" x1="0" y1="0" x2="0" y2="1"><stop offset="0%" stop-color="#0e3a4a"/><stop offset="100%" stop-color="#176074"/></linearGradient>
  <marker id="arrow" viewBox="0 0 10 10" refX="8" refY="5" markerWidth="7" markerHeight="7" orient="auto-start-reverse"><path d="M0 1 L9 5 L0 9 Z" fill="#e29578"/></marker>
  <filter id="cardshadow" x="-20%" y="-20%" width="140%" height="150%"><feDropShadow dx="0" dy="5" stdDeviation="9" flood-color="#1c2b28" flood-opacity="0.08"/></filter>
  <style>
    .title { font-family: Newsreader, Georgia, 'Times New Roman', serif; font-size: 26px; font-weight: 600; fill: #161616; }
    .desc  { font-size: 15px; fill: #60626a; }
    .step  { font-size: 13px; font-weight: 700; letter-spacing: 0.12em; fill: #e29578; }
    .chip  { font-size: 11px; font-weight: 700; fill: #fff; }
    .hover { transform-box: fill-box; transform-origin: 50% 50%; animation: hover 3.4s ease-in-out infinite; }
    .beam  { animation: beam 2.4s ease-in-out infinite; }
    .drop  { transform-box: fill-box; transform-origin: 50% 50%; animation: drop 3s ease-in-out infinite; }
    .box   { animation: boxp 2.2s ease-in-out infinite; }
    .glow  { animation: glow 2.4s ease-in-out infinite; }
    @keyframes hover { 0%,100%{transform:translateY(0)} 50%{transform:translateY(-5px)} }
    @keyframes beam  { 0%,100%{opacity:0.12} 50%{opacity:0.32} }
    @keyframes drop  { 0%{opacity:0;transform:translateY(-14px)} 18%{opacity:1} 76%{opacity:1;transform:translateY(0)} 100%{opacity:0;transform:translateY(0)} }
    @keyframes boxp  { 0%,100%{opacity:0.55} 50%{opacity:1} }
    @keyframes glow  { 0%,100%{opacity:0.6} 50%{opacity:1} }
    @media (prefers-reduced-motion: reduce) { * { animation: none !important; } }
  </style>
  <!-- gull, top-down (wings spread); stroke set by the <use> -->
  <g id="gull"><path d="M-9 1 Q-4 -4 0 -1 Q4 -4 9 1" fill="none" stroke-width="2.6" stroke-linecap="round"/></g>
  <!-- quadcopter drone -->
  <g id="drone" fill="#28323d">
    <g stroke="#28323d" stroke-width="2.5" stroke-linecap="round"><path d="M-9 -2 L-17 -8 M9 -2 L17 -8 M-9 2 L-17 8 M9 2 L17 8"/></g>
    <ellipse cx="-17" cy="-8" rx="7.5" ry="2.2" fill="#6b7c88"/><ellipse cx="17" cy="-8" rx="7.5" ry="2.2" fill="#6b7c88"/>
    <ellipse cx="-17" cy="8" rx="7.5" ry="2.2" fill="#6b7c88"/><ellipse cx="17" cy="8" rx="7.5" ry="2.2" fill="#6b7c88"/>
    <rect x="-11" y="-4" width="22" height="8" rx="3"/>
    <rect x="-3.5" y="3" width="7" height="5" rx="1.5" fill="#0c5a51"/>
  </g>
</defs>

<g stroke="#e29578" stroke-width="3.5" fill="none" stroke-linecap="round">
  <line x1="250" y1="134" x2="291" y2="134" marker-end="url(#arrow)"/>
  <line x1="509" y1="134" x2="550" y2="134" marker-end="url(#arrow)"/>
  <line x1="768" y1="134" x2="809" y2="134" marker-end="url(#arrow)"/>
</g>

<!-- CARD 1 — SURVEY -->
<rect x="36" y="28" width="212" height="212" rx="20" fill="#fbf6f6" stroke="#ede0d4" stroke-width="2" filter="url(#cardshadow)"/>
<g transform="translate(142,128)">
  <rect x="-78" y="-58" width="156" height="116" rx="12" fill="url(#sky)"/>
  <clipPath id="c1"><rect x="-78" y="-58" width="156" height="116" rx="12"/></clipPath>
  <g clip-path="url(#c1)">
    <path d="M-78 8 Q-30 0 20 6 Q54 10 78 4 L78 18 Q40 24 0 20 Q-40 16 -78 22 Z" fill="#8fc0c9" opacity="0.8"/>
    <path d="M-78 22 Q-20 14 40 20 Q60 22 78 18 L78 58 L-78 58 Z" fill="#e0d2a8"/>
    <g fill="#fff" opacity="0.85"><circle cx="-46" cy="34" r="1.6"/><circle cx="-30" cy="40" r="1.6"/><circle cx="-14" cy="36" r="1.6"/><circle cx="2" cy="42" r="1.6"/><circle cx="20" cy="36" r="1.6"/><circle cx="36" cy="42" r="1.6"/><circle cx="-38" cy="46" r="1.4"/><circle cx="10" cy="48" r="1.4"/><circle cx="-6" cy="30" r="1.4"/><circle cx="28" cy="48" r="1.4"/></g>
    <g transform="translate(-6,-30)">
      <path class="beam" d="M-4 6 L-20 40 L20 40 L4 6 Z" fill="#0c5a51"/>
      <g class="hover"><use href="#drone"/></g>
    </g>
  </g>
  <g transform="translate(46,-46)"><rect x="-22" y="-10" width="44" height="18" rx="9" fill="#006d77"/><text class="chip" x="0" y="3.5" text-anchor="middle" font-size="9.5">drone</text></g>
</g>
<text class="step" x="142" y="280" text-anchor="middle">01</text>
<text class="title" x="142" y="312" text-anchor="middle">Survey</text>
<text class="desc"  x="142" y="338" text-anchor="middle">Fly over the colony</text>

<!-- CARD 2 — MAP -->
<rect x="295" y="28" width="212" height="212" rx="20" fill="#fbf6f6" stroke="#ede0d4" stroke-width="2" filter="url(#cardshadow)"/>
<g transform="translate(401,128)">
  <rect x="-78" y="-58" width="156" height="116" rx="12" fill="#e0d2a8"/>
  <clipPath id="c2"><rect x="-78" y="-58" width="156" height="116" rx="12"/></clipPath>
  <g clip-path="url(#c2)">
    <path d="M-78 -40 Q-20 -50 30 -38 Q70 -30 78 -44 L78 58 L-78 58 Z" fill="#d8c79a"/>
    <path d="M-78 -58 L-78 -28 Q-30 -40 20 -30 Q-30 -18 -78 -22 Z" fill="#8fc0c9" opacity="0.85"/>
    <g fill="#7a6a44" opacity="0.85"><circle cx="-40" cy="18" r="1.6"/><circle cx="-22" cy="26" r="1.6"/><circle cx="-4" cy="14" r="1.6"/><circle cx="14" cy="24" r="1.6"/><circle cx="34" cy="16" r="1.6"/><circle cx="48" cy="30" r="1.6"/><circle cx="-30" cy="40" r="1.4"/><circle cx="6" cy="38" r="1.4"/><circle cx="28" cy="42" r="1.4"/></g>
    <!-- stitched orthomosaic tiles -->
    <g fill="#ffffff" fill-opacity="0.05" stroke="#ffffff" stroke-width="1.4" stroke-opacity="0.8">
      <rect x="-78" y="-58" width="52" height="58"/><rect x="-26" y="-58" width="52" height="58"/>
      <rect x="-78" y="0" width="52" height="58"/><rect x="-26" y="0" width="52" height="58"/><rect x="26" y="0" width="52" height="58"/>
    </g>
    <g class="drop"><rect x="26" y="-58" width="52" height="58" fill="#ffffff" fill-opacity="0.08" stroke="#ffffff" stroke-width="1.4" stroke-opacity="0.95"/>
      <g stroke="#0c5a51" stroke-width="2" fill="none" stroke-linecap="round"><path d="M32 -52 H40 M32 -52 V-44"/><path d="M72 -6 H64 M72 -6 V-14"/></g></g>
  </g>
  <g transform="translate(36,-46)"><rect x="-34" y="-10" width="68" height="18" rx="9" fill="#006d77"/><text class="chip" x="0" y="3.5" text-anchor="middle" font-size="9">orthomosaic</text></g>
</g>
<text class="step" x="401" y="280" text-anchor="middle">02</text>
<text class="title" x="401" y="312" text-anchor="middle">Map</text>
<text class="desc"  x="401" y="338" text-anchor="middle">Stitched into one map</text>

<!-- CARD 3 — DETECT & COUNT -->
<rect x="554" y="28" width="212" height="212" rx="20" fill="#fbf6f6" stroke="#ede0d4" stroke-width="2" filter="url(#cardshadow)"/>
<g transform="translate(660,128)">
  <rect x="-78" y="-58" width="156" height="116" rx="12" fill="#ddcb9c"/>
  <clipPath id="c3"><rect x="-78" y="-58" width="156" height="116" rx="12"/></clipPath>
  <g clip-path="url(#c3)">
    <path d="M-78 -34 Q0 -44 78 -32 L78 58 L-78 58 Z" fill="#d3c08f"/>
    <!-- adults (live) -->
    <g transform="translate(-44,-22)"><use href="#gull" stroke="#0a7d86"/><rect class="box" x="-12" y="-10" width="24" height="20" rx="2" fill="none" stroke="#0a7d86" stroke-width="2"/></g>
    <g transform="translate(16,-30)"><use href="#gull" stroke="#0a7d86"/><rect x="-12" y="-10" width="24" height="20" rx="2" fill="none" stroke="#0a7d86" stroke-width="2"/></g>
    <g transform="translate(50,-6)"><use href="#gull" stroke="#0a7d86"/><rect x="-12" y="-10" width="24" height="20" rx="2" fill="none" stroke="#0a7d86" stroke-width="2"/></g>
    <!-- chicks (live, smaller) -->
    <g transform="translate(-18,-2)"><use href="#gull" stroke="#0a7d86" transform="scale(0.6)"/><rect x="-9" y="-8" width="18" height="15" rx="2" fill="none" stroke="#3fd07a" stroke-width="1.8"/></g>
    <g transform="translate(30,16)"><use href="#gull" stroke="#0a7d86" transform="scale(0.6)"/><rect x="-9" y="-8" width="18" height="15" rx="2" fill="none" stroke="#3fd07a" stroke-width="1.8"/></g>
    <!-- dead (coral box) -->
    <g transform="translate(-46,18)"><use href="#gull" stroke="#9aa0a4" transform="rotate(28)"/><rect class="box" x="-12" y="-10" width="24" height="20" rx="2" fill="none" stroke="#e29578" stroke-width="2.4"/></g>
  </g>
  <g transform="translate(0,46)"><rect x="-58" y="-9" width="116" height="18" rx="9" fill="#1c3320" opacity="0.88"/>
    <rect x="-48" y="-3.5" width="9" height="7" rx="1.5" fill="none" stroke="#3fd07a" stroke-width="1.6"/><text class="chip" x="-35" y="3" font-size="9.5">live</text>
    <rect x="6" y="-3.5" width="9" height="7" rx="1.5" fill="none" stroke="#e29578" stroke-width="1.6"/><text class="chip" x="20" y="3" font-size="9.5">dead</text></g>
</g>
<text class="step" x="660" y="280" text-anchor="middle">03</text>
<text class="title" x="660" y="312" text-anchor="middle">Detect &amp; count</text>
<text class="desc"  x="660" y="338" text-anchor="middle">Live or dead, adult or chick</text>

<!-- CARD 4 — ASSESS -->
<rect x="813" y="28" width="212" height="212" rx="20" fill="#fbf6f6" stroke="#ede0d4" stroke-width="2" filter="url(#cardshadow)"/>
<g transform="translate(919,128)">
  <rect x="-80" y="-64" width="160" height="128" rx="12" fill="url(#panel)"/>
  <text class="chip" x="-66" y="-46" font-size="10" fill="#cfe9e0" letter-spacing="0.08em">COLONY COUNT</text>
  <g transform="translate(0,-24)"><rect x="-66" y="-12" width="132" height="22" rx="6" fill="#0a4a55"/><circle cx="-52" cy="-1" r="4" fill="#0a7d86"/><text x="-40" y="3" text-anchor="start" font-size="11" font-weight="700" fill="#cfe9e0">Adults</text><text class="chip" x="56" y="3" text-anchor="end" font-size="11">1,240</text></g>
  <g transform="translate(0,4)"><rect x="-66" y="-12" width="132" height="22" rx="6" fill="#0a4a55"/><circle cx="-52" cy="-1" r="4" fill="#3fd07a"/><text x="-40" y="3" text-anchor="start" font-size="11" font-weight="700" fill="#cfe9e0">Chicks</text><text class="chip" x="56" y="3" text-anchor="end" font-size="11">380</text></g>
  <g transform="translate(0,32)"><rect x="-66" y="-12" width="132" height="22" rx="6" fill="#0a4a55"/><circle cx="-52" cy="-1" r="4" fill="#e29578"/><text x="-40" y="3" text-anchor="start" font-size="11" font-weight="700" fill="#cfe9e0">Dead</text><text class="chip" x="56" y="3" text-anchor="end" font-size="11">56</text></g>
  <g transform="translate(0,56)" class="glow"><rect x="-56" y="-11" width="112" height="22" rx="11" fill="#0a7d86" stroke="#3fd07a" stroke-width="2"/><text class="chip" x="0" y="3.5" text-anchor="middle" font-size="10.5">97% survival</text></g>
</g>
<text class="step" x="919" y="280" text-anchor="middle">04</text>
<text class="title" x="919" y="312" text-anchor="middle">Assess</text>
<text class="desc"  x="919" y="338" text-anchor="middle">Survival &amp; flu impact</text>
</svg>
