<svg viewBox="0 0 1000 700" xmlns="http://www.w3.org/2000/svg" preserveAspectRatio="xMidYMid slice"><defs>
<linearGradient id="sky" x1="0" y1="0" x2="0" y2="1">
  <stop offset="0%" stop-color="#e4f1ee"/><stop offset="42%" stop-color="#f7ddd2"/>
  <stop offset="58%" stop-color="#f6d0c2"/><stop offset="74%" stop-color="#d3e9e0"/>
  <stop offset="100%" stop-color="#c2e1d7"/>
</linearGradient>
<linearGradient id="h1" x1="0" y1="0" x2="0" y2="1"><stop offset="0%" stop-color="#bfe0d6"/><stop offset="100%" stop-color="#a9d6c9"/></linearGradient>
<linearGradient id="h2" x1="0" y1="0" x2="0" y2="1"><stop offset="0%" stop-color="#88c8b9"/><stop offset="100%" stop-color="#6cb8a7"/></linearGradient>
<linearGradient id="h3" x1="0" y1="0" x2="0" y2="1"><stop offset="0%" stop-color="#4f9e8e"/><stop offset="100%" stop-color="#3a8576"/></linearGradient>
<linearGradient id="water" x1="0" y1="0" x2="0" y2="1">
  <stop offset="0%" stop-color="#bfeae3"/><stop offset="35%" stop-color="#73c6bd"/>
  <stop offset="70%" stop-color="#2f8f86"/><stop offset="100%" stop-color="#13524d"/>
</linearGradient>
</defs><rect width="1000" height="700" fill="#0a2421"/><path d="M 500 56 L 83 504 A 612 612 0 0 1 917 504 Z" fill="#12423b"/><path d="M 500 56 L 564 665 A 612 612 0 0 1 729 623 Z" fill="#2f8f86" opacity="0.28"/><path d="M 381 184 A 175 175 0 0 1 619 184" stroke="#3f8f83" stroke-width="2" fill="none" opacity="0.5"/><path d="M 299 272 A 295 295 0 0 1 701 272" stroke="#3f8f83" stroke-width="2" fill="none" opacity="0.5"/><path d="M 217 360 A 415 415 0 0 1 783 360" stroke="#3f8f83" stroke-width="2" fill="none" opacity="0.5"/><path d="M 135 447 A 535 535 0 0 1 865 447" stroke="#3f8f83" stroke-width="2" fill="none" opacity="0.5"/><line x1="500" y1="56" x2="83" y2="504" stroke="#3f8f83" stroke-width="2" opacity="0.4"/><line x1="500" y1="56" x2="276" y2="625" stroke="#3f8f83" stroke-width="2" opacity="0.4"/><line x1="500" y1="56" x2="500" y2="668" stroke="#3f8f83" stroke-width="2" opacity="0.4"/><line x1="500" y1="56" x2="724" y2="625" stroke="#3f8f83" stroke-width="2" opacity="0.4"/><line x1="500" y1="56" x2="917" y2="504" stroke="#3f8f83" stroke-width="2" opacity="0.4"/><g transform="translate(408,262) scale(0.8)" fill="#d6f0ea"><ellipse cx="0" cy="0" rx="15" ry="5.5"/><path d="M13 0 l11 -6 l0 12 Z"/></g><g transform="translate(547,352) scale(1.0)" fill="#d6f0ea"><ellipse cx="0" cy="0" rx="15" ry="5.5"/><path d="M13 0 l11 -6 l0 12 Z"/></g><rect x="521" y="337" width="52" height="30" rx="2" fill="none" stroke="#e29578" stroke-width="2.5"/><g transform="translate(425,408) scale(0.9)" fill="#d6f0ea"><ellipse cx="0" cy="0" rx="15" ry="5.5"/><path d="M13 0 l11 -6 l0 12 Z"/></g><rect x="399" y="393" width="52" height="30" rx="2" fill="none" stroke="#e29578" stroke-width="2.5"/><g transform="translate(688,442) scale(0.95)" fill="#d6f0ea"><ellipse cx="0" cy="0" rx="15" ry="5.5"/><path d="M13 0 l11 -6 l0 12 Z"/></g><g transform="translate(262,467) scale(0.85)" fill="#d6f0ea"><ellipse cx="0" cy="0" rx="15" ry="5.5"/><path d="M13 0 l11 -6 l0 12 Z"/></g><rect x="236" y="452" width="52" height="30" rx="2" fill="none" stroke="#e29578" stroke-width="2.5"/><g transform="translate(545,574) scale(1.05)" fill="#d6f0ea"><ellipse cx="0" cy="0" rx="15" ry="5.5"/><path d="M13 0 l11 -6 l0 12 Z"/></g><rect x="519" y="559" width="52" height="30" rx="2" fill="none" stroke="#e29578" stroke-width="2.5"/><g transform="translate(318,585) scale(0.9)" fill="#d6f0ea"><ellipse cx="0" cy="0" rx="15" ry="5.5"/><path d="M13 0 l11 -6 l0 12 Z"/></g><circle cx="500" cy="56" r="7" fill="#d6f0ea"/></svg>