<svg viewBox="0 0 1000 700" xmlns="http://www.w3.org/2000/svg" preserveAspectRatio="xMidYMid slice"><defs>
<linearGradient id="sky" x1="0" y1="0" x2="0" y2="1">
  <stop offset="0%" stop-color="#e4f1ee"/><stop offset="42%" stop-color="#f7ddd2"/>
  <stop offset="58%" stop-color="#f6d0c2"/><stop offset="74%" stop-color="#d3e9e0"/>
  <stop offset="100%" stop-color="#c2e1d7"/>
</linearGradient>
<linearGradient id="h1" x1="0" y1="0" x2="0" y2="1"><stop offset="0%" stop-color="#bfe0d6"/><stop offset="100%" stop-color="#a9d6c9"/></linearGradient>
<linearGradient id="h2" x1="0" y1="0" x2="0" y2="1"><stop offset="0%" stop-color="#88c8b9"/><stop offset="100%" stop-color="#6cb8a7"/></linearGradient>
<linearGradient id="h3" x1="0" y1="0" x2="0" y2="1"><stop offset="0%" stop-color="#4f9e8e"/><stop offset="100%" stop-color="#3a8576"/></linearGradient>
<linearGradient id="water" x1="0" y1="0" x2="0" y2="1">
  <stop offset="0%" stop-color="#bfeae3"/><stop offset="35%" stop-color="#73c6bd"/>
  <stop offset="70%" stop-color="#2f8f86"/><stop offset="100%" stop-color="#13524d"/>
</linearGradient>
</defs><rect width="1000" height="700" fill="url(#sky_snow)"/><defs><linearGradient id="sky_snow" x1="0" y1="0" x2="0" y2="1"><stop offset="0%" stop-color="#1d2c49"/><stop offset="45%" stop-color="#33476b"/><stop offset="72%" stop-color="#566d92"/><stop offset="100%" stop-color="#9fb0c6"/></linearGradient></defs><g><circle cx="110" cy="70" r="2.0" fill="#eef4fb" opacity="0.9"/><circle cx="180" cy="120" r="1.5" fill="#eef4fb" opacity="0.7"/><circle cx="250" cy="60" r="2.4" fill="#eef4fb" opacity="0.95"/><circle cx="330" cy="110" r="1.6" fill="#eef4fb" opacity="0.8"/><circle cx="470" cy="55" r="1.8" fill="#eef4fb" opacity="0.85"/><circle cx="560" cy="120" r="2.2" fill="#eef4fb" opacity="0.9"/><circle cx="640" cy="70" r="1.4" fill="#eef4fb" opacity="0.7"/><circle cx="880" cy="60" r="2.0" fill="#eef4fb" opacity="0.9"/><circle cx="930" cy="130" r="1.6" fill="#eef4fb" opacity="0.8"/><circle cx="700" cy="140" r="1.7" fill="#eef4fb" opacity="0.75"/><circle cx="400" cy="150" r="1.4" fill="#eef4fb" opacity="0.65"/><circle cx="60" cy="150" r="1.6" fill="#eef4fb" opacity="0.7"/></g><circle cx="790" cy="175" r="78" fill="#cfdce8" opacity="0.16"/><circle cx="790" cy="175" r="50" fill="#edf2f6"/><circle cx="774" cy="164" r="8" fill="#d4dee8" opacity="0.7"/><circle cx="804" cy="190" r="6" fill="#d4dee8" opacity="0.7"/><circle cx="811" cy="157" r="4" fill="#d4dee8" opacity="0.6"/><path d="M0 450 L150 280 L270 380 L400 240 L540 360 L680 250 L820 360 L940 285 L1000 340 L1000 700 L0 700 Z" fill="#7e90ac"/><path d="M116 322 L138 303 L150 316 L164 301 L184 322 L150 280 Z" fill="#f4f9fb"/><path d="M360 290 L386 268 L400 282 L416 265 L440 290 L400 240 Z" fill="#f4f9fb"/><path d="M644 295 L667 275 L680 288 L694 272 L716 295 L680 250 Z" fill="#f4f9fb"/><path d="M910 322 L930 306 L940 317 L952 304 L970 322 L940 285 Z" fill="#f4f9fb"/><path d="M0 540 L170 410 L320 500 L470 390 L630 490 L790 405 L930 485 L1000 455 L1000 700 L0 700 Z" fill="#54688c"/><path d="M140 448 L160 431 L170 442 L182 429 L200 448 L170 410 Z" fill="#f4f9fb"/><path d="M434 435 L457 415 L470 428 L484 412 L506 435 L470 390 Z" fill="#f4f9fb"/><path d="M760 442 L780 426 L790 437 L802 424 L820 442 L790 405 Z" fill="#f4f9fb"/><path d="M0 600 C 250 572, 560 602, 1000 586 L1000 700 L0 700 Z" fill="#cdd9e8"/><g fill="#4a5d76"><path d="M120 600 q18 -26 40 -8 q14 -10 22 8 Z"/><path d="M860 596 q22 -30 48 -10 q16 -12 26 10 Z"/></g><g transform="translate(320,488) scale(0.18,0.18)"><g transform="translate(0.000000,688.000000) scale(0.100000,-0.100000)"
fill="#143b35" stroke="none">
<path d="M13385 6867 c-30 -14 -135 -118 -135 -135 0 -4 -9 -18 -20 -30 -28
-30 -76 -29 -290 9 -213 37 -387 46 -610 30 -202 -14 -237 -23 -409 -105 -150
-71 -165 -76 -296 -105 -240 -53 -355 -49 -990 32 l-410 52 -550 0 c-351 0
-606 -5 -705 -13 -233 -18 -485 -30 -1005 -47 -671 -21 -775 -29 -996 -71
-165 -32 -268 -61 -724 -205 -528 -167 -574 -183 -710 -249 -194 -94 -262
-144 -445 -329 -205 -206 -272 -289 -348 -433 -180 -338 -618 -1317 -735
-1643 -20 -55 -53 -154 -73 -220 -49 -158 -72 -209 -155 -341 -38 -61 -69
-120 -69 -132 0 -11 -4 -24 -10 -27 -17 -10 -11 -25 10 -25 16 0 8 -15 -44
-88 -35 -49 -123 -177 -196 -286 -150 -225 -237 -333 -373 -463 -113 -108
-208 -168 -467 -298 -333 -167 -407 -186 -626 -165 -194 18 -288 41 -403 98
-189 94 -278 172 -306 270 -9 29 -22 55 -30 59 -19 7 -19 54 -1 98 29 69 93
58 242 -41 116 -76 279 -160 330 -170 28 -5 40 -2 57 14 13 12 42 32 66 45 25
12 53 34 63 47 29 40 40 133 36 305 l-4 160 -74 145 c-72 141 -77 148 -188
257 -127 125 -206 182 -337 244 -100 46 -164 59 -311 59 -147 0 -457 -64 -545
-112 -23 -13 -52 -29 -66 -36 -30 -17 -181 -198 -246 -295 -68 -102 -191 -348
-229 -459 -31 -91 -32 -97 -32 -273 -1 -99 3 -211 7 -249 l8 -70 -22 20 c-20
17 -22 17 -16 1 4 -10 14 -45 22 -78 9 -34 34 -100 56 -147 22 -48 46 -113 54
-146 8 -32 25 -74 38 -95 42 -61 214 -248 280 -302 103 -84 561 -296 734 -339
43 -11 168 -29 278 -40 110 -11 241 -27 290 -35 146 -24 360 -15 487 21 29 8
81 19 115 24 34 5 78 19 98 31 31 19 60 23 184 30 214 12 481 59 640 113 59
20 255 135 350 204 98 73 151 118 151 130 0 6 7 12 15 12 8 0 36 27 61 59 25
33 52 62 60 65 31 12 66 -57 203 -405 94 -236 137 -309 230 -386 124 -103 136
-108 296 -111 146 -4 335 15 450 44 74 19 256 108 295 144 34 31 60 110 67
201 5 60 3 72 -23 118 -56 104 -116 137 -292 162 l-83 11 -75 -38 c-71 -36
-77 -37 -102 -23 -33 18 -56 89 -72 223 -24 203 17 313 156 412 34 25 133 79
219 120 198 95 252 127 400 234 384 276 652 450 694 450 65 0 115 -91 181
-330 27 -96 33 -139 37 -256 7 -172 -4 -212 -83 -316 -62 -82 -65 -101 -39
-247 35 -202 70 -283 187 -447 249 -344 333 -422 606 -558 197 -99 276 -119
657 -172 304 -42 677 -43 819 -3 21 6 58 29 83 52 131 121 109 252 -79 452
-97 104 -117 109 -428 110 l-255 0 -65 35 c-44 23 -100 69 -171 140 -146 145
-169 178 -169 249 0 31 9 86 19 123 11 37 29 136 40 220 50 357 66 423 222
894 38 115 69 218 69 228 0 49 133 116 234 116 22 1 66 9 96 20 30 11 120 31
200 45 79 14 169 33 200 41 73 21 313 31 343 15 18 -9 31 -9 66 4 57 20 64 19
56 -6 -8 -24 -10 -24 100 4 138 37 506 49 782 27 161 -13 217 -25 255 -51 24
-18 34 -20 53 -11 20 9 26 8 33 -5 8 -14 15 -14 74 1 35 9 75 16 88 16 13 0
57 9 98 21 46 13 85 18 101 14 14 -4 68 -10 120 -14 l94 -7 38 -43 c54 -60 72
-119 108 -337 16 -104 69 -368 116 -585 l87 -394 -21 -110 c-30 -157 -28 -283
9 -501 51 -305 79 -379 181 -483 73 -75 153 -122 364 -212 l170 -72 215 7
c409 13 503 28 585 90 41 31 55 75 55 168 0 83 -7 101 -65 169 -26 29 -53 66
-61 81 l-15 28 78 0 c43 0 123 5 178 11 55 5 204 14 330 18 212 7 235 10 296
34 89 34 142 70 175 120 24 35 29 55 32 121 9 167 -40 251 -186 323 l-76 38
-126 -1 c-69 -1 -167 -9 -218 -18 -104 -18 -112 -16 -161 39 -42 48 -70 105
-81 168 -11 55 2 445 21 632 5 55 14 179 19 276 7 143 14 197 39 293 17 65 31
126 31 136 0 34 70 156 141 245 90 113 166 226 256 380 39 66 87 144 107 174
22 33 50 97 73 170 37 119 69 202 81 211 7 5 19 34 58 140 21 60 35 123 93
429 18 91 24 109 53 138 37 38 67 49 95 35 10 -6 43 -51 73 -102 29 -50 78
-117 107 -149 44 -50 61 -61 105 -71 71 -17 208 -7 281 20 99 37 125 68 178
213 17 47 30 64 73 96 104 77 117 106 136 304 5 60 13 114 17 121 5 8 34 36
67 63 68 59 107 113 136 191 50 132 70 292 70 544 0 156 3 187 31 318 17 80
49 197 70 261 45 132 49 192 19 255 -37 75 -116 92 -209 45 -20 -11 -62 -26
-92 -35 -31 -9 -80 -35 -110 -56 -95 -72 -164 -74 -362 -10 -51 16 -132 36
-182 45 -91 16 -400 34 -575 35 -77 0 -102 4 -130 20 -137 80 -234 105 -295
77z"/>
</g></g></svg>