<svg viewBox="0 0 1000 700" xmlns="http://www.w3.org/2000/svg" preserveAspectRatio="xMidYMid slice"><defs>
<linearGradient id="sky" x1="0" y1="0" x2="0" y2="1">
  <stop offset="0%" stop-color="#e4f1ee"/><stop offset="42%" stop-color="#f7ddd2"/>
  <stop offset="58%" stop-color="#f6d0c2"/><stop offset="74%" stop-color="#d3e9e0"/>
  <stop offset="100%" stop-color="#c2e1d7"/>
</linearGradient>
<linearGradient id="h1" x1="0" y1="0" x2="0" y2="1"><stop offset="0%" stop-color="#bfe0d6"/><stop offset="100%" stop-color="#a9d6c9"/></linearGradient>
<linearGradient id="h2" x1="0" y1="0" x2="0" y2="1"><stop offset="0%" stop-color="#88c8b9"/><stop offset="100%" stop-color="#6cb8a7"/></linearGradient>
<linearGradient id="h3" x1="0" y1="0" x2="0" y2="1"><stop offset="0%" stop-color="#4f9e8e"/><stop offset="100%" stop-color="#3a8576"/></linearGradient>
<linearGradient id="water" x1="0" y1="0" x2="0" y2="1">
  <stop offset="0%" stop-color="#bfeae3"/><stop offset="35%" stop-color="#73c6bd"/>
  <stop offset="70%" stop-color="#2f8f86"/><stop offset="100%" stop-color="#13524d"/>
</linearGradient>
</defs><rect width="1000" height="700" fill="url(#sky_night)"/><defs><linearGradient id="sky_night" x1="0" y1="0" x2="0" y2="1"><stop offset="0%" stop-color="#16323e"/><stop offset="48%" stop-color="#234c54"/><stop offset="78%" stop-color="#356a66"/><stop offset="100%" stop-color="#4e857b"/></linearGradient></defs><g><circle cx="120" cy="80" r="1.8" fill="#eef4fb" opacity="0.75"/><circle cx="220" cy="140" r="1.3" fill="#eef4fb" opacity="0.6"/><circle cx="340" cy="70" r="2.0" fill="#eef4fb" opacity="0.8"/><circle cx="470" cy="130" r="1.4" fill="#eef4fb" opacity="0.6"/><circle cx="620" cy="90" r="1.6" fill="#eef4fb" opacity="0.7"/><circle cx="120" cy="200" r="1.3" fill="#eef4fb" opacity="0.55"/><circle cx="700" cy="180" r="1.4" fill="#eef4fb" opacity="0.6"/><circle cx="930" cy="150" r="1.6" fill="#eef4fb" opacity="0.7"/></g><circle cx="800" cy="200" r="78" fill="#cfdce8" opacity="0.16"/><circle cx="800" cy="200" r="50" fill="#edf2f6"/><circle cx="784" cy="189" r="8" fill="#d4dee8" opacity="0.7"/><circle cx="814" cy="215" r="6" fill="#d4dee8" opacity="0.7"/><circle cx="821" cy="182" r="4" fill="#d4dee8" opacity="0.6"/><path d="M0 430 C 180 380, 360 410, 560 388 C 760 366, 880 400, 1000 386 L1000 700 L0 700 Z" fill="#3f776c"/><path d="M0 505 C 200 458, 380 492, 600 476 C 800 462, 900 492, 1000 478 L1000 700 L0 700 Z" fill="#2f655b"/><g><g transform="translate(95,505) scale(1.05)" fill="#1c4f47"><rect x="-5" y="-46" width="10" height="50" rx="3"/><circle cx="0" cy="-66" r="34"/><circle cx="-26" cy="-52" r="24"/><circle cx="26" cy="-54" r="26"/><circle cx="0" cy="-94" r="24"/></g><g transform="translate(180,510) scale(0.8)" fill="#1c4f47"><rect x="-5" y="-46" width="10" height="50" rx="3"/><circle cx="0" cy="-66" r="34"/><circle cx="-26" cy="-52" r="24"/><circle cx="26" cy="-54" r="26"/><circle cx="0" cy="-94" r="24"/></g><g transform="translate(845,505) scale(1.05)" fill="#1c4f47"><rect x="-5" y="-46" width="10" height="50" rx="3"/><circle cx="0" cy="-66" r="34"/><circle cx="-26" cy="-52" r="24"/><circle cx="26" cy="-54" r="26"/><circle cx="0" cy="-94" r="24"/></g><g transform="translate(915,512) scale(0.85)" fill="#1c4f47"><rect x="-5" y="-46" width="10" height="50" rx="3"/><circle cx="0" cy="-66" r="34"/><circle cx="-26" cy="-52" r="24"/><circle cx="26" cy="-54" r="26"/><circle cx="0" cy="-94" r="24"/></g></g><path d="M0 595 C 220 552, 470 580, 720 564 C 860 555, 940 578, 1000 570 L1000 700 L0 700 Z" fill="#1f5349"/><g><g transform="translate(70,640) scale(1.2)" fill="#0f3a33"><rect x="-5" y="-46" width="10" height="50" rx="3"/><circle cx="0" cy="-66" r="34"/><circle cx="-26" cy="-52" r="24"/><circle cx="26" cy="-54" r="26"/><circle cx="0" cy="-94" r="24"/></g><g transform="translate(930,648) scale(1.1)" fill="#0f3a33"><rect x="-5" y="-46" width="10" height="50" rx="3"/><circle cx="0" cy="-66" r="34"/><circle cx="-26" cy="-52" r="24"/><circle cx="26" cy="-54" r="26"/><circle cx="0" cy="-94" r="24"/></g></g><g transform="translate(540,420) scale(-0.19,0.19)"><g transform="translate(0.000000,960.000000) scale(0.100000,-0.100000)"
fill="#0d302b" stroke="none">
<path d="M6370 9584 c-83 -12 -589 -77 -1120 -143 -224 -28 -413 -78 -613
-163 -148 -62 -200 -78 -287 -88 -97 -11 -130 -21 -166 -49 -36 -29 -115 -33
-332 -21 -444 27 -722 -35 -993 -221 -105 -72 -364 -296 -553 -479 -218 -211
-313 -344 -413 -579 -85 -202 -119 -265 -238 -456 -138 -221 -133 -211 -190
-375 -26 -74 -82 -209 -125 -300 -43 -91 -90 -207 -105 -258 -40 -145 -168
-415 -261 -554 -52 -76 -79 -133 -130 -271 -25 -67 -71 -185 -104 -262 -181
-435 -297 -873 -380 -1440 -40 -275 -56 -368 -86 -497 -13 -59 -28 -169 -34
-245 -5 -76 -18 -181 -29 -234 -24 -117 -38 -253 -46 -454 -9 -223 -23 -342
-50 -421 -57 -166 -140 -969 -107 -1031 15 -27 71 -53 114 -53 50 0 132 45
178 98 63 71 116 189 156 347 44 177 58 223 88 299 14 34 30 104 36 156 15
126 32 176 89 262 56 86 116 143 164 156 43 12 149 79 387 246 451 315 560
420 890 861 189 252 273 379 370 561 187 348 323 706 381 995 11 57 25 118 31
134 20 52 78 137 151 220 39 44 71 81 72 81 0 1 43 -5 95 -13 175 -27 260 -15
570 80 157 48 299 70 413 65 140 -6 189 -44 158 -122 -19 -47 -30 -95 -61
-278 -57 -324 -182 -625 -349 -838 -131 -166 -208 -299 -305 -521 -141 -324
-199 -533 -250 -899 -44 -309 -97 -648 -176 -1120 -86 -512 -106 -705 -93
-864 l8 -89 195 -109 195 -109 345 3 c322 3 348 4 385 23 85 43 98 91 120 450
27 438 46 541 131 733 31 70 112 255 179 412 294 683 491 1010 780 1295 133
131 259 220 430 305 163 80 245 109 335 117 84 7 141 -9 191 -54 52 -47 87
-118 134 -266 96 -308 451 -1292 503 -1392 88 -172 103 -209 146 -360 25 -88
61 -199 80 -245 45 -110 97 -323 141 -580 45 -258 79 -404 108 -455 27 -48 92
-92 196 -133 198 -79 364 -111 619 -119 l183 -6 66 64 c130 127 151 194 94
303 -32 60 -60 176 -116 481 -55 303 -102 605 -125 805 -27 234 -63 480 -101
682 -16 87 -30 182 -32 212 -2 52 0 57 38 96 49 50 83 60 206 60 155 0 265
-26 474 -114 33 -13 95 -34 137 -45 105 -27 506 -87 708 -106 403 -37 1271
-92 1288 -81 22 13 119 -70 334 -290 240 -244 293 -289 366 -317 59 -23 201
-110 297 -182 113 -85 318 -293 470 -479 233 -283 246 -300 272 -346 14 -25
50 -85 78 -135 57 -97 84 -157 165 -359 116 -292 210 -433 340 -509 101 -59
478 -74 698 -28 225 47 484 255 562 451 26 64 30 157 11 214 -8 21 -37 64 -66
96 -249 271 -405 753 -460 1425 -9 105 -19 233 -24 285 -9 101 2 432 19 577
28 236 46 311 110 458 60 139 104 270 170 505 124 445 164 561 227 669 38 64
82 106 117 113 36 6 54 -88 86 -449 59 -679 96 -956 141 -1059 37 -88 49 -166
59 -384 14 -311 46 -468 111 -532 33 -34 57 -35 94 -7 25 21 27 25 20 78 -23
202 -130 1054 -155 1236 -49 364 -62 744 -40 1169 12 224 22 293 51 353 20 42
21 55 16 201 -6 183 -19 239 -72 307 -46 60 -103 181 -139 294 -39 123 -224
431 -431 716 -40 55 -91 138 -113 185 -77 160 -398 687 -555 910 -213 304
-342 425 -635 601 -75 46 -188 116 -250 157 -162 106 -546 272 -754 326 -295
76 -838 113 -1298 87 -262 -15 -401 -31 -545 -65 -336 -77 -563 -100 -1005
-101 -578 0 -923 42 -1965 240 -837 159 -822 157 -1052 155 -106 0 -193 3
-193 8 0 5 69 63 154 130 150 118 196 164 196 195 0 31 -48 33 -200 11z
m-4197 -4366 c53 -40 61 -351 14 -523 -88 -315 -213 -545 -598 -1100 -80 -115
-202 -295 -271 -400 -142 -215 -215 -306 -291 -366 -64 -52 -155 -95 -224
-107 -59 -10 -54 -16 -68 89 -15 102 37 438 83 541 10 24 54 90 98 148 103
138 138 206 232 456 108 286 172 438 246 579 35 66 73 149 85 185 27 82 100
180 197 265 202 176 429 282 497 233z"/>
</g></g><g><path d="M 580 444 a 26 26 0 0 1 0 52" stroke="#bcd8cf" stroke-width="5" fill="none" stroke-linecap="round" opacity="0.75"/><path d="M 580 428 a 42 42 0 0 1 0 84" stroke="#bcd8cf" stroke-width="5" fill="none" stroke-linecap="round" opacity="0.55"/><path d="M 580 412 a 58 58 0 0 1 0 116" stroke="#bcd8cf" stroke-width="5" fill="none" stroke-linecap="round" opacity="0.35"/></g></svg>