<?xml version="1.0" encoding="UTF-8"?>
<svg id="Layer_2" data-name="Layer 2" xmlns="http://www.w3.org/2000/svg" viewBox="0 0 312.397773036240324 78.146904738039666">
  <defs>
    <style>
      .cls-1 {
        fill: #ffffff;
      }

      .cls-1, .cls-2 {
        stroke-width: 0px;
      }

      .cls-2 {
        fill: #ffffff;
      }
    </style>
  </defs>
  <g id="Logo_Carpathia" data-name="Logo Carpathia">
    <g>
      <g>
        <g>
          <path class="cls-2" d="m38.273725991770334,76.546757914759837C17.169178149189975,76.546757914759837,0,59.377579765589871,0,38.273031923009512,0,17.169178149169966,17.169178149189975,0,38.273725991770334,0c11.169648055700236,0,21.754196172890261,4.862645515339864,29.039141552420006,13.340695040029459l-8.821479479880509,8.168104212760227c-4.985495680379245-5.802414574400245-12.575271297590007-9.420898268600467-20.217662072539497-9.420898268600467-14.43871176931043,0-26.185825007560197,11.746419169520777-26.185825007560197,26.185130938820294,0,14.438711769300426,11.747113238249767,26.185825007550193,26.185825007560197,26.185825007550193,7.554244046359599,0,14.982444262070203-3.817004762579927,19.960305186439655-9.509062409079888l8.858816578900587,8.510297508059921c-7.27384027988046,8.317025579560323-17.777876424490387,13.0866658852201-28.819121765340242,13.0866658852201Z"/>
          <polygon class="cls-2" points="35.310698162150402 54.949794521479816 72.361800874629807 54.949794521479816 58.491388064309831 21.508799252789686 47.66106573299021 46.969557014189377 43.195932841989816 36.234237510309868 35.310698162150402 54.949794521479816"/>
        </g>
        <g>
          <g>
            <path class="cls-2" d="m85.290683393120162,42.136162550539666c0-7.6884765625,5.90283203125-13.1904296875,13.84619140625-13.1904296875,4.4091796875,0,8.08935546875,1.603515625,10.494140625,4.5185546875l-3.78955078125,3.498046875c-1.71240234375-1.9677734375-3.8623046875-2.98828125-6.4130859375-2.98828125-4.7734375,0-8.162109375,3.3525390625-8.162109375,8.162109375,0,4.81005859375,3.388671875,8.162109375,8.162109375,8.162109375,2.55078125,0,4.70068359375-1.02001953125,6.4130859375-3.0244140625l3.78955078125,3.498046875c-2.40478515625,2.95166015625-6.0849609375,4.5546875-10.5302734375,4.5546875-7.9072265625,0-13.81005859375-5.501953125-13.81005859375-13.1904296875Z"/>
            <path class="cls-2" d="m129.339999799370162,49.423760206789666h-11.84228515625l-2.25927734375,5.4658203125h-6.048828125l11.36865234375-25.50634765625h5.830078125l11.4052734375,25.50634765625h-6.1943359375l-2.25927734375-5.4658203125Zm-1.8583984375-4.48193359375l-4.04443359375-9.76513671875-4.044921875,9.76513671875h8.08935546875Z"/>
            <path class="cls-2" d="m156.153476361870162,54.889580519289666l-4.9189453125-7.10546875h-5.42919921875v7.10546875h-5.9033203125v-25.50634765625h11.041015625c6.81396484375,0,11.0771484375,3.5341796875,11.0771484375,9.2548828125,0,3.826171875-1.93115234375,6.6318359375-5.2470703125,8.052734375l5.720703125,8.19873046875h-6.34033203125Zm-5.53857421875-20.69677734375h-4.8095703125v8.890625h4.8095703125c3.607421875,0,5.42919921875-1.67578125,5.42919921875-4.4453125,0-2.8056640625-1.82177734375-4.4453125-5.42919921875-4.4453125Z"/>
            <path class="cls-2" d="m188.250644330620162,38.638115675539666c0,5.6845703125-4.26318359375,9.21875-11.0771484375,9.21875h-5.1376953125v7.03271484375h-5.90283203125v-25.50634765625h11.04052734375c6.81396484375,0,11.0771484375,3.5341796875,11.0771484375,9.2548828125Zm-5.9755859375,0c0-2.8056640625-1.822265625-4.4453125-5.42919921875-4.4453125h-4.81005859375v8.8544921875h4.81005859375c3.60693359375,0,5.42919921875-1.6396484375,5.42919921875-4.4091796875Z"/>
            <path class="cls-2" d="m207.413241986870162,49.423760206789666h-11.84228515625l-2.25927734375,5.4658203125h-6.048828125l11.36865234375-25.50634765625h5.830078125l11.4052734375,25.50634765625h-6.1943359375l-2.25927734375-5.4658203125Zm-1.8583984375-4.48193359375l-4.04443359375-9.76513671875-4.044921875,9.76513671875h8.08935546875Z"/>
            <path class="cls-2" d="m221.984531049370162,34.192803175539666h-8.162109375v-4.8095703125h22.22705078125v4.8095703125h-8.162109375v20.69677734375h-5.90283203125v-20.69677734375Z"/>
            <path class="cls-2" d="m262.062656049370162,29.383232863039666v25.50634765625h-5.90283203125v-10.45751953125h-11.58740234375v10.45751953125h-5.90283203125v-25.50634765625h5.90283203125v10.056640625h11.58740234375v-10.056640625h5.90283203125Z"/>
            <path class="cls-2" d="m267.560214643120162,29.383232863039666h5.90283203125v25.50634765625h-5.90283203125v-25.50634765625Z"/>
            <path class="cls-2" d="m295.760898236870162,49.423760206789666h-11.84228515625l-2.25927734375,5.4658203125h-6.048828125l11.36865234375-25.50634765625h5.830078125l11.4052734375,25.50634765625h-6.1943359375l-2.25927734375-5.4658203125Zm-1.8583984375-4.48193359375l-4.04443359375-9.76513671875-4.044921875,9.76513671875h8.08935546875Z"/>
          </g>
          <path class="cls-2" d="m312.397773036240324,33.916652291729406c0,3.251869439020084-2.532268078600282,5.801283640840666-5.784673333980209,5.801283640840666-3.252405255339909,0-5.752524352809814-2.549414201820582-5.752524352809814-5.76859884338046s2.500119097469906-5.76859884337955,5.784673333940191-5.76859884337955c3.284554236499389,0,5.752524352849832,2.484044606899261,5.752524352849832,5.735914045919344Zm-1.256522528469759.001019282600282c0-2.580479908119742-1.883319474350174-4.528168625730359-4.496503110920457-4.528168625730359-2.61214542298967,0-4.512076314869773,1.994927436509897-4.512076314869773,4.559834140590283s1.899930891880103,4.559834140600287,4.480929906820165,4.559834140600287c2.579960801289417,0,4.527649518970065-2.011019747350474,4.527649518970065-4.591499655460211Zm-2.840552279290023,1.044961990550291l1.345524828329872,2.058258466229745h-1.646606772989799l-1.155531739130311-1.773268832450412h-1.092200709490498v1.773268832450412h-1.433703379229883v-6.143109883840225h2.462573058960515c1.677753181049411,0,2.675476452679504.854968901359825,2.675476452679504,2.184920525690359,0,.902207620260015-.41113258642963,1.551610228400023-1.155531739129401,1.899930891920121Zm-1.346493300550719-.949965445960515c.744399152750702,0,1.172143156810307-.348320663520099,1.172143156810307-.949965445959606,0-.61773709327008-.427744004059605-.965538649979862-1.172143156810307-.965538649979862h-1.11614949989962v1.915504095939468h1.11614949989962Z"/>
        </g>
      </g>
      <g>
        <path class="cls-1" d="m88.348788861870162,75.489189894289666v-12.4873046875h6.673828125v1.1474609375h-5.39111328125v11.33984375h-1.28271484375Zm.9873046875-5.72900390625v-1.1474609375h4.91064453125v1.1474609375h-4.91064453125Z"/>
        <path class="cls-1" d="m99.173984174370162,75.649346144289666c-.6865234375,0-1.28271484375-.1572265625-1.7890625-.47216796875-.505859375-.31494140625-.89697265625-.81982421875-1.17236328125-1.5146484375-.27587890625-.69482421875-.41357421875-1.607421875-.41357421875-2.73779296875,0-1.13623046875.13623046875-2.0517578125.4091796875-2.74658203125.2724609375-.6943359375.66064453125-1.19921875,1.1640625-1.51416015625s1.10400390625-.47265625,1.8017578125-.47265625c.68603515625,0,1.28369140625.1591796875,1.79248046875.4765625.50927734375.31787109375.9013671875.82421875,1.17724609375,1.51904296875.275390625.6943359375.41357421875,1.6044921875.41357421875,2.7294921875,0,1.13623046875-.13818359375,2.05126953125-.41357421875,2.74609375-.27587890625.69482421875-.6650390625,1.19970703125-1.16845703125,1.5146484375s-1.10400390625.47216796875-1.80126953125.47216796875Zm0-1.029296875c.42724609375,0,.7958984375-.10546875,1.10498046875-.31640625.3095703125-.2109375.54833984375-.58203125.71728515625-1.11376953125.1689453125-.53125.2529296875-1.27783203125.2529296875-2.23974609375,0-.97900390625-.08544921875-1.73828125-.25732421875-2.2783203125-.17138671875-.5400390625-.412109375-.91650390625-.72119140625-1.13037109375-.3095703125-.2138671875-.6748046875-.32080078125-1.0966796875-.32080078125s-.78759765625.10546875-1.09716796875.31640625c-.30908203125.2109375-.54833984375.58203125-.716796875,1.11376953125-.1689453125.53173828125-.25341796875,1.2783203125-.25341796875,2.240234375,0,.978515625.0830078125,1.73779296875.2490234375,2.27783203125.16552734375.5400390625.40478515625.9169921875.71728515625,1.130859375.31201171875.2138671875.67919921875.3203125,1.10107421875.3203125Z"/>
        <path class="cls-1" d="m104.261386518120162,75.489189894289666v-9.154296875h1.06298828125l.1015625,1.24853515625h.083984375c.27001953125-.4609375.60888671875-.7998046875,1.01708984375-1.0166015625.40771484375-.21630859375.83935546875-.32470703125,1.294921875-.32470703125.10693359375,0,.205078125.00390625.29541015625.0126953125.08984375.00830078125.16552734375.01806640625.2275390625.029296875v1.20654296875c-.10107421875-.0166015625-.19677734375-.0263671875-.28662109375-.029296875-.09033203125-.0029296875-.19140625-.00439453125-.3037109375-.00439453125-.287109375,0-.57275390625.05078125-.8564453125.15185546875-.2841796875.10107421875-.5458984375.2529296875-.78466796875.45556640625-.2392578125.20263671875-.4345703125.4501953125-.58642578125.74267578125v6.68212890625h-1.265625Z"/>
        <path class="cls-1" d="m113.195956830620162,75.489189894289666v-12.4873046875h1.32470703125l6.17626953125,10.91796875h-.3291015625v-10.91796875h1.21484375v12.4873046875h-1.32470703125l-6.17578125-10.91796875h.32861328125v10.91796875h-1.21484375Z"/>
        <path class="cls-1" d="m125.835116986870162,75.641045363039666c-.72607421875,0-1.31640625-.21630859375-1.77197265625-.6494140625s-.68359375-1.04345703125-.68359375-1.8310546875c0-.8154296875.24169921875-1.451171875.7255859375-1.90673828125s1.240234375-.7314453125,2.26953125-.8271484375l2.0166015625-.21923828125.17724609375.87744140625-2.10107421875.21923828125c-.61865234375.056640625-1.07568359375.22802734375-1.37060546875.5146484375-.29541015625.287109375-.443359375.68359375-.443359375,1.18994140625,0,.54541015625.13525390625.94921875.4052734375,1.21044921875.27001953125.26171875.64404296875.392578125,1.1220703125.392578125.31494140625,0,.64404296875-.080078125.9873046875-.24072265625.3427734375-.16015625.6494140625-.45654296875.91943359375-.89013671875v-4.16796875c0-.5283203125-.07568359375-.9404296875-.2275390625-1.23583984375s-.37841796875-.50341796875-.67919921875-.62451171875c-.30126953125-.12060546875-.68212890625-.18115234375-1.1435546875-.18115234375-.2978515625,0-.63427734375.029296875-1.00830078125.08837890625s-.74951171875.1533203125-1.1259765625.28271484375v-1.08837890625c.33154296875-.1123046875.7099609375-.201171875,1.134765625-.265625.42431640625-.06494140625.8193359375-.09716796875,1.18505859375-.09716796875.6806640625,0,1.25146484375.0986328125,1.712890625.29541015625s.80859375.52734375,1.0419921875.9912109375c.2333984375.46435546875.35009765625,1.0927734375.35009765625,1.8857421875v6.12548828125h-1.0546875l-.10107421875-1.00390625h-.08447265625c-.2529296875.3935546875-.57373046875.6845703125-.9619140625.873046875s-.818359375.28271484375-1.29052734375.28271484375Z"/>
        <path class="cls-1" d="m130.323398236870162,67.389580519289666v-1.0546875h5.197265625v1.0546875h-5.197265625Zm4.142578125,8.259765625c-.8095703125,0-1.4423828125-.2177734375-1.89794921875-.65380859375-.4560546875-.435546875-.68359375-1.16015625-.68359375-2.17236328125v-6.48828125l.20263671875-3.3330078125h1.05419921875v9.65234375c0,.703125.1279296875,1.18994140625.38427734375,1.45947265625.255859375.27001953125.65380859375.4052734375,1.19384765625.4052734375.140625,0,.28955078125-.01123046875.447265625-.03369140625.1572265625-.0224609375.3173828125-.05078125.48046875-.08447265625v1.10546875c-.16845703125.0390625-.3583984375.07275390625-.5693359375.10107421875-.2109375.02783203125-.4150390625.0419921875-.61181640625.0419921875Z"/>
        <path class="cls-1" d="m139.173984174370162,75.649346144289666c-.45556640625,0-.86767578125-.09130859375-1.23583984375-.27392578125-.36865234375-.1826171875-.65966796875-.48681640625-.87353515625-.9111328125-.21337890625-.4248046875-.3203125-1.00537109375-.3203125-1.74267578125v-6.38671875h1.2568359375v6.33642578125c0,.68603515625.14208984375,1.16015625.42626953125,1.42138671875.2841796875.26171875.642578125.392578125,1.07568359375.392578125.2080078125,0,.43896484375-.0380859375.69189453125-.1142578125.2529296875-.07568359375.498046875-.20068359375.73388671875-.375.236328125-.17431640625.43896484375-.41064453125.60791015625-.708984375v-6.9521484375h1.26513671875v9.154296875h-1.0712890625l-.10107421875-.99560546875h-.08447265625c-.31494140625.38818359375-.67822265625.677734375-1.08837890625.869140625-.41064453125.19091796875-.83837890625.28662109375-1.28271484375.28662109375Z"/>
        <path class="cls-1" d="m144.944980268120162,75.489189894289666v-9.154296875h1.06298828125l.1015625,1.24853515625h.08447265625c.27001953125-.4609375.6083984375-.7998046875,1.0166015625-1.0166015625.40771484375-.21630859375.83935546875-.32470703125,1.294921875-.32470703125.10693359375,0,.20556640625.00390625.29541015625.0126953125.08984375.00830078125.166015625.01806640625.22802734375.029296875v1.20654296875c-.1015625-.0166015625-.197265625-.0263671875-.287109375-.029296875s-.19140625-.00439453125-.3037109375-.00439453125c-.287109375,0-.572265625.05078125-.8564453125.15185546875s-.54541015625.2529296875-.78466796875.45556640625-.4345703125.4501953125-.58642578125.74267578125v6.68212890625h-1.265625Z"/>
        <path class="cls-1" d="m153.550937299370162,75.649346144289666c-.84375,0-1.546875-.15478515625-2.109375-.4638671875s-.984375-.8115234375-1.265625-1.505859375c-.28125-.69482421875-.421875-1.62158203125-.421875-2.7802734375,0-1.119140625.134765625-2.02490234375.40478515625-2.716796875s.6484375-1.19677734375,1.134765625-1.5146484375c.48681640625-.3173828125,1.05322265625-.4765625,1.7001953125-.4765625.6357421875,0,1.18115234375.15771484375,1.63671875.47265625.4560546875.31494140625.80615234375.81982421875,1.05078125,1.51416015625.24462890625.69482421875.36669921875,1.6103515625.36669921875,2.74658203125v.43017578125h-5.408203125v-.9111328125h4.404296875l-.21923828125.185546875c0-.91650390625-.076171875-1.62841796875-.22802734375-2.134765625-.15185546875-.505859375-.36572265625-.857421875-.64111328125-1.0546875-.275390625-.19677734375-.59619140625-.294921875-.9619140625-.294921875-.376953125,0-.71142578125.09814453125-1.00390625.294921875-.29248046875.197265625-.52197265625.548828125-.6875,1.0546875-.166015625.50634765625-.2490234375,1.21826171875-.2490234375,2.134765625v.4892578125c0,.87744140625.09423828125,1.56689453125.28271484375,2.0673828125s.4765625.8564453125.86474609375,1.0673828125.8828125.31640625,1.48486328125.31640625c.287109375,0,.587890625-.0283203125.90283203125-.08447265625s.66357421875-.140625,1.04638671875-.25341796875v1.08837890625c-.3828125.1181640625-.7412109375.20263671875-1.07568359375.25341796875-.3349609375.05029296875-.6708984375.07568359375-1.00830078125.07568359375Z"/>
        <path class="cls-1" d="m157.659824018120162,78.146904738039666c.19091796875-.52294921875.341796875-1.0126953125.451171875-1.46826171875.10986328125-.45556640625.16455078125-.9140625.16455078125-1.375l.21923828125.29541015625h-.1767578125c-.2646484375,0-.4853515625-.0859375-.66259765625-.25732421875-.17724609375-.171875-.265625-.3955078125-.265625-.6708984375,0-.28125.0830078125-.5048828125.24853515625-.6708984375.166015625-.16552734375.38427734375-.2490234375.654296875-.2490234375.2978515625,0,.52978515625.0986328125.69580078125.29541015625.166015625.197265625.2490234375.50341796875.2490234375.919921875,0,.57373046875-.076171875,1.134765625-.22802734375,1.68310546875s-.3486328125,1.04736328125-.59033203125,1.49755859375h-.75927734375Z"/>
        <path class="cls-1" d="m163.650058393120162,67.389580519289666v-1.0546875h5.1884765625v1.0546875h-5.1884765625Zm1.560546875,8.099609375v-10.95166015625c0-.61865234375.10693359375-1.138671875.32080078125-1.560546875s.53173828125-.74267578125.95361328125-.9619140625c.421875-.2197265625.9501953125-.3291015625,1.5859375-.3291015625.1630859375,0,.3388671875.0068359375.52734375.02099609375s.36962890625.0380859375.5439453125.07177734375v1.080078125c-.1630859375-.0283203125-.31884765625-.04931640625-.4677734375-.0634765625-.1494140625-.01416015625-.31396484375-.02099609375-.49365234375-.02099609375-.57373046875,0-1.00439453125.1337890625-1.291015625.40087890625-.287109375.26708984375-.43017578125.70703125-.43017578125,1.3203125v10.99365234375h-1.2490234375Z"/>
        <path class="cls-1" d="m172.728183393120162,75.649346144289666c-.6865234375,0-1.28271484375-.1572265625-1.7890625-.47216796875-.505859375-.31494140625-.89697265625-.81982421875-1.17236328125-1.5146484375-.27587890625-.69482421875-.41357421875-1.607421875-.41357421875-2.73779296875,0-1.13623046875.13623046875-2.0517578125.4091796875-2.74658203125.27294921875-.6943359375.6611328125-1.19921875,1.16455078125-1.51416015625.5029296875-.31494140625,1.103515625-.47265625,1.80126953125-.47265625.68603515625,0,1.28369140625.1591796875,1.79296875.4765625.5087890625.31787109375.9013671875.82421875,1.1767578125,1.51904296875.275390625.6943359375.41357421875,1.6044921875.41357421875,2.7294921875,0,1.13623046875-.13818359375,2.05126953125-.41357421875,2.74609375s-.6650390625,1.19970703125-1.16845703125,1.5146484375-1.10400390625.47216796875-1.80126953125.47216796875Zm0-1.029296875c.42724609375,0,.7958984375-.10546875,1.10498046875-.31640625.3095703125-.2109375.548828125-.58203125.71728515625-1.11376953125.1689453125-.53125.2529296875-1.27783203125.2529296875-2.23974609375,0-.97900390625-.08544921875-1.73828125-.2568359375-2.2783203125-.171875-.5400390625-.412109375-.91650390625-.7216796875-1.13037109375s-.6748046875-.32080078125-1.0966796875-.32080078125-.78759765625.10546875-1.09716796875.31640625c-.30908203125.2109375-.54833984375.58203125-.716796875,1.11376953125-.1689453125.53173828125-.25341796875,1.2783203125-.25341796875,2.240234375,0,.978515625.0830078125,1.73779296875.2490234375,2.27783203125s.40478515625.9169921875.71728515625,1.130859375c.31201171875.2138671875.67919921875.3203125,1.10107421875.3203125Z"/>
        <path class="cls-1" d="m177.815585736870162,75.489189894289666v-9.154296875h1.06298828125l.1015625,1.24853515625h.08447265625c.27001953125-.4609375.6083984375-.7998046875,1.0166015625-1.0166015625.40771484375-.21630859375.83935546875-.32470703125,1.294921875-.32470703125.10693359375,0,.20556640625.00390625.29541015625.0126953125.08984375.00830078125.166015625.01806640625.2275390625.029296875v1.20654296875c-.10107421875-.0166015625-.19677734375-.0263671875-.28662109375-.029296875s-.19140625-.00439453125-.3037109375-.00439453125c-.287109375,0-.572265625.05078125-.8564453125.15185546875s-.54541015625.2529296875-.78466796875.45556640625-.4345703125.4501953125-.58642578125.74267578125v6.68212890625h-1.265625Z"/>
        <path class="cls-1" d="m191.179843549370162,75.649346144289666c-.75927734375,0-1.44140625-.11083984375-2.0458984375-.3330078125-.60498046875-.22216796875-1.12109375-.5810546875-1.54833984375-1.07568359375-.42724609375-.4951171875-.75390625-1.150390625-.978515625-1.9658203125-.22509765625-.81591796875-.33740234375-1.81689453125-.33740234375-3.00390625,0-1.55810546875.19921875-2.80810546875.5986328125-3.75048828125.3994140625-.94189453125.974609375-1.6240234375,1.7255859375-2.0458984375s1.65771484375-.6328125,2.72119140625-.6328125c.37646484375,0,.75634765625.02685546875,1.138671875.080078125.3828125.0537109375.75390625.1337890625,1.11376953125.24072265625v1.138671875c-.3935546875-.12890625-.76904296875-.21630859375-1.12646484375-.26123046875-.35693359375-.044921875-.72412109375-.0673828125-1.1005859375-.0673828125-.8046875,0-1.48388671875.16015625-2.0380859375.48046875-.5537109375.32080078125-.97412109375.86376953125-1.26123046875,1.62841796875-.28662109375.76513671875-.43017578125,1.81689453125-.43017578125,3.15576171875,0,1.36669921875.14453125,2.43408203125.4345703125,3.20166015625.28955078125.76806640625.70849609375,1.306640625,1.2568359375,1.61572265625.548828125.3095703125,1.2109375.46435546875,1.9873046875.46435546875.376953125,0,.74658203125-.03515625,1.109375-.10546875s.75244140625-.1787109375,1.16845703125-.32470703125v1.138671875c-.326171875.1181640625-.693359375.21826171875-1.10107421875.2998046875s-.83642578125.1220703125-1.28662109375.1220703125Z"/>
        <path class="cls-1" d="m197.769199018120162,75.649346144289666c-.68603515625,0-1.2822265625-.1572265625-1.78857421875-.47216796875s-.89697265625-.81982421875-1.1728515625-1.5146484375c-.275390625-.69482421875-.4130859375-1.607421875-.4130859375-2.73779296875,0-1.13623046875.13623046875-2.0517578125.4091796875-2.74658203125.2724609375-.6943359375.66064453125-1.19921875,1.1640625-1.51416015625s1.10400390625-.47265625,1.80126953125-.47265625c.6865234375,0,1.2841796875.1591796875,1.79296875.4765625.50927734375.31787109375.9013671875.82421875,1.17724609375,1.51904296875.275390625.6943359375.4130859375,1.6044921875.4130859375,2.7294921875,0,1.13623046875-.1376953125,2.05126953125-.4130859375,2.74609375-.27587890625.69482421875-.66552734375,1.19970703125-1.16845703125,1.5146484375-.50390625.31494140625-1.10400390625.47216796875-1.8017578125.47216796875Zm0-1.029296875c.427734375,0,.7958984375-.10546875,1.10546875-.31640625.30908203125-.2109375.54833984375-.58203125.71728515625-1.11376953125.16845703125-.53125.2529296875-1.27783203125.2529296875-2.23974609375,0-.97900390625-.0859375-1.73828125-.25732421875-2.2783203125s-.412109375-.91650390625-.72119140625-1.13037109375c-.3095703125-.2138671875-.67529296875-.32080078125-1.09716796875-.32080078125s-.78759765625.10546875-1.0966796875.31640625c-.3095703125.2109375-.54833984375.58203125-.71728515625,1.11376953125-.16845703125.53173828125-.2529296875,1.2783203125-.2529296875,2.240234375,0,.978515625.0830078125,1.73779296875.2490234375,2.27783203125.16552734375.5400390625.40478515625.9169921875.716796875,1.130859375.3125.2138671875.67919921875.3203125,1.10107421875.3203125Z"/>
        <path class="cls-1" d="m202.857089643120162,75.489189894289666v-9.154296875h1.0712890625l.1015625,1.029296875h.083984375c.31494140625-.3994140625.673828125-.69482421875,1.076171875-.8857421875.40185546875-.19140625.8310546875-.287109375,1.28662109375-.287109375.421875,0,.80712890625.08984375,1.15576171875.27001953125s.62548828125.4794921875.8310546875.8984375c.205078125.41943359375.30810546875.99462890625.30810546875,1.7255859375v6.40380859375h-1.2490234375v-6.302734375c0-.703125-.134765625-1.185546875-.40478515625-1.44677734375-.27001953125-.26171875-.6162109375-.392578125-1.03759765625-.392578125-.197265625,0-.41650390625.03955078125-.658203125.1181640625-.2421875.0791015625-.47802734375.2099609375-.708984375.392578125-.23046875.1826171875-.42724609375.431640625-.59033203125.74658203125v6.884765625h-1.265625Zm9.28076171875,0v-6.302734375c0-.703125-.140625-1.185546875-.421875-1.44677734375-.28125-.26171875-.6298828125-.392578125-1.0458984375-.392578125-.197265625,0-.421875.04248046875-.67529296875.126953125-.2529296875.083984375-.50048828125.2275390625-.7421875.43017578125-.2421875.2021484375-.447265625.486328125-.6162109375.85205078125l-.3037109375-1.00390625c.36572265625-.57958984375.7890625-.984375,1.27001953125-1.21484375.48095703125-.23095703125.94921875-.34619140625,1.40478515625-.34619140625.4443359375,0,.84765625.08984375,1.21044921875.27001953125s.6513671875.4853515625.86474609375.91552734375c.2138671875.43017578125.32080078125,1.0166015625.32080078125,1.75927734375v6.35302734375h-1.265625Z"/>
        <path class="cls-1" d="m215.478671674370162,75.489189894289666v-9.154296875h1.07177734375l.10107421875,1.029296875h.08447265625c.31494140625-.3994140625.67333984375-.69482421875,1.07568359375-.8857421875.40234375-.19140625.8310546875-.287109375,1.28662109375-.287109375.421875,0,.80712890625.08984375,1.15625.27001953125.3486328125.18017578125.62548828125.4794921875.8310546875.8984375.205078125.41943359375.3076171875.99462890625.3076171875,1.7255859375v6.40380859375h-1.24853515625v-6.302734375c0-.703125-.13525390625-1.185546875-.40478515625-1.44677734375-.27001953125-.26171875-.6162109375-.392578125-1.0380859375-.392578125-.19677734375,0-.416015625.03955078125-.658203125.1181640625-.24169921875.0791015625-.47802734375.2099609375-.70849609375.392578125-.23095703125.1826171875-.427734375.431640625-.5908203125.74658203125v6.884765625h-1.265625Zm9.28125,0v-6.302734375c0-.703125-.140625-1.185546875-.421875-1.44677734375-.28125-.26171875-.63037109375-.392578125-1.04638671875-.392578125-.19677734375,0-.421875.04248046875-.6748046875.126953125-.25341796875.083984375-.5009765625.2275390625-.74267578125.43017578125-.24169921875.2021484375-.447265625.486328125-.61572265625.85205078125l-.3037109375-1.00390625c.365234375-.57958984375.78857421875-.984375,1.26953125-1.21484375.48095703125-.23095703125.94921875-.34619140625,1.40478515625-.34619140625.4443359375,0,.84814453125.08984375,1.2109375.27001953125s.65087890625.4853515625.86474609375.91552734375.32080078125,1.0166015625.32080078125,1.75927734375v6.35302734375h-1.265625Z"/>
        <path class="cls-1" d="m230.463046674370162,75.649346144289666c-.45556640625,0-.86767578125-.09130859375-1.23583984375-.27392578125-.36865234375-.1826171875-.65966796875-.48681640625-.87353515625-.9111328125-.2138671875-.4248046875-.3203125-1.00537109375-.3203125-1.74267578125v-6.38671875h1.2568359375v6.33642578125c0,.68603515625.14208984375,1.16015625.42626953125,1.42138671875.2841796875.26171875.642578125.392578125,1.07568359375.392578125.2080078125,0,.43896484375-.0380859375.69189453125-.1142578125.2529296875-.07568359375.498046875-.20068359375.73388671875-.375.236328125-.17431640625.43896484375-.41064453125.607421875-.708984375v-6.9521484375h1.265625v9.154296875h-1.0712890625l-.10107421875-.99560546875h-.08447265625c-.3154296875.38818359375-.67822265625.677734375-1.08837890625.869140625-.41064453125.19091796875-.83837890625.28662109375-1.28271484375.28662109375Z"/>
        <path class="cls-1" d="m236.234042768120162,75.489189894289666v-9.154296875h1.07177734375l.10107421875,1.02099609375h.08447265625c.3037109375-.37158203125.66064453125-.658203125,1.0712890625-.86083984375s.86083984375-.3037109375,1.35009765625-.3037109375c.466796875,0,.8857421875.08984375,1.25732421875.27001953125.37109375.18017578125.6650390625.48095703125.88134765625.90283203125.216796875.421875.3251953125.99853515625.3251953125,1.7294921875v6.3955078125h-1.265625v-6.3193359375c0-.69189453125-.140625-1.1689453125-.421875-1.43017578125-.28125-.26171875-.65283203125-.392578125-1.11376953125-.392578125-.21923828125,0-.45703125.0380859375-.712890625.1142578125-.25634765625.07568359375-.5048828125.20361328125-.7470703125.3837890625-.24169921875.18017578125-.44677734375.4189453125-.61572265625.71728515625v6.9267578125h-1.265625Z"/>
        <path class="cls-1" d="m245.076327924370162,64.343682081789666c-.287109375,0-.5078125-.076171875-.66259765625-.22802734375s-.23193359375-.35693359375-.23193359375-.61572265625c0-.26416015625.0771484375-.47265625.23193359375-.62451171875s.37548828125-.2275390625.66259765625-.2275390625c.28662109375,0,.50732421875.07568359375.662109375.2275390625s.23193359375.3603515625.23193359375.62451171875c0,.2587890625-.0771484375.4638671875-.23193359375.61572265625s-.37548828125.22802734375-.662109375.22802734375Zm-.6328125,11.1455078125v-9.154296875h1.265625v9.154296875h-1.265625Z"/>
        <path class="cls-1" d="m246.780429486870162,67.389580519289666v-1.0546875h5.197265625v1.0546875h-5.197265625Zm4.142578125,8.259765625c-.81005859375,0-1.4423828125-.2177734375-1.8984375-.65380859375-.45556640625-.435546875-.68310546875-1.16015625-.68310546875-2.17236328125v-6.48828125l.2021484375-3.3330078125h1.0546875v9.65234375c0,.703125.1279296875,1.18994140625.38427734375,1.45947265625.255859375.27001953125.65380859375.4052734375,1.19384765625.4052734375.140625,0,.28955078125-.01123046875.447265625-.03369140625.1572265625-.0224609375.3173828125-.05078125.48046875-.08447265625v1.10546875c-.16845703125.0390625-.3583984375.07275390625-.5693359375.10107421875-.2109375.02783203125-.4150390625.0419921875-.61181640625.0419921875Z"/>
        <path class="cls-1" d="m253.901523236870162,64.343682081789666c-.287109375,0-.5078125-.076171875-.66259765625-.22802734375-.154296875-.15185546875-.23193359375-.35693359375-.23193359375-.61572265625,0-.26416015625.07763671875-.47265625.23193359375-.62451171875.15478515625-.15185546875.37548828125-.2275390625.66259765625-.2275390625.28662109375,0,.50732421875.07568359375.662109375.2275390625s.232421875.3603515625.232421875.62451171875c0,.2587890625-.07763671875.4638671875-.232421875.61572265625s-.37548828125.22802734375-.662109375.22802734375Zm-.6328125,11.1455078125v-9.154296875h1.265625v9.154296875h-1.265625Z"/>
        <path class="cls-1" d="m260.043613080620162,75.649346144289666c-.84375,0-1.546875-.15478515625-2.109375-.4638671875s-.984375-.8115234375-1.265625-1.505859375c-.28125-.69482421875-.421875-1.62158203125-.421875-2.7802734375,0-1.119140625.13525390625-2.02490234375.4052734375-2.716796875s.64794921875-1.19677734375,1.134765625-1.5146484375c.486328125-.3173828125,1.05322265625-.4765625,1.7001953125-.4765625.63525390625,0,1.18115234375.15771484375,1.63671875.47265625s.8056640625.81982421875,1.05029296875,1.51416015625c.24462890625.69482421875.3671875,1.6103515625.3671875,2.74658203125v.43017578125h-5.408203125v-.9111328125h4.404296875l-.2197265625.185546875c0-.91650390625-.07568359375-1.62841796875-.2275390625-2.134765625-.15185546875-.505859375-.36572265625-.857421875-.64111328125-1.0546875-.27587890625-.19677734375-.5966796875-.294921875-.9619140625-.294921875-.376953125,0-.7119140625.09814453125-1.00390625.294921875-.29296875.197265625-.52197265625.548828125-.68798828125,1.0546875-.166015625.50634765625-.24853515625,1.21826171875-.24853515625,2.134765625v.4892578125c0,.87744140625.09375,1.56689453125.2822265625,2.0673828125s.47705078125.8564453125.865234375,1.0673828125c.3876953125.2109375.8828125.31640625,1.48486328125.31640625.28662109375,0,.58740234375-.0283203125.90283203125-.08447265625.31494140625-.05615234375.66357421875-.140625,1.0458984375-.25341796875v1.08837890625c-.38232421875.1181640625-.7412109375.20263671875-1.07568359375.25341796875-.33447265625.05029296875-.6708984375.07568359375-1.00830078125.07568359375Z"/>
        <path class="cls-1" d="m265.899081830620162,75.649346144289666c-.36572265625,0-.72265625-.029296875-1.0712890625-.08837890625-.34912109375-.05908203125-.6865234375-.14501953125-1.0126953125-.25732421875v-1.080078125c.37109375.1181640625.7255859375.20654296875,1.06298828125.265625s.67236328125.0888671875,1.00439453125.0888671875c.646484375,0,1.134765625-.13525390625,1.4638671875-.4052734375.32861328125-.27001953125.4931640625-.65234375.4931640625-1.1474609375,0-.4384765625-.10400390625-.7705078125-.31201171875-.99560546875-.2080078125-.224609375-.517578125-.3935546875-.92822265625-.505859375l-.91943359375-.24462890625c-.73681640625-.20263671875-1.26416015625-.50634765625-1.58203125-.91162109375-.31787109375-.40478515625-.4765625-.9248046875-.4765625-1.560546875,0-.76513671875.27392578125-1.39208984375.822265625-1.8818359375.54833984375-.4892578125,1.33740234375-.73388671875,2.36669921875-.73388671875.34326171875,0,.658203125.0185546875.9453125.0546875.28662109375.03662109375.56494140625.0859375.8349609375.14794921875v1.08837890625c-.3095703125-.08447265625-.59765625-.14208984375-.86474609375-.1728515625-.26708984375-.03125-.5556640625-.04638671875-.86474609375-.04638671875-.47802734375,0-.869140625.06884765625-1.1728515625.20654296875s-.5244140625.32177734375-.662109375.552734375c-.13818359375.23046875-.20703125.48388671875-.20703125.75927734375,0,.3935546875.0986328125.70166015625.29541015625.923828125s.50048828125.39208984375.9111328125.51025390625l.919921875.24462890625c.77587890625.20849609375,1.31884765625.51904296875,1.62841796875.9326171875.30908203125.41357421875.4638671875.943359375.4638671875,1.59033203125,0,.83251953125-.27734375,1.48486328125-.8310546875,1.95751953125-.55419921875.47216796875-1.3232421875.70849609375-2.3076171875.70849609375Z"/>
      </g>
    </g>
  </g>
</svg>