<svg viewBox="0 0 1000 700" xmlns="http://www.w3.org/2000/svg" preserveAspectRatio="xMidYMid slice"><defs>
<linearGradient id="sky" x1="0" y1="0" x2="0" y2="1">
  <stop offset="0%" stop-color="#e4f1ee"/><stop offset="42%" stop-color="#f7ddd2"/>
  <stop offset="58%" stop-color="#f6d0c2"/><stop offset="74%" stop-color="#d3e9e0"/>
  <stop offset="100%" stop-color="#c2e1d7"/>
</linearGradient>
<linearGradient id="h1" x1="0" y1="0" x2="0" y2="1"><stop offset="0%" stop-color="#bfe0d6"/><stop offset="100%" stop-color="#a9d6c9"/></linearGradient>
<linearGradient id="h2" x1="0" y1="0" x2="0" y2="1"><stop offset="0%" stop-color="#88c8b9"/><stop offset="100%" stop-color="#6cb8a7"/></linearGradient>
<linearGradient id="h3" x1="0" y1="0" x2="0" y2="1"><stop offset="0%" stop-color="#4f9e8e"/><stop offset="100%" stop-color="#3a8576"/></linearGradient>
<linearGradient id="water" x1="0" y1="0" x2="0" y2="1">
  <stop offset="0%" stop-color="#bfeae3"/><stop offset="35%" stop-color="#73c6bd"/>
  <stop offset="70%" stop-color="#2f8f86"/><stop offset="100%" stop-color="#13524d"/>
</linearGradient>
</defs><rect width="1000" height="700" fill="url(#sky)"/><circle cx="770" cy="240" r="80" fill="#f6c7a9" opacity="0.5"/><circle cx="770" cy="240" r="56" fill="#ef9d78"/><g stroke="#2f7062" stroke-width="3" fill="none" stroke-linecap="round"><path d="M250 150 q12 -10 24 0 q12 -10 24 0"/><path d="M320 185 q9 -8 18 0 q9 -8 18 0"/></g><path d="M0 430 C 180 380, 360 410, 560 388 C 760 366, 880 400, 1000 386 L1000 700 L0 700 Z" fill="url(#h1)"/><path d="M0 500 C 200 452, 380 486, 600 470 C 800 456, 900 486, 1000 472 L1000 700 L0 700 Z" fill="url(#h2)"/><path d="M0 500 C 250 478, 520 496, 1000 486 L1000 545 L0 545 Z" fill="#ffffff" opacity="0.25"/><g><path d="M120 475 l16 0 l-16 -52 l-16 52 Z M120 446 l12 0 l-12 -32 l-12 32 Z" fill="#2c7165"/><path d="M165 478 l13 0 l-13 -40 l-13 40 Z M165 456 l9 0 l-9 -25 l-9 25 Z" fill="#2c7165"/><path d="M860 475 l16 0 l-16 -52 l-16 52 Z M860 446 l12 0 l-12 -32 l-12 32 Z" fill="#2c7165"/><path d="M905 470 l17 0 l-17 -58 l-17 58 Z M905 438 l12 0 l-12 -36 l-12 36 Z" fill="#2c7165"/></g><path d="M0 590 C 220 548, 470 576, 720 560 C 860 551, 940 574, 1000 566 L1000 700 L0 700 Z" fill="url(#h3)"/><g transform="translate(330,470) scale(0.255,0.255)"><g transform="translate(0.000000,479.000000) scale(0.100000,-0.100000)"
fill="#143b35" stroke="none">
<path d="M6720 4777 c-53 -27 -120 -162 -120 -243 0 -27 -9 -40 -51 -76 -58
-49 -157 -175 -196 -252 -40 -77 -150 -329 -188 -431 -18 -49 -49 -124 -69
-165 -20 -41 -36 -84 -36 -96 0 -11 -15 -41 -34 -65 -31 -40 -37 -59 -65 -212
-22 -124 -41 -194 -72 -270 -27 -66 -44 -126 -49 -172 -6 -61 -14 -81 -58
-152 -28 -45 -54 -94 -58 -109 -4 -14 -24 -56 -46 -93 -49 -85 -111 -233 -187
-448 -50 -143 -62 -191 -71 -280 -12 -119 -22 -192 -46 -330 -25 -142 -3 -259
57 -300 21 -14 43 -44 59 -81 39 -85 79 -114 191 -136 28 -6 71 -62 82 -108
10 -37 -42 -167 -145 -370 -91 -179 -93 -195 -28 -228 26 -13 53 -40 78 -78
27 -41 47 -60 72 -69 112 -38 723 16 755 67 3 6 43 7 98 3 105 -6 159 9 178
50 8 18 22 27 50 31 22 4 42 13 45 21 10 25 -44 105 -82 121 -30 13 -45 13
-122 -2 -54 -10 -114 -14 -156 -11 -61 4 -73 8 -93 32 -24 27 -24 27 -5 59 11
17 56 83 100 146 94 132 155 250 173 331 6 31 10 94 7 141 -6 121 -44 198
-147 298 l-78 76 80 84 c112 120 200 240 252 345 46 92 85 222 85 281 0 18 5
45 10 59 9 23 14 26 41 20 18 -4 55 -21 83 -38 42 -25 66 -32 131 -36 l80 -6
22 -45 c12 -25 33 -101 47 -170 30 -144 52 -178 122 -186 48 -6 81 11 111 55
29 42 29 64 1 228 -20 118 -21 136 -9 184 19 74 16 112 -15 169 -65 119 -151
183 -311 232 -57 17 -103 35 -103 38 0 4 19 10 43 12 102 12 157 65 157 153 0
51 -9 70 -61 137 -41 51 -56 108 -89 350 -36 253 -34 271 27 339 41 45 63 48
178 24 38 -8 87 -15 107 -15 47 0 143 42 157 68 6 10 35 31 65 46 71 35 116
85 116 131 0 30 -7 39 -73 89 -114 86 -171 152 -192 221 -25 87 -48 127 -114
197 -47 50 -57 67 -50 83 11 30 10 114 -2 159 -15 55 -59 96 -101 96 -37 0
-98 -26 -155 -64 -24 -17 -51 -26 -75 -26 -36 0 -38 2 -49 46 -28 110 -169
187 -259 141z"/>
<path d="M13818 4730 c-48 -14 -93 -48 -126 -94 -18 -24 -32 -50 -32 -58 0
-12 -13 -12 -82 -2 -46 7 -162 13 -259 13 -157 1 -200 -3 -390 -35 -118 -19
-256 -46 -308 -60 l-94 -26 -78 26 c-99 33 -211 34 -423 6 -84 -11 -296 -27
-485 -35 -365 -16 -441 -23 -633 -61 -468 -91 -847 -282 -1075 -542 -109 -123
-280 -340 -316 -399 -77 -127 -195 -474 -267 -787 -62 -268 -73 -304 -182
-576 -106 -266 -154 -360 -251 -493 -40 -54 -112 -153 -160 -220 -114 -157
-132 -175 -227 -226 -138 -74 -180 -125 -180 -222 0 -102 107 -364 200 -489
28 -37 56 -85 64 -106 24 -72 46 -79 224 -76 228 3 344 22 396 63 33 26 33 59
2 96 -13 15 -25 37 -27 47 -3 16 -23 22 -133 41 -149 24 -166 36 -166 112 0
62 26 100 118 175 43 34 129 108 192 164 164 146 192 166 373 261 89 47 174
94 189 105 63 44 333 378 482 595 43 62 80 113 83 113 14 0 101 -62 133 -95
l35 -36 6 -162 c4 -89 15 -202 24 -252 27 -141 18 -206 -45 -355 -58 -136 -72
-208 -49 -261 15 -37 382 -368 439 -396 63 -32 385 -15 451 24 36 22 62 74 53
109 -8 31 -51 59 -106 68 -22 4 -56 15 -76 25 -38 20 -131 111 -149 145 -8 14
6 64 57 215 37 108 75 230 85 271 29 128 42 152 194 363 180 250 196 281 196
400 l0 87 110 0 c61 1 146 7 190 15 51 9 81 11 83 4 19 -54 433 -561 504 -617
22 -18 65 -39 93 -48 99 -28 106 -65 32 -156 -31 -38 -64 -64 -121 -94 -103
-53 -146 -99 -146 -156 0 -45 27 -155 43 -175 27 -35 125 2 290 110 70 45 172
111 228 146 111 70 263 191 279 222 18 33 27 14 33 -73 8 -107 44 -239 108
-391 27 -67 73 -180 100 -252 74 -192 110 -245 194 -282 34 -14 80 -18 303
-21 234 -4 265 -2 288 13 24 15 26 22 21 61 -5 51 -30 84 -62 84 -12 0 -40 14
-61 31 -22 17 -75 48 -119 69 -108 52 -111 58 -95 202 7 62 17 138 22 168 5
30 13 147 18 260 9 234 24 360 85 727 25 143 56 348 70 455 14 106 35 249 46
317 16 88 20 147 16 207 l-5 83 56 21 c85 32 193 42 404 38 206 -4 217 -6 294
-64 46 -36 112 -55 184 -55 74 0 243 39 284 66 38 25 96 103 96 129 -1 35 -37
104 -103 195 -35 47 -67 93 -72 101 -6 8 -10 56 -11 105 -1 73 -7 109 -34 190
-43 131 -70 184 -130 250 -31 34 -53 70 -60 97 -7 24 -23 62 -36 85 -17 30
-24 57 -24 95 0 80 -26 145 -80 198 -75 76 -169 97 -281 64 -58 -17 -124 -75
-135 -118 l-6 -24 -46 20 c-36 16 -58 19 -103 14 l-58 -6 -56 74 c-94 126
-211 185 -307 156z m-692 -2337 c10 -68 -1 -216 -30 -398 -14 -88 -26 -182
-26 -210 0 -47 -4 -41 -69 132 -38 101 -93 230 -122 288 -28 58 -50 108 -47
110 6 6 270 123 280 124 4 1 10 -20 14 -46z"/>
<path d="M3283 3037 c-28 -12 -52 -64 -60 -125 -7 -66 18 -147 62 -199 19 -23
42 -58 51 -79 15 -37 15 -37 -8 -29 -73 23 -143 29 -241 18 -68 -7 -275 -9
-617 -6 -492 5 -520 5 -639 -16 -68 -11 -144 -21 -170 -21 -25 0 -77 -12 -116
-26 -38 -13 -142 -49 -230 -78 -88 -29 -192 -69 -231 -89 -39 -20 -100 -43
-135 -52 -76 -19 -101 -35 -244 -152 -202 -166 -299 -276 -346 -394 -21 -55
-44 -236 -35 -274 3 -12 27 -48 54 -81 114 -142 141 -326 71 -471 -20 -42
-112 -130 -329 -315 -116 -99 -140 -167 -105 -301 34 -129 125 -256 218 -303
36 -19 77 -29 151 -36 123 -12 328 -6 334 11 2 7 15 25 29 42 18 22 23 36 19
55 -5 17 0 33 13 51 16 19 18 30 11 44 -16 29 -73 34 -182 14 -104 -19 -141
-16 -161 17 -28 44 60 149 179 217 40 22 112 69 160 104 49 35 123 84 166 110
132 83 191 162 223 299 l14 63 -5 -75 c-9 -109 -30 -202 -66 -283 -62 -143
-75 -243 -36 -292 12 -15 61 -53 108 -85 74 -48 104 -61 201 -86 96 -24 136
-29 254 -31 77 -1 161 -2 186 -3 59 -2 100 19 163 81 43 43 50 55 54 99 8 82
5 83 -180 75 -176 -8 -231 0 -269 41 -36 38 -28 81 36 213 75 153 150 265 228
337 49 47 90 72 194 120 l131 62 12 -62 c17 -82 37 -118 115 -206 128 -144
151 -202 99 -251 -22 -21 -36 -24 -104 -26 -42 -1 -96 -7 -119 -13 -56 -15
-109 -63 -117 -107 -9 -50 9 -81 64 -106 40 -18 66 -21 182 -22 149 0 217 14
329 65 34 17 67 27 73 24 5 -3 24 -39 42 -78 25 -54 46 -83 81 -112 26 -21 78
-65 114 -98 97 -85 105 -88 263 -76 157 12 215 24 244 51 19 18 20 25 12 77
-13 87 -27 96 -156 103 -59 3 -114 9 -123 13 -34 15 -57 78 -64 176 -3 52 -15
127 -25 165 -28 107 -53 272 -53 346 1 92 30 188 111 372 85 192 114 238 201
320 115 108 165 133 332 162 166 29 309 32 444 10 115 -19 196 -19 284 0 82
17 169 68 199 117 12 18 35 43 51 56 53 39 40 74 -54 147 -136 106 -173 145
-194 201 -12 30 -28 66 -37 79 -32 49 -289 223 -391 266 -34 14 -53 28 -57 42
-9 37 -61 91 -115 121 -101 54 -224 42 -237 -24 -4 -16 -8 -30 -11 -30 -2 0
-46 27 -99 60 -98 63 -163 84 -201 67z"/>
</g></g><g><path d="M70 700 l18 0 l-18 -78 l-18 78 Z M70 657 l13 0 l-13 -48 l-13 48 Z" fill="#15463f"/><path d="M930 700 l16 0 l-16 -66 l-16 66 Z M930 664 l12 0 l-12 -41 l-12 41 Z" fill="#15463f"/></g></svg>