<svg viewBox="0 0 804 380" xmlns="http://www.w3.org/2000/svg" font-family="Mulish, Helvetica, Arial, sans-serif">
<defs>
  <linearGradient id="sonar" x1="0" y1="0" x2="0" y2="1"><stop offset="0%" stop-color="#0e3a4a"/><stop offset="100%" stop-color="#176074"/></linearGradient>
  <radialGradient id="fishglow" cx="50%" cy="50%" r="50%"><stop offset="0%" stop-color="#ff7a45"/><stop offset="100%" stop-color="#ff7a45" stop-opacity="0"/></radialGradient>
  <marker id="arrow" viewBox="0 0 10 10" refX="8" refY="5" markerWidth="7" markerHeight="7" orient="auto-start-reverse"><path d="M0 1 L9 5 L0 9 Z" fill="#e29578"/></marker>
  <filter id="cardshadow" x="-20%" y="-20%" width="140%" height="150%"><feDropShadow dx="0" dy="5" stdDeviation="9" flood-color="#1c2b28" flood-opacity="0.08"/></filter>
  <pattern id="sonar-noise" width="7" height="7" patternUnits="userSpaceOnUse"><circle cx="1.5" cy="1.5" r="0.7" fill="#bfe0d6" opacity="0.16"/><circle cx="5" cy="4.5" r="0.6" fill="#bfe0d6" opacity="0.12"/></pattern>
  <style>
    .title { font-family: Newsreader, Georgia, 'Times New Roman', serif; font-size: 26px; font-weight: 600; fill: #161616; }
    .desc  { font-size: 15px; fill: #60626a; }
    .step  { font-size: 13px; font-weight: 700; letter-spacing: 0.12em; fill: #e29578; }
    .pill  { font-size: 11px; font-weight: 700; fill: #fff; }
    .synapse { stroke-dasharray: 3 6; animation: flow 0.8s linear infinite; }
    .node { animation: nodepulse 1.8s ease-in-out infinite; }
    .n1{animation-delay:-1.5s}.n2{animation-delay:-1.1s}.n3{animation-delay:-0.7s}.n4{animation-delay:-0.3s}
    .box { animation: boxpulse 2.2s ease-in-out infinite; } .box.b{animation-delay:-1.1s}
    @keyframes flow { to { stroke-dashoffset: -18; } }
    @keyframes nodepulse { 0%,100%{opacity:0.35} 50%{opacity:1} }
    @keyframes boxpulse { 0%,100%{opacity:0.55} 50%{opacity:1} }
    @media (prefers-reduced-motion: reduce) { * { animation: none !important; } }
  </style>
  <g id="smolt"><ellipse cx="0" cy="0" rx="20" ry="8" fill="url(#fishglow)" opacity="0.7"/><ellipse cx="0" cy="0" rx="10" ry="3.2" fill="#ff6a3d"/><path d="M-10 0 L-16 -3.4 L-13 0 L-16 3.4 Z" fill="#ff6a3d"/></g>
</defs>

<g stroke="#e29578" stroke-width="3.5" fill="none" stroke-linecap="round">
  <line x1="250" y1="134" x2="291" y2="134" marker-end="url(#arrow)"/>
  <line x1="509" y1="134" x2="550" y2="134" marker-end="url(#arrow)"/>
</g>

<!-- CARD 1 — the frame -->
<rect x="36" y="28" width="212" height="212" rx="20" fill="#fbf6f6" stroke="#ede0d4" stroke-width="2" filter="url(#cardshadow)"/>
<g transform="translate(142,128)">
  <clipPath id="c1"><rect x="-84" y="-72" width="168" height="144" rx="12"/></clipPath>
  <rect x="-84" y="-72" width="168" height="144" rx="12" fill="url(#sonar)"/>
  <g clip-path="url(#c1)">
    <rect x="-84" y="-72" width="168" height="144" fill="url(#sonar-noise)"/>
    <g stroke="#7fb6c4" stroke-width="1.4" fill="none" opacity="0.25"><path d="M-60 -40 A 75 75 0 0 1 60 -40"/><path d="M-72 20 A 95 95 0 0 1 72 20"/></g>
    <!-- noise specks + two fish -->
    <g fill="#9fb6bd" opacity="0.6"><circle cx="-46" cy="-30" r="2.4"/><circle cx="40" cy="-46" r="2"/><circle cx="54" cy="34" r="2.6"/><circle cx="-30" cy="48" r="2"/></g>
    <g transform="translate(-22,-6) scale(0.9)"><use href="#smolt"/></g>
    <g transform="translate(34,30) scale(0.78) rotate(18)"><use href="#smolt"/></g>
  </g>
</g>
<text class="step" x="142" y="280" text-anchor="middle">01</text>
<text class="title" x="142" y="312" text-anchor="middle">The frame</text>
<text class="desc"  x="142" y="338" text-anchor="middle">Noisy sonar echoes</text>

<!-- CARD 2 — the model -->
<rect x="295" y="28" width="212" height="212" rx="20" fill="#fbf6f6" stroke="#ede0d4" stroke-width="2" filter="url(#cardshadow)"/>
<g transform="translate(401,128)">
  <rect x="-66" y="-56" width="132" height="112" rx="14" fill="#006d77"/>
  <rect x="-66" y="-56" width="132" height="112" rx="14" fill="none" stroke="#0a7d86" stroke-width="3"/>
  <g fill="#0a7d86"><rect x="-74" y="-30" width="8" height="6" rx="2"/><rect x="-74" y="-6" width="8" height="6" rx="2"/><rect x="-74" y="18" width="8" height="6" rx="2"/><rect x="66" y="-30" width="8" height="6" rx="2"/><rect x="66" y="-6" width="8" height="6" rx="2"/><rect x="66" y="18" width="8" height="6" rx="2"/></g>
  <g stroke="#83c5be" stroke-width="1.4" opacity="0.6"><g class="synapse">
    <path d="M-38 -26 L0 -34 M-38 -26 L0 -2 M-38 -26 L0 30 M-38 0 L0 -34 M-38 0 L0 -2 M-38 0 L0 30 M-38 26 L0 -34 M-38 26 L0 -2 M-38 26 L0 30 M0 -34 L40 -16 M0 -34 L40 18 M0 -2 L40 -16 M0 -2 L40 18 M0 30 L40 -16 M0 30 L40 18"/>
  </g></g>
  <g fill="#bfe0d6"><circle class="node n1" cx="-38" cy="-26" r="6"/><circle class="node n2" cx="-38" cy="0" r="6"/><circle class="node n3" cx="-38" cy="26" r="6"/><circle class="node n4" cx="0" cy="-34" r="6"/><circle class="node n2" cx="0" cy="-2" r="6"/><circle class="node n3" cx="0" cy="30" r="6"/><circle class="node n1" cx="40" cy="-16" r="6"/><circle class="node n4" cx="40" cy="18" r="6"/></g>
</g>
<text class="step" x="401" y="280" text-anchor="middle">02</text>
<text class="title" x="401" y="312" text-anchor="middle">The model</text>
<text class="desc"  x="401" y="338" text-anchor="middle">Trained to know a smolt</text>

<!-- CARD 3 — the result -->
<rect x="554" y="28" width="212" height="212" rx="20" fill="#fbf6f6" stroke="#ede0d4" stroke-width="2" filter="url(#cardshadow)"/>
<g transform="translate(660,128)">
  <clipPath id="c3"><rect x="-84" y="-72" width="168" height="144" rx="12"/></clipPath>
  <rect x="-84" y="-72" width="168" height="144" rx="12" fill="url(#sonar)"/>
  <g clip-path="url(#c3)">
    <rect x="-84" y="-72" width="168" height="144" fill="url(#sonar-noise)"/>
    <g stroke="#7fb6c4" stroke-width="1.4" fill="none" opacity="0.25"><path d="M-60 -40 A 75 75 0 0 1 60 -40"/><path d="M-72 20 A 95 95 0 0 1 72 20"/></g>
    <g fill="#9fb6bd" opacity="0.5"><circle cx="-46" cy="-30" r="2.4"/><circle cx="40" cy="-46" r="2"/><circle cx="-30" cy="48" r="2"/></g>
    <g transform="translate(-22,-6) scale(0.9)"><use href="#smolt"/></g>
    <g transform="translate(34,30) scale(0.78) rotate(18)"><use href="#smolt"/></g>
  </g>
  <!-- detection boxes + score pills -->
  <rect class="box" x="-44" y="-22" width="46" height="32" rx="3" fill="none" stroke="#3fd07a" stroke-width="3"/>
  <g transform="translate(-21,-30)"><rect x="-28" y="-9" width="56" height="16" rx="8" fill="#1f9e5a"/><text class="pill" x="0" y="3" text-anchor="middle">smolt 0.94</text></g>
  <rect class="box b" x="16" y="18" width="42" height="28" rx="3" fill="none" stroke="#3fd07a" stroke-width="3"/>
  <g transform="translate(37,10)"><rect x="-28" y="-9" width="56" height="16" rx="8" fill="#1f9e5a"/><text class="pill" x="0" y="3" text-anchor="middle">smolt 0.88</text></g>
</g>
<text class="step" x="660" y="280" text-anchor="middle">03</text>
<text class="title" x="660" y="312" text-anchor="middle">The result</text>
<text class="desc"  x="660" y="338" text-anchor="middle">Each fish boxed + scored</text>
</svg>
