<svg viewBox="0 0 820 320" xmlns="http://www.w3.org/2000/svg" font-family="Mulish, Helvetica, Arial, sans-serif">
<defs>
  <linearGradient id="sonar" x1="0" y1="0" x2="0" y2="1"><stop offset="0%" stop-color="#0e3a4a"/><stop offset="100%" stop-color="#176074"/></linearGradient>
  <radialGradient id="fishglow" cx="50%" cy="50%" r="50%"><stop offset="0%" stop-color="#ff7a45"/><stop offset="100%" stop-color="#ff7a45" stop-opacity="0"/></radialGradient>
  <filter id="cardshadow" x="-20%" y="-20%" width="140%" height="150%"><feDropShadow dx="0" dy="5" stdDeviation="9" flood-color="#1c2b28" flood-opacity="0.08"/></filter>
  <pattern id="sonar-noise" width="7" height="7" patternUnits="userSpaceOnUse"><circle cx="1.5" cy="1.5" r="0.7" fill="#bfe0d6" opacity="0.14"/><circle cx="5" cy="4.5" r="0.6" fill="#bfe0d6" opacity="0.1"/></pattern>
  <style>
    .cap  { font-size: 14px; fill: #60626a; }
    .id   { font-size: 12px; font-weight: 800; fill: #fff; }
    .note { font-size: 12px; font-weight: 700; fill: #cfe9e0; letter-spacing: 0.03em; }
    .trk  { stroke-dasharray: 4 6; animation: flow 0.9s linear infinite; }
    .ring { transform-box: fill-box; transform-origin: 50% 50%; animation: ring 2.6s ease-out infinite; }
    @keyframes flow { to { stroke-dashoffset: -20; } }
    @keyframes ring { 0%{opacity:0.8; transform:scale(0.6)} 70%{opacity:0} 100%{opacity:0} }
    @media (prefers-reduced-motion: reduce) { * { animation: none !important; } }
  </style>
  <g id="smolt"><ellipse cx="0" cy="0" rx="20" ry="8" fill="url(#fishglow)" opacity="0.7"/><ellipse cx="0" cy="0" rx="10" ry="3.2" fill="#ff6a3d"/><path d="M-10 0 L-16 -3.4 L-13 0 L-16 3.4 Z" fill="#ff6a3d"/></g>
</defs>

<rect x="30" y="24" width="760" height="216" rx="16" fill="url(#sonar)" filter="url(#cardshadow)"/>
<clipPath id="cl"><rect x="30" y="24" width="760" height="216" rx="16"/></clipPath>
<g clip-path="url(#cl)">
  <rect x="30" y="24" width="760" height="216" fill="url(#sonar-noise)"/>
  <g transform="translate(410,132)">
    <!-- two tracks, crossing -->
    <polyline class="trk" points="-300,-52 40,22 270,64" fill="none" stroke="#83c5be" stroke-width="2.5" opacity="0.7"/>
    <polyline class="trk" points="-300,64 40,-22 270,-52" fill="none" stroke="#e29578" stroke-width="2.5" opacity="0.7"/>

    <!-- crossing marker -->
    <circle class="ring" cx="-18" cy="6" r="26" fill="none" stroke="#bfe0d6" stroke-width="2"/>

    <!-- fish #7 (teal track): ghost -> solid, left to right -->
    <g transform="translate(-300,-52) scale(0.8)" opacity="0.32"><use href="#smolt"/></g>
    <g transform="translate(40,22) scale(0.9)" opacity="0.6"><use href="#smolt"/></g>
    <g transform="translate(270,64)"><use href="#smolt"/></g>
    <g transform="translate(270,40)"><rect x="-16" y="-11" width="32" height="20" rx="6" fill="#0a7d86"/><text class="id" x="0" y="4" text-anchor="middle">#7</text></g>

    <!-- fish #8 (coral track) -->
    <g transform="translate(-300,64) scale(0.8)" opacity="0.32"><use href="#smolt"/></g>
    <g transform="translate(40,-22) scale(0.9)" opacity="0.6"><use href="#smolt"/></g>
    <g transform="translate(270,-52)"><use href="#smolt"/></g>
    <g transform="translate(270,-76)"><rect x="-16" y="-11" width="32" height="20" rx="6" fill="#0a7d86"/><text class="id" x="0" y="4" text-anchor="middle">#8</text></g>

    <text class="note" x="-18" y="-30" text-anchor="middle">paths cross — IDs kept</text>
  </g>
</g>
<text class="cap" x="410" y="270" text-anchor="middle">Detections are linked frame to frame into one track per fish — so each smolt is counted once</text>
</svg>
