<svg viewBox="0 0 1000 700" xmlns="http://www.w3.org/2000/svg" preserveAspectRatio="xMidYMid slice"><defs>
<linearGradient id="sky" x1="0" y1="0" x2="0" y2="1">
  <stop offset="0%" stop-color="#e4f1ee"/><stop offset="42%" stop-color="#f7ddd2"/>
  <stop offset="58%" stop-color="#f6d0c2"/><stop offset="74%" stop-color="#d3e9e0"/>
  <stop offset="100%" stop-color="#c2e1d7"/>
</linearGradient>
<linearGradient id="h1" x1="0" y1="0" x2="0" y2="1"><stop offset="0%" stop-color="#bfe0d6"/><stop offset="100%" stop-color="#a9d6c9"/></linearGradient>
<linearGradient id="h2" x1="0" y1="0" x2="0" y2="1"><stop offset="0%" stop-color="#88c8b9"/><stop offset="100%" stop-color="#6cb8a7"/></linearGradient>
<linearGradient id="h3" x1="0" y1="0" x2="0" y2="1"><stop offset="0%" stop-color="#4f9e8e"/><stop offset="100%" stop-color="#3a8576"/></linearGradient>
<linearGradient id="water" x1="0" y1="0" x2="0" y2="1">
  <stop offset="0%" stop-color="#bfeae3"/><stop offset="35%" stop-color="#73c6bd"/>
  <stop offset="70%" stop-color="#2f8f86"/><stop offset="100%" stop-color="#13524d"/>
</linearGradient>
</defs><rect width="1000" height="700" fill="url(#sky)"/><circle cx="800" cy="225" r="74" fill="#f6c7a9" opacity="0.5"/><circle cx="800" cy="225" r="52" fill="#ef9d78"/><path d="M0 430 C 180 380, 360 410, 560 388 C 760 366, 880 400, 1000 386 L1000 700 L0 700 Z" fill="url(#h1)"/><path d="M0 505 C 200 458, 380 492, 600 476 C 800 462, 900 492, 1000 478 L1000 700 L0 700 Z" fill="url(#h2)"/><g><path d="M120 500 l15 0 l-15 -46 l-15 46 Z M120 475 l11 0 l-11 -29 l-11 29 Z" fill="#2c7165"/><path d="M270 500 l15 0 l-15 -46 l-15 46 Z M270 475 l11 0 l-11 -29 l-11 29 Z" fill="#2c7165"/><path d="M420 500 l15 0 l-15 -46 l-15 46 Z M420 475 l11 0 l-11 -29 l-11 29 Z" fill="#2c7165"/><path d="M570 500 l15 0 l-15 -46 l-15 46 Z M570 475 l11 0 l-11 -29 l-11 29 Z" fill="#2c7165"/><path d="M720 500 l15 0 l-15 -46 l-15 46 Z M720 475 l11 0 l-11 -29 l-11 29 Z" fill="#2c7165"/><path d="M870 500 l15 0 l-15 -46 l-15 46 Z M870 475 l11 0 l-11 -29 l-11 29 Z" fill="#2c7165"/></g><path d="M0 595 C 220 552, 470 580, 720 564 C 860 555, 940 578, 1000 570 L1000 700 L0 700 Z" fill="url(#h3)"/><g transform="translate(366,545) scale(0.72)"><g fill="#aeb7ba" opacity="0.85"><circle cx="0" cy="-18" r="18"/><circle cx="14" cy="-46" r="24"/><circle cx="-11" cy="-82" r="30"/><circle cx="19" cy="-122" r="36"/><circle cx="-8" cy="-166" r="42"/><circle cx="11" cy="-212" r="48"/><circle cx="0" cy="-258" r="54"/></g><g fill="#cdd4d6" opacity="0.7"><circle cx="-4" cy="-22" r="11"/><circle cx="10" cy="-50" r="14"/><circle cx="-15" cy="-86" r="18"/><circle cx="15" cy="-126" r="22"/><circle cx="-12" cy="-170" r="25"/><circle cx="7" cy="-216" r="29"/><circle cx="-4" cy="-262" r="32"/></g></g><g transform="translate(360,562) scale(1.0)"><ellipse cx="0" cy="-16" rx="66" ry="44" fill="#f1a062" opacity="0.35"/><path d="M-30 0 C -36 -32 -10 -42 -18 -74 C -2 -50 8 -58 6 -84 C 16 -52 32 -46 26 0 Z" fill="#e3602f"/><path d="M-16 0 C -20 -22 -6 -30 -10 -52 C 0 -36 8 -42 6 -60 C 14 -38 22 -30 16 0 Z" fill="#f4a23c"/></g><g stroke="#e29578" stroke-width="4" fill="none" stroke-linecap="round" opacity="0.95"><path d="M250 273 L250 232 L291 232"/><path d="M453 232 L494 232 L494 273"/><path d="M250 543 L250 584 L291 584"/><path d="M453 584 L494 584 L494 543"/></g><g><path d="M60 700 l19 0 l-19 -82 l-19 82 Z M60 655 l14 0 l-14 -51 l-14 51 Z" fill="#15463f"/><path d="M150 700 l15 0 l-15 -60 l-15 60 Z M150 667 l11 0 l-11 -37 l-11 37 Z" fill="#15463f"/><path d="M900 700 l18 0 l-18 -76 l-18 76 Z M900 658 l13 0 l-13 -47 l-13 47 Z" fill="#15463f"/><path d="M960 700 l14 0 l-14 -58 l-14 58 Z M960 668 l10 0 l-10 -36 l-10 36 Z" fill="#15463f"/></g></svg>