<svg viewBox="0 0 1062 380" xmlns="http://www.w3.org/2000/svg" font-family="Mulish, Helvetica, Arial, sans-serif">
<defs>
  <linearGradient id="water" x1="0" y1="0" x2="0" y2="1"><stop offset="0%" stop-color="#7fc6cf"/><stop offset="100%" stop-color="#2f7e88"/></linearGradient>
  <linearGradient id="deep" x1="0" y1="0" x2="0" y2="1"><stop offset="0%" stop-color="#2f7e88"/><stop offset="100%" stop-color="#13505a"/></linearGradient>
  <marker id="arrow" viewBox="0 0 10 10" refX="8" refY="5" markerWidth="7" markerHeight="7" orient="auto-start-reverse"><path d="M0 1 L9 5 L0 9 Z" fill="#e29578"/></marker>
  <filter id="cardshadow" x="-20%" y="-20%" width="140%" height="150%"><feDropShadow dx="0" dy="5" stdDeviation="9" flood-color="#1c2b28" flood-opacity="0.08"/></filter>
  <style>
    .title { font-family: Newsreader, Georgia, 'Times New Roman', serif; font-size: 26px; font-weight: 600; fill: #161616; }
    .desc  { font-size: 15px; fill: #60626a; }
    .step  { font-size: 13px; font-weight: 700; letter-spacing: 0.12em; fill: #e29578; }
    .chip  { font-size: 12px; font-weight: 700; fill: #fff; }
    .swim  { transform-box: fill-box; transform-origin: 50% 50%; animation: swim 5s ease-in-out infinite; }
    .sway  { transform-box: fill-box; transform-origin: 50% 100%; animation: sway 3.4s ease-in-out infinite; }
    .mask  { animation: maskp 2.6s ease-in-out infinite; } .m2{animation-delay:-0.8s} .m3{animation-delay:-1.6s}
    .ring  { transform-box: fill-box; transform-origin: 50% 50%; animation: dash 2.4s linear infinite; }
    @keyframes swim { 0%,100%{transform:translate(-6px,0)} 50%{transform:translate(6px,-3px)} }
    @keyframes sway { 0%,100%{transform:rotate(-4deg)} 50%{transform:rotate(4deg)} }
    @keyframes maskp { 0%,100%{opacity:0.5} 50%{opacity:1} }
    @keyframes dash { to { stroke-dashoffset: -16; } }
    @media (prefers-reduced-motion: reduce) { * { animation: none !important; } }
  </style>
  <!-- coral colonies (local origin at colony base/centre) -->
  <g id="hardBoulder"><ellipse cx="0" cy="0" rx="20" ry="15" fill="#4f9aa2"/><g stroke="#2f7e88" stroke-width="1.6" fill="none" opacity="0.7"><path d="M-12 -4 Q0 -10 12 -4"/><path d="M-13 2 Q0 -3 13 3"/><path d="M-9 8 Q0 4 10 8"/></g></g>
  <g id="hardBranch"><g fill="#83c5be"><path d="M-2 14 L-2 -6 Q-2 -16 -10 -20 Q-6 -14 -6 -4 L-6 14 Z"/><path d="M0 14 L0 -10 Q0 -22 6 -26 Q2 -18 4 -8 L4 14 Z"/><path d="M2 14 L2 -2 Q4 -12 12 -14 Q6 -8 8 0 L6 14 Z"/></g></g>
  <g id="softCoral"><g class="sway" fill="#e29578"><circle cx="0" cy="-2" r="9"/><circle cx="-9" cy="3" r="7"/><circle cx="9" cy="4" r="7"/><circle cx="-3" cy="-12" r="6"/><circle cx="6" cy="-11" r="5"/></g></g>
  <!-- diver silhouette (faces right), local origin centre -->
  <g id="diver" fill="#15463f">
    <ellipse cx="0" cy="0" rx="22" ry="8"/>
    <circle cx="20" cy="-2" r="7"/><rect x="24" y="-5" width="6" height="5" rx="1.5"/>
    <path d="M-22 0 L-36 -8 L-30 0 L-36 8 Z"/>
    <rect x="2" y="6" width="12" height="9" rx="2"/><circle cx="8" cy="10.5" r="3" fill="#7fc6cf"/>
  </g>
</defs>

<g stroke="#e29578" stroke-width="3.5" fill="none" stroke-linecap="round">
  <line x1="250" y1="134" x2="291" y2="134" marker-end="url(#arrow)"/>
  <line x1="509" y1="134" x2="550" y2="134" marker-end="url(#arrow)"/>
  <line x1="768" y1="134" x2="809" y2="134" marker-end="url(#arrow)"/>
</g>

<!-- CARD 1 — CAPTURE -->
<rect x="36" y="28" width="212" height="212" rx="20" fill="#fbf6f6" stroke="#ede0d4" stroke-width="2" filter="url(#cardshadow)"/>
<g transform="translate(142,128)">
  <clipPath id="c1"><rect x="-90" y="-84" width="180" height="168" rx="12"/></clipPath>
  <g clip-path="url(#c1)">
    <rect x="-90" y="-84" width="180" height="168" fill="url(#water)"/>
    <!-- seabed corals -->
    <g transform="translate(-50,60)"><use href="#hardBoulder"/></g>
    <g transform="translate(2,54)"><use href="#hardBranch"/></g>
    <g transform="translate(54,64)"><use href="#softCoral"/></g>
    <!-- diver with camera -->
    <g class="swim"><g transform="translate(-6,-44) scale(0.9)"><use href="#diver"/></g></g>
    <!-- camera viewfinder framing the reef -->
    <g stroke="#fbf6f6" stroke-width="4" fill="none" stroke-linecap="round" opacity="0.9">
      <path d="M-72 40 L-72 24 L-56 24"/><path d="M56 24 L72 24 L72 40"/><path d="M-72 70 L-72 78 L-56 78"/><path d="M56 78 L72 78 L72 70"/>
    </g>
  </g>
</g>
<text class="step" x="142" y="280" text-anchor="middle">01</text>
<text class="title" x="142" y="312" text-anchor="middle">Capture</text>
<text class="desc"  x="142" y="338" text-anchor="middle">A diver photographs the reef</text>

<!-- CARD 2 — SEGMENT -->
<rect x="295" y="28" width="212" height="212" rx="20" fill="#fbf6f6" stroke="#ede0d4" stroke-width="2" filter="url(#cardshadow)"/>
<g transform="translate(401,128)">
  <clipPath id="c2"><rect x="-90" y="-84" width="180" height="168" rx="12"/></clipPath>
  <g clip-path="url(#c2)">
    <rect x="-90" y="-84" width="180" height="168" fill="url(#deep)"/>
    <g transform="translate(-46,6)"><use href="#hardBoulder"/></g>
    <g transform="translate(14,-22)"><use href="#hardBranch"/></g>
    <g transform="translate(40,40)"><use href="#softCoral"/></g>
    <g transform="translate(-34,52) scale(0.8)"><use href="#hardBoulder"/></g>
    <!-- instance outlines -->
    <g fill="none" stroke-linecap="round">
      <ellipse class="mask" cx="-46" cy="6" rx="26" ry="20" stroke="#7fe0d8" stroke-width="2.5" stroke-dasharray="5 4"/>
      <rect class="mask m2" x="-2" y="-46" width="34" height="46" rx="8" stroke="#7fe0d8" stroke-width="2.5" stroke-dasharray="5 4"/>
      <circle class="mask m3" cx="40" cy="38" r="22" stroke="#ffb38a" stroke-width="2.5" stroke-dasharray="5 4"/>
      <ellipse class="mask m2" cx="-34" cy="52" rx="18" ry="13" stroke="#7fe0d8" stroke-width="2.5" stroke-dasharray="5 4"/>
    </g>
  </g>
</g>
<text class="step" x="401" y="280" text-anchor="middle">02</text>
<text class="title" x="401" y="312" text-anchor="middle">Segment</text>
<text class="desc"  x="401" y="338" text-anchor="middle">Each colony outlined</text>

<!-- CARD 3 — CLASSIFY -->
<rect x="554" y="28" width="212" height="212" rx="20" fill="#fbf6f6" stroke="#ede0d4" stroke-width="2" filter="url(#cardshadow)"/>
<g transform="translate(660,128)">
  <clipPath id="c3"><rect x="-90" y="-84" width="180" height="168" rx="12"/></clipPath>
  <g clip-path="url(#c3)"><rect x="-90" y="-84" width="180" height="168" fill="url(#deep)"/></g>
  <!-- hard coral, teal label -->
  <g transform="translate(-42,-2) scale(1.2)"><use href="#hardBoulder"/></g>
  <ellipse cx="-42" cy="-2" rx="30" ry="22" fill="none" stroke="#7fe0d8" stroke-width="2.5"/>
  <g transform="translate(-42,-40)"><rect x="-30" y="-11" width="60" height="20" rx="10" fill="#13505a"/><text class="chip" x="0" y="4" text-anchor="middle">Hard</text></g>
  <!-- soft coral, coral label -->
  <g transform="translate(46,34) scale(1.15)"><use href="#softCoral"/></g>
  <circle cx="46" cy="34" r="24" fill="none" stroke="#ffb38a" stroke-width="2.5"/>
  <g transform="translate(46,68)"><rect x="-30" y="-11" width="60" height="20" rx="10" fill="#b85c3c"/><text class="chip" x="0" y="4" text-anchor="middle">Soft</text></g>
</g>
<text class="step" x="660" y="280" text-anchor="middle">03</text>
<text class="title" x="660" y="312" text-anchor="middle">Classify</text>
<text class="desc"  x="660" y="338" text-anchor="middle">Hard vs soft coral</text>

<!-- CARD 4 — MEASURE -->
<rect x="813" y="28" width="212" height="212" rx="20" fill="#fbf6f6" stroke="#ede0d4" stroke-width="2" filter="url(#cardshadow)"/>
<g transform="translate(919,128)">
  <!-- coral-cover donut -->
  <g transform="translate(0,-14)">
    <circle r="40" fill="none" stroke="#e4ded3" stroke-width="14"/>
    <circle class="ring" r="40" fill="none" stroke="#2f9aa2" stroke-width="14" stroke-linecap="round" stroke-dasharray="105 251" transform="rotate(-90)"/>
    <text x="0" y="-2" text-anchor="middle" font-size="26" font-weight="800" fill="#13505a" font-family="Mulish, Arial, sans-serif">42%</text>
    <text x="0" y="16" text-anchor="middle" font-size="11" font-weight="700" fill="#60626a">coral cover</text>
  </g>
  <!-- trend over years -->
  <g transform="translate(0,52)">
    <g stroke="#cdd4d6" stroke-width="1.5"><line x1="-64" y1="6" x2="64" y2="6"/></g>
    <polyline points="-58,2 -30,-4 -2,-2 26,-10 58,-14" fill="none" stroke="#e29578" stroke-width="3" stroke-linecap="round" stroke-linejoin="round"/>
    <g fill="#e29578"><circle cx="-58" cy="2" r="3"/><circle cx="-30" cy="-4" r="3"/><circle cx="-2" cy="-2" r="3"/><circle cx="26" cy="-10" r="3"/><circle cx="58" cy="-14" r="3"/></g>
    <text x="0" y="22" text-anchor="middle" font-size="10" fill="#80838b">tracked over years</text>
  </g>
</g>
<text class="step" x="919" y="280" text-anchor="middle">04</text>
<text class="title" x="919" y="312" text-anchor="middle">Measure</text>
<text class="desc"  x="919" y="338" text-anchor="middle">Coral cover, tracked</text>
</svg>
