<svg viewBox="0 0 804 380" xmlns="http://www.w3.org/2000/svg" font-family="Mulish, Helvetica, Arial, sans-serif">
<defs>
  <linearGradient id="deep" x1="0" y1="0" x2="0" y2="1"><stop offset="0%" stop-color="#2f7e88"/><stop offset="100%" stop-color="#13505a"/></linearGradient>
  <marker id="arrow" viewBox="0 0 10 10" refX="8" refY="5" markerWidth="7" markerHeight="7" orient="auto-start-reverse"><path d="M0 1 L9 5 L0 9 Z" fill="#e29578"/></marker>
  <filter id="cardshadow" x="-20%" y="-20%" width="140%" height="150%"><feDropShadow dx="0" dy="5" stdDeviation="9" flood-color="#1c2b28" flood-opacity="0.08"/></filter>
  <style>
    .title { font-family: Newsreader, Georgia, 'Times New Roman', serif; font-size: 26px; font-weight: 600; fill: #161616; }
    .desc  { font-size: 15px; fill: #60626a; }
    .step  { font-size: 13px; font-weight: 700; letter-spacing: 0.12em; fill: #e29578; }
    .chip  { font-size: 11px; font-weight: 700; fill: #fff; }
    .synapse { stroke-dasharray: 3 6; animation: flow 0.8s linear infinite; }
    .node { animation: nodepulse 1.8s ease-in-out infinite; }
    .n1{animation-delay:-1.5s}.n2{animation-delay:-1.1s}.n3{animation-delay:-0.7s}.n4{animation-delay:-0.3s}
    .mask { animation: maskp 2.6s ease-in-out infinite; } .m2{animation-delay:-0.9s} .m3{animation-delay:-1.7s}
    .sway { transform-box: fill-box; transform-origin: 50% 100%; animation: sway 3.4s ease-in-out infinite; }
    @keyframes flow { to { stroke-dashoffset: -18; } }
    @keyframes nodepulse { 0%,100%{opacity:0.35} 50%{opacity:1} }
    @keyframes maskp { 0%,100%{opacity:0.75} 50%{opacity:1} }
    @keyframes sway { 0%,100%{transform:rotate(-4deg)} 50%{transform:rotate(4deg)} }
    @media (prefers-reduced-motion: reduce) { * { animation: none !important; } }
  </style>
  <g id="hardBoulder"><ellipse cx="0" cy="0" rx="20" ry="15" fill="#4f9aa2"/><g stroke="#2f7e88" stroke-width="1.6" fill="none" opacity="0.7"><path d="M-12 -4 Q0 -10 12 -4"/><path d="M-13 2 Q0 -3 13 3"/><path d="M-9 8 Q0 4 10 8"/></g></g>
  <g id="hardBranch"><g fill="#83c5be"><path d="M-2 14 L-2 -6 Q-2 -16 -10 -20 Q-6 -14 -6 -4 L-6 14 Z"/><path d="M0 14 L0 -10 Q0 -22 6 -26 Q2 -18 4 -8 L4 14 Z"/><path d="M2 14 L2 -2 Q4 -12 12 -14 Q6 -8 8 0 L6 14 Z"/></g></g>
  <g id="softCoral"><g class="sway" fill="#e29578"><circle cx="0" cy="-2" r="9"/><circle cx="-9" cy="3" r="7"/><circle cx="9" cy="4" r="7"/><circle cx="-3" cy="-12" r="6"/><circle cx="6" cy="-11" r="5"/></g></g>
  <!-- the reef scene, reused in Photo + Map -->
  <g id="reef">
    <g transform="translate(-44,6)"><use href="#hardBoulder"/></g>
    <g transform="translate(16,-20)"><use href="#hardBranch"/></g>
    <g transform="translate(40,40)"><use href="#softCoral"/></g>
    <g transform="translate(-36,50) scale(0.8)"><use href="#hardBoulder"/></g>
  </g>
</defs>

<g stroke="#e29578" stroke-width="3.5" fill="none" stroke-linecap="round">
  <line x1="250" y1="134" x2="291" y2="134" marker-end="url(#arrow)"/>
  <line x1="509" y1="134" x2="550" y2="134" marker-end="url(#arrow)"/>
</g>

<!-- CARD 1 — PHOTO -->
<rect x="36" y="28" width="212" height="212" rx="20" fill="#fbf6f6" stroke="#ede0d4" stroke-width="2" filter="url(#cardshadow)"/>
<g transform="translate(142,128)">
  <clipPath id="c1"><rect x="-84" y="-72" width="168" height="144" rx="12"/></clipPath>
  <rect x="-84" y="-72" width="168" height="144" rx="12" fill="url(#deep)"/>
  <g clip-path="url(#c1)"><use href="#reef"/></g>
</g>
<text class="step" x="142" y="280" text-anchor="middle">01</text>
<text class="title" x="142" y="312" text-anchor="middle">Photo</text>
<text class="desc"  x="142" y="338" text-anchor="middle">A benthic image</text>

<!-- CARD 2 — MODEL -->
<rect x="295" y="28" width="212" height="212" rx="20" fill="#fbf6f6" stroke="#ede0d4" stroke-width="2" filter="url(#cardshadow)"/>
<g transform="translate(401,128)">
  <rect x="-66" y="-56" width="132" height="112" rx="14" fill="#006d77"/>
  <rect x="-66" y="-56" width="132" height="112" rx="14" fill="none" stroke="#0a7d86" stroke-width="3"/>
  <g fill="#0a7d86"><rect x="-74" y="-30" width="8" height="6" rx="2"/><rect x="-74" y="-6" width="8" height="6" rx="2"/><rect x="-74" y="18" width="8" height="6" rx="2"/><rect x="66" y="-30" width="8" height="6" rx="2"/><rect x="66" y="-6" width="8" height="6" rx="2"/><rect x="66" y="18" width="8" height="6" rx="2"/></g>
  <g stroke="#83c5be" stroke-width="1.4" opacity="0.6"><g class="synapse"><path d="M-38 -26 L0 -34 M-38 -26 L0 -2 M-38 -26 L0 30 M-38 0 L0 -34 M-38 0 L0 -2 M-38 0 L0 30 M-38 26 L0 -34 M-38 26 L0 -2 M-38 26 L0 30 M0 -34 L40 -16 M0 -34 L40 18 M0 -2 L40 -16 M0 -2 L40 18 M0 30 L40 -16 M0 30 L40 18"/></g></g>
  <g fill="#bfe0d6"><circle class="node n1" cx="-38" cy="-26" r="6"/><circle class="node n2" cx="-38" cy="0" r="6"/><circle class="node n3" cx="-38" cy="26" r="6"/><circle class="node n4" cx="0" cy="-34" r="6"/><circle class="node n2" cx="0" cy="-2" r="6"/><circle class="node n3" cx="0" cy="30" r="6"/><circle class="node n1" cx="40" cy="-16" r="6"/><circle class="node n4" cx="40" cy="18" r="6"/></g>
</g>
<text class="step" x="401" y="280" text-anchor="middle">02</text>
<text class="title" x="401" y="312" text-anchor="middle">Model</text>
<text class="desc"  x="401" y="338" text-anchor="middle">The segmentation model</text>

<!-- CARD 3 — MAP -->
<rect x="554" y="28" width="212" height="212" rx="20" fill="#fbf6f6" stroke="#ede0d4" stroke-width="2" filter="url(#cardshadow)"/>
<g transform="translate(660,128)">
  <clipPath id="c3"><rect x="-84" y="-72" width="168" height="144" rx="12"/></clipPath>
  <rect x="-84" y="-72" width="168" height="144" rx="12" fill="url(#deep)"/>
  <g clip-path="url(#c3)">
    <use href="#reef"/>
    <!-- segmentation masks: filled + outlined, hard = teal, soft = coral -->
    <g class="mask"><ellipse cx="-44" cy="6" rx="24" ry="18" fill="#7fe0d8" opacity="0.4"/><ellipse cx="-44" cy="6" rx="24" ry="18" fill="none" stroke="#7fe0d8" stroke-width="2.5"/></g>
    <g class="mask m2"><rect x="0" y="-44" width="32" height="44" rx="9" fill="#7fe0d8" opacity="0.4"/><rect x="0" y="-44" width="32" height="44" rx="9" fill="none" stroke="#7fe0d8" stroke-width="2.5"/></g>
    <g class="mask m3"><circle cx="40" cy="40" r="21" fill="#ffb38a" opacity="0.4"/><circle cx="40" cy="40" r="21" fill="none" stroke="#ffb38a" stroke-width="2.5"/></g>
    <g class="mask m2"><ellipse cx="-36" cy="50" rx="17" ry="12" fill="#7fe0d8" opacity="0.4"/><ellipse cx="-36" cy="50" rx="17" ry="12" fill="none" stroke="#7fe0d8" stroke-width="2.5"/></g>
  </g>
  <!-- cover chip -->
  <g transform="translate(46,-58)"><rect x="-34" y="-12" width="68" height="22" rx="11" fill="#13505a"/><text class="chip" x="0" y="4" text-anchor="middle">42% cover</text></g>
</g>
<text class="step" x="660" y="280" text-anchor="middle">03</text>
<text class="title" x="660" y="312" text-anchor="middle">Map</text>
<text class="desc"  x="660" y="338" text-anchor="middle">Each colony mapped</text>
</svg>
