<svg viewBox="0 0 804 380" xmlns="http://www.w3.org/2000/svg" font-family="Mulish, Helvetica, Arial, sans-serif">
<defs>
  <linearGradient id="panel" x1="0" y1="0" x2="0" y2="1"><stop offset="0%" stop-color="#0e3a4a"/><stop offset="100%" stop-color="#176074"/></linearGradient>
  <marker id="arrow" viewBox="0 0 10 10" refX="8" refY="5" markerWidth="7" markerHeight="7" orient="auto-start-reverse"><path d="M0 1 L9 5 L0 9 Z" fill="#e29578"/></marker>
  <filter id="cardshadow" x="-20%" y="-20%" width="140%" height="150%"><feDropShadow dx="0" dy="5" stdDeviation="9" flood-color="#1c2b28" flood-opacity="0.08"/></filter>
  <style>
    .title { font-family: Newsreader, Georgia, 'Times New Roman', serif; font-size: 26px; font-weight: 600; fill: #161616; }
    .desc  { font-size: 15px; fill: #60626a; }
    .step  { font-size: 13px; font-weight: 700; letter-spacing: 0.12em; fill: #e29578; }
    .chip  { font-size: 12px; font-weight: 700; fill: #fff; }
    .bar   { animation: barp 2.4s ease-in-out infinite; }
    .b2{animation-delay:-0.4s}.b3{animation-delay:-0.8s}.b4{animation-delay:-1.2s}.b5{animation-delay:-1.6s}
    .match { animation: glow 2.4s ease-in-out infinite; }
    .wsk   { animation: barp 3s ease-in-out infinite; }
    @keyframes barp { 0%,100%{opacity:0.55} 50%{opacity:1} }
    @keyframes glow { 0%,100%{opacity:0.6} 50%{opacity:1} }
    @media (prefers-reduced-motion: reduce) { * { animation: none !important; } }
  </style>
  <!-- seal face: rounded head, eyes, snout, whiskers, coat spots -->
  <g id="face">
    <path d="M0 -32 C 22 -32 28 -10 25 9 C 21 29 11 38 0 38 C -11 38 -21 29 -25 9 C -28 -10 -22 -32 0 -32 Z" fill="#828990"/>
    <g fill="#626a6f" opacity="0.6"><circle cx="-12" cy="-12" r="2.4"/><circle cx="10" cy="-15" r="2"/><circle cx="-5" cy="3" r="2"/><circle cx="14" cy="1" r="2.2"/><circle cx="3" cy="-21" r="1.8"/></g>
    <ellipse cx="-10" cy="-7" rx="3.8" ry="4.8" fill="#1f2426"/><ellipse cx="10" cy="-7" rx="3.8" ry="4.8" fill="#1f2426"/>
    <circle cx="-8.6" cy="-9" r="1.1" fill="#fff" opacity="0.85"/><circle cx="11.4" cy="-9" r="1.1" fill="#fff" opacity="0.85"/>
    <path d="M0 13 C 5 13 6 19 0 21 C -6 19 -5 13 0 13 Z" fill="#2a2f31"/>
    <g class="wsk" stroke="#e6ebed" stroke-width="1" opacity="0.85" stroke-linecap="round"><path d="M-5 17 L-28 12"/><path d="M-5 19 L-27 20"/><path d="M-5 21 L-25 28"/><path d="M5 17 L28 12"/><path d="M5 19 L27 20"/><path d="M5 21 L25 28"/></g>
  </g>
  <!-- a small fingerprint (feature vector as bars) -->
  <g id="fp"><g fill="#bfe0d6"><rect x="-30" y="-4" width="4" height="8" rx="1"/><rect x="-23" y="-9" width="4" height="18" rx="1"/><rect x="-16" y="-6" width="4" height="12" rx="1"/><rect x="-9" y="-11" width="4" height="22" rx="1"/><rect x="-2" y="-5" width="4" height="10" rx="1"/><rect x="5" y="-10" width="4" height="20" rx="1"/><rect x="12" y="-7" width="4" height="14" rx="1"/><rect x="19" y="-9" width="4" height="18" rx="1"/><rect x="26" y="-4" width="4" height="8" rx="1"/></g></g>
</defs>

<g stroke="#e29578" stroke-width="3.5" fill="none" stroke-linecap="round">
  <line x1="250" y1="134" x2="291" y2="134" marker-end="url(#arrow)"/>
  <line x1="509" y1="134" x2="550" y2="134" marker-end="url(#arrow)"/>
</g>

<!-- CARD 1 — A FACE -->
<rect x="36" y="28" width="212" height="212" rx="20" fill="#fbf6f6" stroke="#ede0d4" stroke-width="2" filter="url(#cardshadow)"/>
<g transform="translate(142,128)">
  <circle r="66" fill="#eef3f1" stroke="#cdd4d6" stroke-width="2"/>
  <g transform="translate(0,2) scale(1.25)"><use href="#face"/></g>
</g>
<text class="step" x="142" y="280" text-anchor="middle">01</text>
<text class="title" x="142" y="312" text-anchor="middle">A face</text>
<text class="desc"  x="142" y="338" text-anchor="middle">Unique whiskers &amp; spots</text>

<!-- CARD 2 — A FINGERPRINT -->
<rect x="295" y="28" width="212" height="212" rx="20" fill="#fbf6f6" stroke="#ede0d4" stroke-width="2" filter="url(#cardshadow)"/>
<g transform="translate(401,128)">
  <rect x="-78" y="-58" width="156" height="116" rx="14" fill="url(#panel)"/>
  <!-- tall feature vector / fingerprint -->
  <g>
    <rect class="bar"    x="-58" y="-8" width="9" height="16" rx="2" fill="#bfe0d6"/>
    <rect class="bar b2" x="-44" y="-26" width="9" height="52" rx="2" fill="#83c5be"/>
    <rect class="bar b3" x="-30" y="-16" width="9" height="32" rx="2" fill="#bfe0d6"/>
    <rect class="bar b4" x="-16" y="-32" width="9" height="64" rx="2" fill="#e29578"/>
    <rect class="bar b5" x="-2"  y="-12" width="9" height="24" rx="2" fill="#83c5be"/>
    <rect class="bar b2" x="12"  y="-28" width="9" height="56" rx="2" fill="#bfe0d6"/>
    <rect class="bar b3" x="26"  y="-18" width="9" height="36" rx="2" fill="#83c5be"/>
    <rect class="bar b4" x="40"  y="-24" width="9" height="48" rx="2" fill="#bfe0d6"/>
  </g>
  <text class="chip" x="0" y="46" text-anchor="middle" font-size="10" fill="#cfe9e0" letter-spacing="0.06em">FINGERPRINT</text>
</g>
<text class="step" x="401" y="280" text-anchor="middle">02</text>
<text class="title" x="401" y="312" text-anchor="middle">A fingerprint</text>
<text class="desc"  x="401" y="338" text-anchor="middle">The model encodes it</text>

<!-- CARD 3 — A MATCH -->
<rect x="554" y="28" width="212" height="212" rx="20" fill="#fbf6f6" stroke="#ede0d4" stroke-width="2" filter="url(#cardshadow)"/>
<g transform="translate(660,128)">
  <rect x="-80" y="-60" width="160" height="120" rx="12" fill="url(#panel)"/>
  <text class="chip" x="-66" y="-44" font-size="10" fill="#cfe9e0" letter-spacing="0.08em">DATABASE</text>
  <!-- database rows -->
  <g transform="translate(0,-22)">
    <g><rect x="-66" y="-12" width="132" height="22" rx="6" fill="#0a4a55"/><g transform="translate(-40,-1) scale(0.46)"><use href="#fp"/></g><text class="chip" x="40" y="3" text-anchor="end" font-size="11" fill="#9fc3c0">#017</text></g>
  </g>
  <g transform="translate(0,8)" class="match">
    <rect x="-68" y="-13" width="136" height="24" rx="6" fill="#0a7d86" stroke="#3fd07a" stroke-width="2.5"/>
    <g transform="translate(-40,-1) scale(0.46)"><use href="#fp"/></g>
    <text class="chip" x="30" y="3" text-anchor="end">#042</text>
    <circle cx="50" cy="0" r="9" fill="#3fd07a"/><path d="M46 0 L49 3 L54 -3" stroke="#fff" stroke-width="1.8" fill="none"/>
  </g>
  <g transform="translate(0,38)">
    <g><rect x="-66" y="-12" width="132" height="22" rx="6" fill="#0a4a55"/><g transform="translate(-40,-1) scale(0.46)"><use href="#fp"/></g><text class="chip" x="40" y="3" text-anchor="end" font-size="11" fill="#9fc3c0">#103</text></g>
  </g>
  <g transform="translate(0,56)"><rect x="-40" y="-10" width="80" height="20" rx="10" fill="#15463f"/><text class="chip" x="0" y="4" text-anchor="middle" font-size="11">0.97 match</text></g>
</g>
<text class="step" x="660" y="280" text-anchor="middle">03</text>
<text class="title" x="660" y="312" text-anchor="middle">A match</text>
<text class="desc"  x="660" y="338" text-anchor="middle">Same seal, seasons later</text>
</svg>
