<?xml version="1.0" encoding="UTF-8"?>
<svg width="150px" height="115px" viewBox="0 0 150 115" version="1.1" xmlns="http://www.w3.org/2000/svg" xmlns:xlink="http://www.w3.org/1999/xlink">
    <!-- Generator: Sketch 61.2 (89653) - https://sketch.com -->
    <title>sovon-logo</title>
    <desc>Created with Sketch.</desc>
    <defs>
        <polygon id="path-1" points="0 0.198443515 29.2900825 0.198443515 29.2900825 8.74432353 0 8.74432353"></polygon>
    </defs>
    <g id="Page-1" stroke="none" stroke-width="1" fill="none" fill-rule="evenodd">
        <g id="01a.-Vogelinfo-detailpagina---Kleur" transform="translate(-181.000000, -10.000000)">
            <g id="Top" transform="translate(-77.000000, -55.000000)">
                <g id="Layout-/-Header">
                    <g id="sovon-logo" transform="translate(258.000000, 65.000000)">
                        <path d="M84.1117281,106.257393 C82.7200317,106.670958 81.3628929,107.1758 80.0459462,107.768915 C79.1365543,109.929519 77.4173115,111.017333 74.8807053,111.017333 C74.7255715,111.017333 74.5798284,111.006064 74.4299534,110.997801 C73.3365044,111.779855 72.2877551,112.632903 71.2878372,113.552061 C72.3448503,113.885242 73.5367134,114.061787 74.8807053,114.061787 C80.2149781,114.061787 83.2857253,111.453436 84.1117281,106.257393" id="Fill-1" fill="#F39200"></path>
                        <path d="M80.1907878,107.395617 C81.4795625,106.830675 82.8058999,106.348746 84.1611606,105.951333 C84.2745998,105.137726 84.3343244,104.265145 84.341837,103.328708 C83.1529789,103.459426 81.9690039,103.614184 80.7921659,103.790729 C80.7470907,105.196699 80.5480086,106.400582 80.1907878,107.395617" id="Fill-3" fill="#1D1D1B"></path>
                        <path d="M70.9794853,113.452069 C71.9410893,112.55883 72.9485198,111.728319 73.9957666,110.962041 C71.469678,110.673935 69.9029396,109.105694 69.2921708,106.258445 C68.1498904,106.577352 67.0154982,106.918421 65.8882428,107.280525 C66.6252221,110.448559 68.3211761,112.507369 70.9794853,113.452069" id="Fill-5" fill="#1D1D1B"></path>
                        <path d="M75.2605013,92.3036177 C75.0144659,93.3380932 74.6703919,94.3398893 74.272979,95.3210259 C74.4720611,95.3063764 74.6722701,95.294732 74.8807428,95.294732 C78.8315831,95.294732 80.8073788,97.9147273 80.8073788,103.155845 C80.8073788,103.276421 80.8013688,103.388733 80.7998663,103.506304 C81.9744505,103.331638 83.1565473,103.178007 84.3439029,103.046162 C84.3131015,96.0264526 81.2802926,92.4497364 75.2605013,92.3036177" id="Fill-7" fill="#00637D"></path>
                        <path d="M68.9955385,103.155695 C68.9955385,103.068925 69.000046,102.989292 69.0011729,102.905152 C67.9404034,103.870136 66.7917374,104.701773 65.5758342,105.405322 C65.6359345,105.965381 65.7163185,106.5014 65.8218696,107.007369 C66.9517543,106.644514 68.0899028,106.30307 69.2348126,105.983036 C69.0778007,105.14351 68.9955385,104.204444 68.9955385,103.155695" id="Fill-9" fill="#00637D"></path>
                        <path d="M73.9584669,95.3539308 C74.3690268,94.3615254 74.719862,93.3428261 74.972283,92.2933255 C74.9407304,92.2933255 74.9118071,92.2895692 74.8810058,92.2895692 C68.5971489,92.2895692 65.4561596,95.9121118 65.4561596,103.155695 C65.4561596,103.839335 65.4925954,104.480154 65.5485637,105.099186 C66.7798676,104.376481 67.94431,103.524184 69.0103382,102.527271 C69.1527006,98.1226742 70.8005744,95.7325623 73.9584669,95.3539308" id="Fill-11" fill="#00637D"></path>
                        <path d="M93.6225552,104.586682 C93.8982651,104.586682 94.1705944,104.600955 94.4444262,104.607341 L93.7393751,102.752497 C92.522345,102.767522 91.3008074,102.798323 90.0879092,102.859926 L90.8350305,104.714019 C91.1858657,104.685096 91.5367009,104.649411 91.8894143,104.63063 C92.4644985,104.600955 93.0470953,104.586682 93.6225552,104.586682" id="Fill-13" fill="#1D1D1B"></path>
                        <path d="M88.0160282,97.7082078 C87.9795924,96.3416784 87.933766,94.9732708 87.8642751,93.6029851 C87.8530063,93.397893 87.8353518,93.1950546 87.8240831,92.9892113 L86.1161091,92.9892113 L88.0160282,97.7082078 Z" id="Fill-15" fill="#00637D"></path>
                        <path d="M94.552231,104.890789 C94.2415878,104.881398 93.9331984,104.866373 93.6225552,104.866373 C93.0527297,104.866373 92.4757673,104.881398 91.9033124,104.910321 C91.5825273,104.927225 91.2643716,104.961031 90.9447134,104.986949 L94.4297767,113.649273 L94.5830324,113.649273 C95.1592435,112.096809 95.6577,110.515045 96.0814067,108.911871 L94.552231,104.890789 Z" id="Fill-17" fill="#F39200"></path>
                        <path d="M97.9409461,104.886018 C99.006223,105.023498 100.058353,105.206052 101.089072,105.442697 L102.084483,103.019906 C100.970374,102.935765 99.8498803,102.876792 98.7263812,102.832844 L97.9409461,104.886018 Z" id="Fill-19" fill="#1D1D1B"></path>
                        <path d="M88.1038873,92.9892113 C88.1140292,93.1894202 88.1328105,93.3885023 88.1440793,93.5890869 C88.2263415,95.2136718 88.2808074,96.8345004 88.3149894,98.4545778 L89.9782638,102.584968 C89.9887814,102.584968 89.9977964,102.584216 90.0090652,102.583465 C91.2129484,102.520735 92.424344,102.489558 93.6338616,102.473031 L90.0252172,92.9892113 L88.1038873,92.9892113 Z" id="Fill-21" fill="#00637D"></path>
                        <path d="M98.8323455,102.557058 C99.9584739,102.602134 101.080095,102.66261 102.196081,102.748628 L106.200261,92.9894742 L102.49508,92.9894742 L98.8323455,102.557058 Z" id="Fill-23" fill="#00637D"></path>
                        <path d="M96.2939362,109.186642 C95.8897621,110.697412 95.4164726,112.185269 94.875946,113.649461 L97.7220685,113.649461 L100.981005,105.707213 C99.9510365,105.47132 98.9026628,105.289892 97.8388883,105.154666 L96.2939362,109.186642 Z" id="Fill-25" fill="#F39200"></path>
                        <path d="M111.673703,103.155695 C111.673703,97.9149527 113.634098,95.2949574 117.558269,95.2949574 C121.50986,95.2949574 123.484529,97.9149527 123.484529,103.155695 C123.484529,104.539127 123.344045,105.734371 123.068335,106.751943 C124.202727,107.107662 125.328104,107.483664 126.444091,107.880326 C126.829484,106.527694 127.02481,104.953443 127.02481,103.155695 C127.02481,95.9121118 123.868044,92.2895692 117.558269,92.2895692 C111.275163,92.2895692 108.133423,95.9121118 108.133423,103.155695 C108.133423,103.239084 108.140935,103.314585 108.140935,103.397222 C109.331671,103.564376 110.515646,103.755195 111.692484,103.966672 C111.681216,103.702982 111.673703,103.435536 111.673703,103.155695" id="Fill-27" fill="#00637D"></path>
                        <path d="M108.84054,108.274921 C111.785076,109.793204 114.474187,111.740452 116.827487,114.034779 C117.069015,114.047175 117.307538,114.061824 117.558081,114.061824 C122.201952,114.061824 125.132591,112.085653 126.357885,108.147584 C125.243776,107.752049 124.122531,107.376047 122.989641,107.021455 C122.177912,109.680891 120.373402,111.017371 117.558081,111.017371 C113.920513,111.017371 111.971011,108.760231 111.708449,104.253839 C110.527854,104.040483 109.342752,103.847786 108.147509,103.680633 C108.185823,105.434433 108.416833,106.965487 108.84054,108.274921" id="Fill-29" fill="#1D1D1B"></path>
                        <path d="M116.396381,114.016974 C114.189199,111.906704 111.693161,110.101819 108.973249,108.666925 C110.16699,111.932247 112.636359,113.720605 116.396381,114.016974" id="Fill-31" fill="#F39200"></path>
                        <path d="M132.209546,113.444557 L135.665686,113.444557 L135.665686,112.019054 C134.528288,111.470264 133.373237,110.947392 132.209546,110.442925 L132.209546,113.444557 Z" id="Fill-33" fill="#1D1D1B"></path>
                        <path d="M146.078918,113.444557 L147.547242,113.444557 C147.067567,112.89464 146.567232,112.366133 146.078918,111.82448 L146.078918,113.444557 Z" id="Fill-35" fill="#00637D"></path>
                        <path d="M132.209546,110.139118 C133.373237,110.640204 134.528288,111.157442 135.665686,111.703979 L135.665686,101.415943 C134.528288,100.393487 133.380374,99.3834272 132.209546,98.3996612 L132.209546,110.139118 Z" id="Fill-37" fill="#00637D"></path>
                        <path d="M141.388168,92.2896819 C138.34071,92.2896819 135.281983,92.6611766 132.209358,93.4019122 L132.209358,97.9447399 C133.380561,98.9221202 134.529979,99.9257944 135.665498,100.938859 L135.665498,96.0771246 C136.54484,95.8851794 137.436201,95.7477001 138.34071,95.6654379 C139.24597,95.5839269 140.138459,95.5418567 141.016674,95.5418567 C142.882035,95.5418567 144.212129,96.116941 145.008833,97.2693633 C145.720645,98.3124783 146.078993,99.9588495 146.078993,102.209228 L146.078993,111.275351 C146.730705,111.993925 147.385422,112.711371 148.020607,113.444595 L149.577203,113.444595 L149.577203,101.014736 C149.577203,95.1977828 146.846022,92.2896819 141.388168,92.2896819" id="Fill-39" fill="#00637D"></path>
                        <path d="M61.020423,107.031748 C61.1158322,106.505119 61.1766837,105.958958 61.1766837,105.377113 C61.1766837,102.60574 60.0783516,100.454526 57.8831899,98.9159599 C57.1702507,98.4227622 55.7158247,97.7774358 53.520663,96.9833612 C51.2984562,96.1310646 49.7212003,95.3914559 48.7888951,94.7600276 C47.2788763,93.7458359 46.5253695,92.5505921 46.5253695,91.1791795 C46.5253695,89.6977084 47.0658961,88.5595599 48.1499544,87.7624803 C49.2340126,86.9684057 50.6952,86.5698659 52.533892,86.5698659 C54.1802633,86.5698659 55.7710418,86.8309264 57.3069788,87.3519205 L57.6784735,84.3886025 C55.8664509,83.731256 53.9593948,83.3999534 51.9576809,83.3999534 C49.4323435,83.3999534 47.3333422,84.0997456 45.6610527,85.4989546 C43.8772022,86.9808014 42.9858403,88.9299277 42.9858403,91.3429527 C42.9858403,94.0602353 44.0961924,96.1592366 46.3183992,97.6410834 C47.0320897,98.1087384 48.5278347,98.7792319 50.8052586,99.6574468 C52.9726238,100.454526 54.4811401,101.194135 55.3323099,101.878902 C56.7037225,102.922017 57.389241,104.22469 57.389241,105.790677 C57.389241,106.505119 57.2592742,107.142933 57.0124876,107.712007 C58.3846514,107.627491 59.7241357,107.394603 61.020423,107.031748" id="Fill-41" fill="#00637D"></path>
                        <path d="M60.9677977,107.341339 C59.6433385,107.703443 58.2756821,107.932575 56.8757219,108.007325 C56.5154961,108.682701 55.969335,109.248771 55.2293507,109.699523 C53.7891984,110.578864 51.7931189,111.017221 49.2403607,111.017221 C46.7721185,111.017221 44.4109299,110.604031 42.1628049,109.781785 L41.7920615,112.909627 C43.9921063,113.669144 46.5448645,114.052659 49.4462041,114.059044 C52.9864845,112.112548 56.6492191,110.403822 60.4141242,108.932493 C60.6537739,108.434788 60.8434654,107.907408 60.9677977,107.341339" id="Fill-43" fill="#00637D"></path>
                        <path d="M60.2367158,109.300908 C56.7448912,110.677955 53.3394607,112.259342 50.0403326,114.048827 C53.0708878,113.980463 55.5804488,113.318234 57.5551177,112.045235 C58.7409708,111.303748 59.6334595,110.387971 60.2367158,109.300908" id="Fill-45" fill="#1D1D1B"></path>
                        <path d="M76.2079817,48.9464705 C76.0258029,49.8614968 75.7786406,50.7637518 75.4698755,51.6460986 C76.4352358,50.3644608 77.7916233,49.4178818 79.3320679,48.9735156 L79.3301898,48.9735156 L79.3226772,48.9269379 C78.241624,48.8687158 77.2623655,48.8837409 76.2079817,48.9464705" id="Fill-47" fill="#1D1D1B"></path>
                        <path d="M74.100604,54.7330729 C73.2693424,56.2521067 72.2468869,57.6607063 71.04676,58.9393392 C72.1909185,58.8841221 73.3478484,58.84393 74.4728499,58.8048648 C74.1847444,58.0584949 74.0164637,57.2854554 73.9770229,56.5045278 C73.9462215,55.9099109 73.9882917,55.3149184 74.100604,54.7330729" id="Fill-49" fill="#91989C"></path>
                        <path d="M85.679368,72.34316 C88.3797474,73.2063498 91.0230316,74.1371525 93.5419833,75.1126547 C92.1082167,71.8191609 90.2973211,68.6402333 88.1543715,65.655129 C87.4218997,65.5375579 86.6747784,65.3982004 85.9347941,65.2419398 C85.3285328,65.1822151 84.7327891,65.0443602 84.1791155,64.8385168 L84.134416,64.8276237 C84.6982315,67.2838458 85.2192255,69.8110613 85.679368,72.34316" id="Fill-51" fill="#00637D"></path>
                        <path d="M87.4369999,65.2486259 C87.5996462,65.2775492 87.7626681,65.3045943 87.9241875,65.3327663 C87.891508,65.2861886 87.8588285,65.2403621 87.826149,65.1934088 C87.6867915,65.2166977 87.5594541,65.2336008 87.4369999,65.2486259" id="Fill-53" fill="#00637D"></path>
                        <path d="M62.1680373,67.0561409 C63.1277632,67.1853565 64.0901185,67.3235871 65.0487174,67.4712083 C64.9750946,67.2807656 64.9041012,67.0888205 64.8357372,66.8953728 C64.2820636,66.9532193 63.7629477,66.9934113 63.2502174,67.0197052 C62.8899916,67.0373596 62.5282632,67.0505065 62.1680373,67.0561409" id="Fill-55" fill="#00637D"></path>
                        <path d="M52.3835663,66.1133934 C53.141205,66.1592198 53.9296452,66.2151882 54.7620337,66.282801 C54.0934184,66.1291697 53.4293106,65.9526252 52.7727154,65.7550456 C52.6434998,65.8748705 52.5135331,65.9946954 52.3835663,66.1133934" id="Fill-57" fill="#BEC3C6"></path>
                        <path d="M65.3683757,67.521993 C72.081198,68.5790062 78.8094211,70.1671553 85.3765003,72.246624 C84.9144797,69.7209109 84.3934856,67.2004567 83.8266651,64.7513715 C81.7002431,64.1984492 79.5952319,63.49152 77.5709803,62.6478627 C73.7527362,64.9497023 69.5660025,66.3688195 65.1223403,66.8653978 C65.2019731,67.0851393 65.2842353,67.3048809 65.3683757,67.521993" id="Fill-59" fill="#00637D"></path>
                        <path d="M80.7266942,63.5348297 C81.4497753,63.778987 82.1792421,64.0043629 82.9135921,64.2128357 C82.5841676,64.0111242 82.2739,63.7838701 81.9839163,63.5322003 L81.9380899,63.5374591 C81.8791165,63.5449716 81.8227725,63.5517329 81.7622966,63.5543623 C81.4152177,63.5738949 81.0700169,63.5656311 80.7266942,63.5348297" id="Fill-61" fill="#00637D"></path>
                        <path d="M53.0101114,65.5325245 C54.8172508,66.0666654 56.6784804,66.4340282 58.5475982,66.6240953 L58.6129572,66.6304809 C60.1289861,66.7811072 61.6893388,66.8167917 63.2354178,66.7401639 C63.7237323,66.7146213 64.2165544,66.6763074 64.7405534,66.6229684 C64.4287834,65.7158302 64.1662204,64.7891595 63.9547426,63.860235 C61.7922605,64.7579825 59.4994359,65.2752203 57.1378717,65.3957964 C55.8798983,65.4634092 54.5956311,65.4081921 53.3245108,65.2350282 L53.1626158,65.3894107 C53.1111549,65.4363641 53.0604453,65.4848199 53.0101114,65.5325245" id="Fill-63" fill="#BEC3C6"></path>
                        <path d="M64.21693,63.7484861 C64.432164,64.705207 64.7041176,65.6604253 65.0271565,66.5931061 C69.3855515,66.1149335 73.4967843,64.7427696 77.2492937,62.5130503 C75.0950753,61.5946434 72.9652727,60.4906769 70.9188592,59.2270691 L70.7656035,59.2364598 C68.8758263,61.170561 66.674279,62.6888435 64.21693,63.7484861" id="Fill-65" fill="#BEC3C6"></path>
                        <path d="M71.4170903,59.2035549 C73.2099559,60.2894913 75.0647998,61.2529734 76.9433083,62.0740931 C75.9197259,61.3014293 75.0997331,60.2631974 74.588881,59.0811006 C73.5468929,59.1175364 72.4778597,59.1539722 71.4170903,59.2035549" id="Fill-67" fill="#BEC3C6"></path>
                        <path d="M87.4116826,84.3884898 C88.8071353,84.5353598 90.21874,84.5748006 91.6040508,84.5045584 C93.2027174,84.4222962 94.820541,84.1882808 96.4173296,83.8104005 C95.7363186,80.9184516 94.8224192,78.1151505 93.697042,75.4744957 C91.1514207,74.4813391 88.4743302,73.5340089 85.7363882,72.6554184 C86.4249117,76.4958244 86.9891028,80.4402789 87.4116826,84.3884898" id="Fill-69" fill="#00637D"></path>
                        <path d="M52.0947094,66.3774964 C51.9106524,66.5457771 51.7262198,66.7114284 51.5417871,66.877831 C52.3512624,66.7009109 53.1667477,66.5758273 53.9765985,66.5025801 C53.3248864,66.4541242 52.6998438,66.413181 52.0947094,66.3774964" id="Fill-71" fill="#00637D"></path>
                        <path d="M61.1396469,67.2059784 C62.7634805,67.678141 64.3215795,68.362157 65.7966651,69.2523919 C65.5833092,68.7922494 65.3755877,68.3050617 65.1663637,67.7739258 C63.8268794,67.5650774 62.4798825,67.375386 61.1396469,67.2059784" id="Fill-73" fill="#00637D"></path>
                        <path d="M74.2671193,79.229334 C78.0312731,82.0450308 82.4730572,83.8146075 87.124441,84.3558854 C86.6988561,80.3855126 86.1301575,76.4177692 85.432619,72.5585818 C78.8877017,70.4791132 72.1805137,68.8860809 65.4879752,67.8256871 C65.7358887,68.4420903 65.9815485,69.0013982 66.2381014,69.5268998 C69.8016706,71.8046993 72.651925,75.2484437 74.2671193,79.229334" id="Fill-75" fill="#00637D"></path>
                        <path d="M52.6922562,0.0616403195 C53.636957,1.99236087 54.4975174,4.01435868 55.2495218,6.07504602 C55.8276111,5.95259176 56.4120861,5.84666507 56.9958097,5.7580172 C55.585332,3.80663719 54.1391697,1.89281983 52.6922562,0.0616403195" id="Fill-77" fill="#00637D"></path>
                        <path d="M58.9957583,24.5743915 C64.8322439,25.4049018 69.9486533,28.6683454 73.1655192,33.5041618 C68.7421408,23.8550666 63.3733103,14.6184093 57.1803551,6.01318033 C56.5684594,6.10408195 55.9528075,6.21338929 55.3469218,6.34147794 C55.9355286,7.97169724 56.4065643,9.42987957 56.7863228,10.7937796 C58.0277686,15.2498376 58.7711336,19.8865719 58.9957583,24.5743915" id="Fill-79" fill="#00637D"></path>
                        <path d="M52.5108661,0.330138189 C51.4902887,2.69846369 50.6627834,5.16407647 50.0471315,7.66913004 C51.6337781,7.02267672 53.2891643,6.50731707 54.9727226,6.13394427 C54.245134,4.14725536 53.4183799,2.19700222 52.5108661,0.330138189" id="Fill-81" fill="#00637D"></path>
                        <path d="M49.9651322,8.00572901 C48.9250222,12.3746416 48.5144624,16.8577447 48.7435946,21.3333352 C48.8138367,22.6942303 48.9531942,24.1171037 49.1579107,25.563266 C51.0416779,24.8897675 53.0163468,24.4957353 55.0312077,24.3928136 C56.2441059,24.3267033 57.4825466,24.3781642 58.7134749,24.5370542 C58.4862208,19.8864217 57.7473634,15.2891281 56.5164351,10.8687547 C56.1355498,9.50222525 55.6622603,8.03915977 55.0702728,6.40067669 C53.3221068,6.78494267 51.605869,7.32471805 49.9651322,8.00572901" id="Fill-83" fill="#00637D"></path>
                        <path d="M45.8323009,65.8823079 C47.9076377,65.9048455 49.9788425,65.9758389 51.9925766,66.0911563 C52.1495885,65.9469157 52.306976,65.803802 52.462861,65.659937 C50.7766734,65.1310548 49.1164039,64.4466632 47.5226204,63.6206604 C46.9967432,64.3595178 46.4411915,65.1032584 45.8323009,65.8823079" id="Fill-85" fill="#BEC3C6"></path>
                        <path d="M50.3288138,64.6000691 C51.1108683,64.9140929 51.9026891,65.1946859 52.6997687,65.4388432 C52.7906703,65.3558297 52.8796938,65.2705625 52.969093,65.1856709 L52.9702198,65.1837928 C52.075853,65.0470647 51.1938818,64.853617 50.3288138,64.6000691" id="Fill-87" fill="#BEC3C6"></path>
                        <path d="M14.4485886,87.2181598 C14.4110259,87.3229596 14.3700826,87.432267 14.3242562,87.5468331 C20.1757668,85.7580994 25.8777781,83.4205753 31.2792881,80.5958635 C31.5027859,80.0245355 31.7394307,79.4539587 31.9835879,78.8946508 C26.6286556,82.5611417 20.7324454,85.3606865 14.4485886,87.2181598" id="Fill-89" fill="#00637D"></path>
                        <path d="M32.425137,78.5892288 C32.1603202,79.180465 31.9041429,79.7867263 31.6607369,80.3952413 C34.0328187,79.1421511 36.3658353,77.7857636 38.5993108,76.3591339 C41.3500242,71.6919738 45.8567917,68.2861677 50.9713231,67.0112911 C51.2154803,66.7945546 51.4596376,66.5755643 51.7015411,66.3558228 C49.7084665,66.2461398 47.6628043,66.1796539 45.6145126,66.1601213 C43.0966877,69.345059 40.2483115,72.2997376 37.145636,74.9441486 C36.8594086,75.2367617 36.531111,75.5109691 36.1806514,75.7502432 C34.9831539,76.7295017 33.7165411,77.6865982 32.425137,78.5892288" id="Fill-91" fill="#00637D"></path>
                        <g id="Group-95" transform="translate(0.000000, 64.607769)">
                            <mask id="mask-2" fill="white">
                                <use xlink:href="#path-1"></use>
                            </mask>
                            <g id="Clip-94"></g>
                            <path d="M-0.174440977,8.55651024 L-0.237921867,8.68647704 C-0.247312531,8.70525836 -0.256703195,8.72591783 -0.267220739,8.74432353 C2.44555432,7.81201839 5.01408878,7.0104313 7.5777401,6.29674082 C13.9277072,4.52791532 20.4782589,3.20533418 27.0483432,2.36656006 C27.6091536,1.46731006 28.3818175,0.724696335 29.2900825,0.198443515 C24.5583147,1.23554846 19.959143,2.37482384 15.6014992,3.58772202 C10.497861,5.00871732 5.18988202,6.68025555 -0.174440977,8.55651024" id="Fill-93" fill="#00637D" mask="url(#mask-2)"></path>
                        </g>
                        <path d="M33.2677049,63.9661992 C34.8212964,64.1419925 36.2719662,64.8800987 37.3372431,66.054683 C38.2240975,66.0088565 39.1518951,65.9712939 40.1687162,65.9404925 C41.3834925,64.5431617 42.649354,63.2318493 43.9362507,62.0354787 C40.3771889,62.6015479 36.7967165,63.2487525 33.2677049,63.9661992" id="Fill-96" fill="#00637D"></path>
                        <path d="M32.5465395,64.2053607 C32.4387346,64.2053607 32.3305542,64.2079901 32.2227494,64.2136245 C32.1479997,64.2173807 32.0751281,64.2260201 32.0011297,64.2354108 L31.8937005,64.2485577 C31.47375,64.3364544 31.0414038,64.4269804 30.6083064,64.5205114 C29.3112679,64.9434669 28.1832613,65.7938854 27.4132268,66.9271508 C30.5729975,66.5323673 33.7849803,66.2465154 36.9699179,66.0741029 C35.8050999,64.8833666 34.2094383,64.2053607 32.5465395,64.2053607" id="Fill-98" fill="#00637D"></path>
                        <path d="M44.4367355,61.9565596 C43.1103981,63.1668284 41.8047201,64.5025564 40.5512543,65.9288105 C42.3144454,65.8803547 43.8969601,65.8645784 45.4787236,65.8784765 C46.1285576,65.0517225 46.7160375,64.2685411 47.2708379,63.4894916 C46.695378,63.1863609 46.1454607,62.8749665 45.631228,62.561694 C45.2830221,62.3539725 44.9445826,62.1406166 44.6264269,61.9265094 L44.4367355,61.9565596 Z" id="Fill-100" fill="#BEC3C6"></path>
                        <path d="M37.5685164,66.3246833 C37.9678075,66.8137491 38.2885925,67.3523976 38.5282423,67.9289844 C38.9789942,67.3535245 39.445898,66.7840746 39.9199387,66.2292742 C39.086799,66.2563193 38.3118814,66.2871207 37.5685164,66.3246833" id="Fill-102" fill="#00637D"></path>
                        <path d="M38.6449495,68.2336175 C38.8545491,68.8248538 38.9770034,69.4420082 39.0089316,70.0715583 C39.0761688,71.3746069 38.7392317,72.6652598 38.0642308,73.7699775 C40.6737086,71.4380878 43.0878605,68.8834515 45.2578552,66.1571539 C43.6734623,66.1458851 42.08043,66.1654177 40.3007114,66.2180054 C39.7346421,66.8715956 39.1779636,67.5488503 38.6449495,68.2336175" id="Fill-104" fill="#00637D"></path>
                        <path d="M67.5816049,48.430322 C68.2502202,48.7323258 68.9098205,49.0486034 69.5457563,49.3701397 C71.6008092,49.014797 73.6295683,48.7837866 75.5790702,48.6846212 C75.7097882,48.6771087 75.8453894,48.6771087 75.9746049,48.6733524 C76.2766087,47.0870814 76.3877942,45.4681309 76.3036538,43.8563173 C76.1849558,41.5601121 75.6827431,39.3210022 74.8120407,37.1994633 C74.7369154,37.0236701 74.6584095,36.8452475 74.5780254,36.6683273 L74.4863725,36.4576008 C72.4707603,40.5891174 70.1490125,44.6158342 67.5816049,48.430322" id="Fill-106" fill="#00637D"></path>
                        <path d="M69.9643169,49.5841717 C71.6937017,50.4747823 73.341951,51.4371376 74.8692487,52.4498268 C75.3248837,51.3218202 75.6764701,50.1479872 75.9195005,48.9557485 C75.9010948,48.9557485 75.8811866,48.9564997 75.8609028,48.9564997 C75.7718793,48.9583779 75.6821045,48.9591291 75.5923298,48.9640122 C73.7720435,49.0575433 71.8807637,49.266016 69.9643169,49.5841717" id="Fill-108" fill="#91989C"></path>
                        <path d="M67.4226022,48.6660277 C67.1232279,49.1096427 66.8200972,49.5479989 66.5143372,49.9867307 C67.3504819,49.7883999 68.2110424,49.6099773 69.0817448,49.4525897 C68.5412181,49.1840167 67.9849152,48.9195756 67.4226022,48.6660277" id="Fill-110" fill="#00637D"></path>
                        <path d="M63.552409,54.0023665 C62.0157207,55.9740304 60.3562026,57.9411867 58.6099147,59.8587603 C60.0654676,59.7145197 61.6134247,59.5789185 63.3259062,59.4421904 L63.3251549,59.4331754 C63.3195206,59.3693189 63.315013,59.305838 63.3108811,59.2423571 C63.221482,57.4986986 63.3026174,55.7385125 63.552409,54.0023665" id="Fill-112" fill="#91989C"></path>
                        <path d="M63.8510321,53.8972662 C63.5873423,55.6630867 63.5001969,57.4544498 63.5910986,59.2266559 C63.5948548,59.2886343 63.5993623,59.3483589 63.6049967,59.4092104 L63.6061236,59.4204792 C66.034925,59.2285341 68.2965726,59.0809128 70.5078862,58.9686005 C68.1482001,57.4788655 65.9117195,55.7746478 63.8510321,53.8972662" id="Fill-114" fill="#91989C"></path>
                        <path d="M63.9040331,53.5656631 C66.0255719,55.5140381 68.3394315,57.2779804 70.7825067,58.8101612 C72.4765826,57.019925 73.8141888,54.9705064 74.761519,52.7152445 C73.1294215,51.6311862 71.3617229,50.6053501 69.5012445,49.6621518 C68.4014099,49.8533457 67.3143466,50.0794729 66.2697292,50.3337721 C65.4606295,51.4786819 64.6868388,52.5281825 63.9089162,53.5404961 L63.9040331,53.5656631 Z" id="Fill-116" fill="#91989C"></path>
                        <path d="M53.5872992,64.9863259 C54.4234439,65.0892476 55.2663499,65.1425865 56.096109,65.1425865 L56.0968602,65.1425865 C56.4371779,65.1425865 56.7823787,65.1331959 57.123072,65.1162927 C59.4696112,64.9957165 61.7462838,64.47923 63.8929896,63.5814825 C63.6199091,62.3167479 63.4354765,61.0193337 63.3468286,59.7219195 C61.5145222,59.867287 59.8692779,60.014157 58.3258283,60.1681639 C56.8049163,61.8239258 55.2118841,63.4440032 53.5872992,64.9863259" id="Fill-118" fill="#BEC3C6"></path>
                        <path d="M63.6263323,59.7003961 C63.7134777,60.9670089 63.8911491,62.2332461 64.1559658,63.4690575 C66.4660692,62.4653833 68.547416,61.0488955 70.3485454,59.2579081 C68.1947026,59.3690935 65.9897747,59.5152122 63.6263323,59.7003961" id="Fill-120" fill="#BEC3C6"></path>
                        <path d="M56.5976456,44.8644615 C59.5440604,45.4632102 62.488597,46.3433033 65.3516227,47.4814518 C67.2455319,42.948766 70.344451,39.0174583 74.3234633,36.1018449 C71.387566,30.0148164 65.6769153,25.8262046 59.0087925,24.860093 C59.3025325,31.6348938 58.4915547,38.3616143 56.5976456,44.8644615" id="Fill-122" fill="#00637D"></path>
                        <path d="M65.6123076,47.5855379 C66.1648542,47.8090357 66.7260403,48.0475586 67.3221597,48.3131265 C69.8335989,44.586911 72.1080178,40.6582327 74.091326,36.6251303 C70.3459535,39.4780141 67.4232032,43.2538123 65.6123076,47.5855379" id="Fill-124" fill="#00637D"></path>
                        <path d="M56.4576871,45.3347084 C55.3818926,48.9208152 53.9751711,52.4276648 52.2709534,55.7714925 C55.1313497,54.056006 58.1994675,52.616605 61.4001815,51.4893497 C59.5772658,49.5672685 57.9158695,47.4990686 56.4576871,45.3347084" id="Fill-126" fill="#00637D"></path>
                        <path d="M56.6838519,45.1676297 C58.1578105,47.3582838 59.8417444,49.4486456 61.6917053,51.3880056 C62.5334844,51.096895 63.4034355,50.8226876 64.2808992,50.5721447 C64.5539797,49.5966425 64.8785211,48.6463073 65.2443813,47.7406716 C62.4437096,46.6276901 59.5656589,45.7633734 56.6838519,45.1676297" id="Fill-128" fill="#00637D"></path>
                        <path d="M65.5053667,47.8448705 C65.1627952,48.6896546 64.8581621,49.575382 64.5978529,50.4825202 C65.1413845,50.3300158 65.6364603,50.2008003 66.1011104,50.0858586 C66.4602094,49.5780114 66.8129227,49.0656568 67.1618798,48.5499215 C66.5856687,48.292993 66.0413858,48.0619826 65.5053667,47.8448705" id="Fill-130" fill="#00637D"></path>
                        <path d="M52.0248429,56.2495149 C51.1849419,57.862831 50.2729206,59.4445945 49.3113166,60.9561158 C52.3429986,60.5429265 55.3284785,60.1872082 58.1915042,59.8991026 C60.0812815,57.837664 61.872269,55.7153739 63.5175133,53.5885763 C62.8879632,53.0037257 62.2482711,52.3722975 61.6130866,51.711946 C58.2403357,52.8906621 55.015206,54.4172085 52.0248429,56.2495149" id="Fill-132" fill="#91989C"></path>
                        <path d="M61.905587,51.6110527 C62.490062,52.2161871 63.0786688,52.7961545 63.6586362,53.3366811 C63.7968668,52.523074 63.9764163,51.7008274 64.1935284,50.8890984 C63.4197377,51.1133475 62.651957,51.3556266 61.905587,51.6110527" id="Fill-134" fill="#91989C"></path>
                        <path d="M64.5087167,50.7989105 C64.3141421,51.5080934 64.1488664,52.2244133 64.0151434,52.9392306 C64.6199022,52.1421511 65.2261634,51.3180264 65.8519573,50.4371821 C65.4346362,50.5434844 64.9925237,50.6633093 64.5087167,50.7989105" id="Fill-136" fill="#91989C"></path>
                        <path d="M49.1988164,25.8467138 C50.1987343,32.6215145 52.6072519,38.9545784 56.35901,44.6791273 C58.2266253,38.2224823 59.022578,31.5449688 58.7262086,24.8208776 C57.4960316,24.6597338 56.2560883,24.6093999 55.0454439,24.6721295 C53.0384712,24.7758024 51.0720661,25.170586 49.1988164,25.8467138" id="Fill-138" fill="#00637D"></path>
                        <path d="M51.5545584,56.5407757 C49.1926186,58.0263788 46.9320979,59.7283428 44.8255841,61.6113587 C46.2251687,61.3942466 47.6104795,61.1914082 48.9469588,61.0062243 C49.866117,59.5724577 50.7428294,58.0729565 51.5545584,56.5407757" id="Fill-140" fill="#91989C"></path>
                        <path d="M47.7249329,63.3358227 C49.4749771,64.1310242 51.3260648,64.6696727 53.2293646,64.9389969 C54.8299094,63.4263487 56.4022822,61.8363215 57.9055397,60.2098585 C55.0673054,60.4998422 52.1107487,60.8544336 49.1128731,61.2668716 C48.6264367,62.0215054 48.1711773,62.699887 47.7249329,63.3358227" id="Fill-142" fill="#BEC3C6"></path>
                        <path d="M45.0445744,61.8615636 C45.2737066,62.0095605 45.5159857,62.1616892 45.7777975,62.3217061 C46.3186997,62.64174 46.8862715,62.9418656 47.4662389,63.2153217 C47.8794281,62.628593 48.2997542,62.0035504 48.7459986,61.3172807 C47.5409886,61.4855614 46.2999184,61.6681159 45.0445744,61.8615636" id="Fill-144" fill="#BEC3C6"></path>
                        <path d="M66.4877428,70.026671 C68.2483045,73.454639 70.7687588,76.5002192 73.8192221,78.8861992 C72.2618744,75.2982142 69.6839493,72.1827674 66.4877428,70.026671" id="Fill-146" fill="#00637D"></path>
                        <path d="M50.5003249,67.4271849 C45.8609612,68.7321116 41.7715148,71.8223913 39.1387482,76.0136326 C43.1166335,73.4375856 46.9337507,70.5531492 50.5003249,67.4271849" id="Fill-148" fill="#00637D"></path>
                        <path d="M86.8636435,51.1314151 C87.1724085,51.4728596 87.4499966,51.8413493 87.6885194,52.2304984 C87.8804646,51.9198553 88.0637704,51.6092121 88.2384367,51.3027008 C87.7970755,51.1997791 87.3339279,51.1426839 86.8636435,51.1314151" id="Fill-150" fill="#1D1D1B"></path>
                        <path d="M84.053769,64.481033 L84.0808141,64.4934287 C84.1465487,64.5223519 84.2107809,64.5505239 84.2783936,64.5756909 C84.7787282,64.7000233 85.3455487,64.8299901 85.9938802,64.9685963 C86.2601994,64.9937633 86.5126205,65.0076615 86.7485139,65.0076615 L86.7492652,65.0076615 C86.8427962,65.0076615 86.938581,65.0057833 87.0347414,65.0012758 C87.2229303,64.9907583 87.4182561,64.9704744 87.6379977,64.9385462 C86.9693824,64.0415499 86.2583213,63.1509393 85.5224688,62.2869982 C84.9687953,62.6630004 84.3677928,62.9593698 83.7322326,63.1734769 C83.7705465,63.3297376 83.8088604,63.4848714 83.8471743,63.641132 C83.9162896,63.9198469 83.9872831,64.1993131 84.053769,64.481033" id="Fill-152" fill="#00637D"></path>
                        <path d="M82.3711497,63.4893413 C82.787344,63.8221465 83.2418521,64.1057445 83.7301667,64.3367549 C83.6787058,64.1271552 83.6283719,63.9175556 83.5750329,63.7083316 C83.5382215,63.5577054 83.4999076,63.4078304 83.4634718,63.2572041 C83.1054997,63.3612527 82.7396394,63.4386317 82.3711497,63.4893413" id="Fill-154" fill="#00637D"></path>
                        <path d="M75.1585187,52.6421852 C76.6888213,53.6740313 78.2322709,54.8467375 79.7452947,56.1302534 C79.97931,55.2835912 80.3590685,54.4977804 80.8781844,53.7916024 C80.3647029,52.1072929 79.8869059,50.6160555 79.4218802,49.2401353 C77.6222533,49.755495 76.0788038,50.9864232 75.1585187,52.6421852" id="Fill-156" fill="#1D1D1B"></path>
                        <path d="M75.0247956,52.8906997 C74.459102,54.0085643 74.1942853,55.2485076 74.2577662,56.4899534 C74.2979582,57.2727592 74.4699952,58.0473012 74.7712477,58.7944224 C76.53519,58.7346978 78.0880303,58.6945058 79.5127818,58.6738463 C79.5011374,58.5945891 79.4947518,58.514205 79.4909955,58.4334453 C79.4564378,57.7674594 79.51466,57.0950878 79.6686669,56.4339851 C78.1368617,55.1283071 76.5753821,53.936444 75.0247956,52.8906997" id="Fill-158" fill="#1D1D1B"></path>
                        <path d="M77.9692947,62.4059216 C79.1104482,63.0324667 80.3973448,63.3337192 81.7041497,63.276624 C81.0223874,62.6211556 80.4713433,61.8267055 80.0904579,60.9552518 C79.4030613,61.4676065 78.6904977,61.9547941 77.9692947,62.4059216" id="Fill-160" fill="#00637D"></path>
                        <path d="M74.8901711,59.0709587 C75.4814073,60.3803929 76.4700564,61.5012626 77.6934721,62.2465057 C78.4736485,61.7649524 79.2421805,61.2402021 79.9791598,60.6884067 C79.7631745,60.1336063 79.6181826,59.5517607 79.543433,58.9541388 C78.144224,58.9747983 76.6176776,59.0131122 74.8901711,59.0709587" id="Fill-162" fill="#1D1D1B"></path>
                        <path d="M81.1887149,53.8453546 C81.6488574,55.358754 82.1044924,56.9363856 82.539468,58.5380573 C84.4427678,56.7553336 86.1180623,54.7243208 87.5229057,52.4983577 C87.2321707,52.0044088 86.8813355,51.5450175 86.4771613,51.1307014 L86.3220275,51.1307014 C84.2932685,51.2355012 82.4252775,52.224526 81.1887149,53.8453546" id="Fill-164" fill="#F39200"></path>
                        <path d="M79.9813008,56.3324157 C80.7855173,57.0201879 81.5123547,57.6782857 82.1914876,58.3303734 C81.8004603,56.8992362 81.3936567,55.4906365 80.98197,54.1297415 C80.5199493,54.7994836 80.1848904,55.539468 79.9813008,56.3324157" id="Fill-166" fill="#F39200"></path>
                        <path d="M79.9101572,56.6412934 C79.7877029,57.2306515 79.7399983,57.8282733 79.7707997,58.4183827 C79.774556,58.5036499 79.7858248,58.5866634 79.7952154,58.6700525 C80.5716356,58.6599106 81.3458019,58.6550274 82.122222,58.652398 C81.4412111,57.9946759 80.7136224,57.3324463 79.9101572,56.6412934" id="Fill-168" fill="#F39200"></path>
                        <path d="M82.7330284,59.2545274 C83.0556916,60.4629181 83.370091,61.6867094 83.6645823,62.8988564 C84.2576966,62.6986474 84.8207608,62.4206837 85.3398768,62.0728535 C84.4868288,61.0811994 83.6112433,60.1357473 82.7330284,59.2545274" id="Fill-170" fill="#00637D"></path>
                        <path d="M80.3207921,60.781825 C80.7193319,61.7190133 81.3244663,62.5656756 82.0764707,63.2410522 C82.5245932,63.1971039 82.9667057,63.1110854 83.397925,62.983748 C83.0782668,61.6769431 82.7394516,60.3581183 82.3908701,59.0580747 C81.7192498,59.6680923 81.0243407,60.2469328 80.3207921,60.781825" id="Fill-172" fill="#00637D"></path>
                        <path d="M79.8277823,58.9495186 C79.8950194,59.486289 80.0249862,60.0110393 80.2131751,60.5117495 C80.8566234,60.0185518 81.491808,59.489294 82.1100893,58.9326154 C81.3498211,58.9356205 80.5891773,58.940128 79.8277823,58.9495186" id="Fill-174" fill="#F39200"></path>
                        <path d="M79.6940968,49.1685785 C80.1403411,50.4904084 80.5967274,51.9166624 81.0887982,53.5179585 C82.3505279,51.9542251 84.1940968,50.9914942 86.1984464,50.8577711 C84.1321247,48.9713745 81.4133396,48.6934109 79.6940968,49.1685785" id="Fill-176" fill="#1D1D1B"></path>
                    </g>
                </g>
            </g>
        </g>
    </g>
</svg>