<svg viewBox="0 0 560 510" xmlns="http://www.w3.org/2000/svg" font-family="Mulish, Helvetica, Arial, sans-serif">
<defs>
  <!-- magma-coloured noise floor: one noise value drives all channels, then a magma colour ramp -->
  <filter id="magma" x="0" y="0" width="100%" height="100%" color-interpolation-filters="sRGB">
    <feTurbulence type="fractalNoise" baseFrequency="0.05 0.22" numOctaves="3" seed="11" stitchTiles="stitch" result="t"/>
    <feColorMatrix in="t" type="matrix" values="1 0 0 0 0  1 0 0 0 0  1 0 0 0 0  0 0 0 0 1" result="g"/>
    <feComponentTransfer in="g">
      <feFuncR type="table" tableValues="0.00 0.05 0.13 0.38 0.82 1.00"/>
      <feFuncG type="table" tableValues="0.00 0.015 0.04 0.10 0.45 0.92"/>
      <feFuncB type="table" tableValues="0.02 0.12 0.26 0.32 0.30 0.66"/>
    </feComponentTransfer>
  </filter>
  <filter id="glow" x="-40%" y="-40%" width="180%" height="180%"><feGaussianBlur stdDeviation="1.5"/></filter>
  <clipPath id="plot"><rect x="70" y="30" width="400" height="440"/></clipPath>
  <style>
    .tick{font-size:11px;fill:#6b6b6b}.ax{font-size:12px;fill:#4b4b4b}.br{font-size:14px;font-weight:700;fill:#1f2937}
    .harm{fill:none;stroke-linecap:round;filter:url(#glow)}
  </style>
</defs>

<g clip-path="url(#plot)">
  <!-- noise floor -->
  <rect x="70" y="30" width="400" height="440" filter="url(#magma)"/>
  <!-- darken the very low band + a soft bright core where the rumbles sit -->
  <rect x="70" y="446" width="400" height="24" fill="#0a0014" opacity="0.55"/>
  <ellipse cx="235" cy="430" rx="120" ry="55" fill="#f97316" opacity="0.14" filter="url(#glow)"/>
  <ellipse cx="375" cy="415" rx="80" ry="45" fill="#f97316" opacity="0.12" filter="url(#glow)"/>
  <!-- onset transient near 2s -->
  <rect x="148" y="30" width="3" height="440" fill="#fcd34d" opacity="0.45" filter="url(#glow)"/>

  <!-- rumble 1 harmonic stack (wavy, rising) -->
  <g class="harm" stroke-width="2.3">
    <path d="M150,441 C175,438 200,443 225,439 C250,436 275,440 300,437" stroke="#fde047"/>
    <path d="M150,415 C175,411 200,417 225,412 C250,408 275,413 300,408" stroke="#fcd34d"/>
    <path d="M150,389 C175,385 200,391 225,385 C250,381 275,386 300,380" stroke="#fbbf24"/>
    <path d="M150,361 C175,356 200,363 225,356 C250,351 275,357 300,349" stroke="#f59e0b"/>
    <path d="M150,333 C175,328 200,335 225,327 C250,322 275,328 300,318" stroke="#f97316"/>
    <path d="M150,306 C175,300 200,308 225,299 C250,293 275,299 300,288" stroke="#ef6351"/>
    <path d="M150,279 C175,272 200,281 225,271 C250,264 275,270 300,258" stroke="#e0556a"/>
  </g>
  <!-- rumble 2 harmonic stack -->
  <g class="harm" stroke-width="2.1">
    <path d="M312,438 C340,435 365,440 395,434 C415,431 425,435 428,432" stroke="#fde047"/>
    <path d="M312,410 C340,407 365,412 395,405 C415,402 425,406 428,402" stroke="#fcd34d"/>
    <path d="M312,382 C340,378 365,384 395,376 C415,373 425,377 428,372" stroke="#fbbf24"/>
    <path d="M312,354 C340,349 365,356 395,346 C415,343 425,348 428,342" stroke="#f97316"/>
    <path d="M312,326 C340,320 365,328 395,316 C415,313 425,318 428,312" stroke="#e0556a"/>
  </g>

  <!-- 20 Hz infrasound boundary -->
  <line x1="70" y1="446" x2="470" y2="446" stroke="#ffffff" stroke-width="2"/>
</g>

<!-- axes -->
<g stroke="#4b4b4b" stroke-width="1.5"><line x1="70" y1="30" x2="70" y2="470"/><line x1="70" y1="470" x2="470" y2="470"/></g>
<g class="tick" text-anchor="end">
  <text x="64" y="474">0</text><text x="64" y="450" fill="#e07a2c">20</text><text x="64" y="351">100</text>
  <text x="64" y="229">200</text><text x="64" y="107">300</text><text x="64" y="34">360</text>
</g>
<g class="tick" text-anchor="middle">
  <text x="70" y="488">0</text><text x="150" y="488">2</text><text x="230" y="488">4</text>
  <text x="310" y="488">6</text><text x="390" y="488">8</text><text x="470" y="488">10</text>
</g>
<text class="ax" x="270" y="506" text-anchor="middle">seconds</text>
<text class="ax" x="24" y="250" text-anchor="middle" transform="rotate(-90 24 250)">frequency (Hertz)</text>

<!-- right-side range brackets -->
<g stroke="#2a2620" stroke-width="1.6" fill="none">
  <path d="M484,40 h-8 V218 h8"/>
  <path d="M484,232 h-8 V398 h8"/>
  <path d="M484,452 h-8 V468 h8"/>
</g>
<text class="br" x="492" y="134">women</text>
<text class="br" x="492" y="320">men</text>
<text class="br" x="492" y="456">infra-</text>
<text class="br" x="492" y="472">sound</text>
</svg>
