<svg xmlns="http://www.w3.org/2000/svg" width="361.5" height="70.0" viewBox="0 0 361.5 70.0"><g fill="#1f2937" transform="translate(61.90,49.16) scale(0.01900,-0.01900)"><path transform="translate(0.0,0)" d="M976.0190583691001 581.5370504334569Q976.0190583691001 534.1597227305174 948.9119773209095 508.5085227712989Q921.8048962727189 482.8573228120804 870.0716392993927 482.8573228120804H246.57227037847042V551.6359233930707H652.9918707236648Q699.3879183456302 551.6359233930707 699.3879183456302 594.1614547222853Q699.3879183456302 732.135986328125 651.2936771176755 802.5775040946901Q603.1994358897209 873.0190218612552 524.4429705366492 873.0190218612552Q462.81822418421507 873.0190218612552 415.8855645954609 835.2809447273612Q368.9529050067067 797.5428675934672 342.35445510968566 725.5443764552474Q315.7560052126646 653.5458853170276 315.7560052126646 551.2951656356454Q315.7560052126646 356.1101578101516 406.0543172955513 258.4630252458155Q496.352629378438 160.81589268147945 645.104470320046 160.81589268147945Q735.456330768764 160.81589268147945 802.743917491287 198.88205374404788Q870.03150421381 236.9482148066163 903.234552398324 306.1087241470814Q918.7168466895819 323.6965533569455 928.1580484434962 330.026361387223Q937.5992501974106 336.3561694175005 947.5810474604368 336.3561694175005Q961.5353412553668 336.3561694175005 968.0414493344724 323.71035680919886Q974.547557413578 311.0645442008972 974.1475329995155 292.7547162473202Q969.9030356705189 206.38749509304762 914.6749847494066 134.1109818778932Q859.4469338282943 61.8344686627388 765.6115619018674 18.88367450237274Q671.7761899754405 -24.067119657993317 550.7861058115959 -24.067119657993317Q409.0533220991492 -24.067119657993317 299.49319296330214 34.71534885838628Q189.93306382745504 93.49781737476587 127.8126414641738 199.79180746525526Q65.69221910089254 306.08579755574465 65.69221910089254 448.545547246933Q65.69221910089254 599.1878951117396 125.22339874878526 714.5375112369657Q184.75457839667797 829.8871273621917 295.8420558460057 895.4949128814042Q406.9295332953334 961.1026984006166 560.5290344804525 961.1026984006166Q691.2137359902263 961.1026984006166 784.2576838694513 912.3501721918583Q877.3016317486763 863.5976459830999 926.6603450588882 778.0756915807724Q976.0190583691001 692.5537371784449 976.0190583691001 581.5370504334569Z"/><path transform="translate(1011.0,0)" d="M668.9569567143917 122.7652393952012V141.96383391320705L650.9788734689355 144.30487935245037V747.3507428020239Q650.9788734689355 817.9359288662672 616.0243959985673 856.3368874415755Q581.0699185281992 894.7378460168839 517.4724687710404 894.7378460168839Q457.720947265625 894.7378460168839 425.98811915516853 868.6754092387855Q394.25529104471207 842.6129724606872 394.25529104471207 805.9542097523808V718.4850979149342Q394.25529104471207 659.7045573294163 354.7348373271525 626.8458981141448Q315.2143836095929 593.9872388988733 244.9335426017642 593.9872388988733Q185.59871400147676 593.9872388988733 154.50693138688803 622.7860880345106Q123.41514877229929 651.5849371701479 123.41514877229929 702.4648715108633Q123.41514877229929 763.985562428832 174.0271387770772 823.2434853054583Q224.6391287818551 882.5014081820846 323.20716377720237 921.2936633341014Q421.77519877254963 960.0859184861183 566.0685187131166 960.0859184861183Q747.4138556271791 960.0859184861183 835.8849931284785 886.2867404073477Q924.3561306297779 812.487562328577 924.3561306297779 685.871247574687V166.05202306061983Q924.3561306297779 137.1218615397811 935.9783699773252 122.79277186095715Q947.6006093248725 108.4636821821332 968.3427544236183 108.4636821821332Q989.8103308752179 108.4636821821332 1001.0598754882812 119.14008566737175Q1012.3094201013446 129.8164891526103 1019.7461266443133 142.33676271140575Q1024.7522864416242 148.50931385159492 1030.1500289775431 152.7750304043293Q1035.547771513462 157.04074695706367 1043.2486334592104 157.04074695706367Q1054.3219129145145 157.04074695706367 1059.4891115948558 148.96210572496057Q1064.656310275197 140.88346449285746 1064.656310275197 127.59335051476955Q1064.656310275197 95.9447021484375 1041.8490101471543 60.86505839973688Q1019.0417100191116 25.785414651036263 973.5333858504891 1.0118057392537594Q928.0250616818666 -23.761803172528744 859.4372083246708 -23.761803172528744Q771.1344878301024 -23.761803172528744 720.0457222722471 15.55715923383832Q668.9569567143917 54.87612164020538 668.9569567143917 122.7652393952012ZM80.13263966143131 207.44898886978626Q80.13263966143131 329.94481033831835 188.9583912305534 405.39605731889606Q297.78414279967546 480.84730429947376 497.41929003596306 480.84730429947376Q561.9312803074718 480.84730429947376 612.5016229450703 469.67921110242605Q663.0719655826688 458.51111790537834 700.739896684885 440.3109412267804L680.9386841952801 383.457272157073Q646.4294770136476 399.1795998439193 611.1437407396734 408.34932454302907Q575.8580044656992 417.51904924213886 533.8904842957854 417.51904924213886Q452.4791212230921 417.51904924213886 406.6007851101458 374.043108407408Q360.72244899719954 330.56716757267714 360.72244899719954 253.09357564151287Q360.72244899719954 176.27806989848614 400.37052028626204 135.64653676003218Q440.01859157532454 95.01500362157822 502.75859093666077 95.01500362157822Q555.0061594173312 95.01500362157822 603.48794099316 119.15238025784492Q651.9697225689888 143.28975689411163 685.0413362011313 185.82264647632837L705.3315349817276 135.36152263730764Q651.6239587888122 59.20983525365591 561.2273380830884 17.693484392017126Q470.83071737736464 -23.82286646962166 368.8730944097042 -23.82286646962166Q240.51284191012383 -23.82286646962166 160.32274078577757 40.18311953917146Q80.13263966143131 104.18910554796457 80.13263966143131 207.44898886978626Z"/><path transform="translate(2075.0,0)" d="M424.6968007311225 525.6361665800214Q424.6968007311225 669.268250271678 465.5931186378002 766.2417558804154Q506.48943654447794 863.2152614891529 572.4445782713592 912.0979166477919Q638.3997199982405 960.9805718064308 713.4456842243671 960.9805718064308Q806.1478794366121 960.9805718064308 856.5700524821877 907.7175643779337Q906.9922255277634 854.4545569494367 906.9922255277634 755.2374691590667Q906.9922255277634 667.7907064557076 870.2442654520273 624.6129534468055Q833.4963053762913 581.4352004379034 775.366361528635 581.4352004379034Q717.2775414958596 581.4352004379034 686.9535835236311 612.7712600082159Q656.6296255514026 644.1073195785284 656.2632830366492 700.5565664693713L656.0801117792726 736.5624634921551Q655.480136193335 767.7017548456788 641.7004754841328 783.2782013788819Q627.9208147749305 798.854647912085 596.6560676544905 798.854647912085Q561.6352075114846 798.854647912085 529.6837302707136 769.8334053009748Q497.7322530299425 740.8121626898646 477.6368643976748 681.376707367599Q457.5414757654071 621.9412520453334 457.5414757654071 529.4649384394288ZM443.3065569624305 898.2140466794372 457.5414757654071 657.5574827566743V147.62726990133524Q457.5414757654071 121.65317732840776 468.0393490418792 108.70121893659234Q478.53722231835127 95.74926054477692 506.46715357899666 91.11572512984276L593.7436622306705 77.318957939744Q614.9346079602838 73.77700815349817 625.0385225005448 64.21211865544319Q635.1424370408058 54.64722915738821 635.1424370408058 37.41210348159075Q635.1424370408058 19.86866109073162 622.4897532239556 9.93433054536581Q609.8370694071054 0 585.3790528476238 0H121.6785417124629Q96.60376965254545 0 84.82208803296089 10.010655008256435Q73.04040641337633 20.02131001651287 73.04040641337633 36.9647768214345Q73.04040641337633 50.24114838242531 81.1855151206255 59.75867459923029Q89.33062382787466 69.27620081603527 106.68494203686714 75.19067154824734L147.80624227970839 85.28539811074734Q165.243155695498 90.59685575962067 173.52429788559675 103.997668877244Q181.80544007569551 117.39848199486732 181.80544007569551 145.70081213116646V738.5785885602236Q181.80544007569551 761.6168667301536 174.69925297424197 771.8481992892921Q167.59306587278843 782.0795318484306 151.7195493504405 784.6214816346765L96.93643026798964 788.1802113354206Q80.74841859936714 791.7389410361648 73.51859547197819 799.8549334071577Q66.28877234458923 807.9709257781506 66.28877234458923 820.5083118081093Q66.28877234458923 835.2013842612505 75.38267474249005 844.6036644093692Q84.47657714039087 854.005944557488 107.74838494509459 862.1235073953867L303.60123336315155 928.8277310281992Q347.26676869392395 945.4017143845558 367.72023832425475 950.4078224636614Q388.17370795458555 955.413930542767 400.13860323280096 955.413930542767Q419.6958914771676 955.413930542767 429.72185936942697 942.1781027726829Q439.7478272616863 928.9422750025988 443.3065569624305 898.2140466794372Z"/><path transform="translate(2979.0,0)" d="M123.56567420810461 848.9290322735906 71.67571584135294 862.9701560884714Q50.175936214625835 869.823666960001 41.38191817328334 879.2649204321206Q32.58790013194084 888.7061739042401 32.58790013194084 901.7046476453543Q32.58790013194084 919.217567704618 44.68634945899248 928.5740033201873Q56.78479878604412 937.9304389357567 76.60927993059158 937.9304389357567H141.39222465455532Q162.90590603649616 937.9304389357567 177.54359659552574 945.8618540540338Q192.18128715455532 953.7932691723108 207.36584758013487 974.9233771115541L327.45930495113134 1132.5537343248725Q346.10786851495504 1155.8256455659866 363.4855513051152 1166.790550161153Q380.8632340952754 1177.7554547563195 398.2036878168583 1177.7554547563195Q417.19141937047243 1177.7554547563195 427.79365069046617 1165.666975170374Q438.3958820104599 1153.5784955844283 438.3958820104599 1131.0962385609746V278.24711594730616Q438.3958820104599 206.39872689545155 466.28446965292096 169.18667412549257Q494.173057295382 131.9746213555336 544.0921765863895 131.9746213555336Q578.5444657281041 131.9746213555336 598.555996619165 145.200549736619Q618.5675275102258 158.4264781177044 630.9101858176291 176.5034361295402Q643.2528441250324 194.58039414137602 654.8527255915105 210.03496516123414Q666.4526070579886 225.48953618109226 683.234246276319 229.94682145863771Q696.4190322086215 230.86269637942314 704.3777159713209 222.1588486544788Q712.3363997340202 213.45500092953444 712.0311018824577 192.4200519323349Q709.6192414015532 134.13945031166077 673.9174244739115 85.86337698623538Q638.2156075462699 37.587303660809994 576.1766371689737 8.63808747753501Q514.1376667916775 -20.311128705739975 433.5616970360279 -20.311128705739975Q307.22611186653376 -20.311128705739975 235.5840784944594 42.70732967555523Q163.94204512238503 105.72578805685043 163.94204512238503 233.7900862172246V794.7099774777889Q163.94204512238503 818.2232078462839 154.81744660437107 829.940962459892Q145.69284808635712 841.6587170735002 123.56567420810461 848.9290322735906ZM332.25964241474867 849.4055955335498 333.3586699590087 937.9304389357567H659.8750317543745Q681.143820695579 937.9304389357567 692.9033606238663 929.4823566563427Q704.6629005521536 921.0342743769288 704.6629005521536 904.632757358253Q704.6629005521536 881.1000385209918 681.1469616293907 865.2528170272708Q657.6310227066278 849.4055955335498 605.8679488226771 849.4055955335498Z"/><path transform="translate(3704.0,0)" d="M457.3583045080304 1429.4154915958643V146.71141361445189Q457.3583045080304 117.92061436921358 465.68523951247334 104.5129300430417Q474.0121745169163 91.10524571686983 491.35750230401754 85.28539811074734L530.2282861247659 74.86859378218651Q559.1004832610488 63.23962212353945 559.1004832610488 38.93727335333824Q559.1004832610488 0 509.5202703252435 0H121.12900930643082Q96.29847180098295 0 84.5778534784913 9.93433054536581Q72.85723515599966 19.86866109073162 72.85723515599966 36.90371352434158Q72.85723515599966 50.180085085332394 80.92602871730924 59.71288178488612Q88.99482227861881 69.24567848443985 106.50178941339254 75.16014921665192L147.62307102233171 85.28539811074734Q165.05998443812132 90.93581687659025 173.34112662822008 104.25873506441712Q181.62226881831884 117.581653252244 181.62226881831884 146.25032590329647V1270.1650519892573Q181.62226881831884 1293.111744530499 174.47028890252113 1303.205698646605Q167.31830898672342 1313.299652762711 151.4447924643755 1315.8416025489569L97.1196015253663 1319.400332249701Q80.6568329706788 1322.9590619504452 73.47280265763402 1331.075054321438Q66.28877234458923 1339.191046692431 66.28877234458923 1351.820018351078Q66.28877234458923 1366.6046764329076 75.12847976386547 1375.6611759737134Q83.96818718314171 1384.7176755145192 107.56521368771791 1393.343628309667L306.8852061778307 1462.8047588020563Q340.6576992496848 1475.403208129108 361.44325878843665 1480.9177061654627Q382.2288183271885 1486.4322042018175 400.46382193267345 1486.4322042018175Q428.57215382158756 1486.4322042018175 442.965229164809 1470.7460122741759Q457.3583045080304 1455.0598203465343 457.3583045080304 1429.4154915958643ZM427.9293771907687 679.9917047321796 387.08653872460127 722.2817664220929 425.7985007017851 756.6852048113942Q547.7845652922988 866.6069990023971 635.4668210223317 913.7937854044139Q723.1490767523646 960.9805718064308 801.8011949956417 960.9805718064308Q921.1635131835938 960.9805718064308 987.1461271010339 881.7344155944884Q1053.128741018474 802.488259382546 1067.5425451174378 667.3002579808235L1125.9045355021954 149.6000664755702Q1129.2602765336633 119.36494079977274 1136.8620480932295 104.85877168551087Q1144.4638196527958 90.35260257124901 1162.9145127534866 84.7021838054061L1200.1302581503987 74.91589602828026Q1217.3929720968008 69.0624885931611 1225.3396390639246 59.62128683924675Q1233.2863060310483 50.180085085332394 1233.2863060310483 36.90371352434158Q1233.2863060310483 19.86866109073162 1221.7809610813856 9.93433054536581Q1210.275616131723 0 1184.8924052864313 0H792.212748400867Q742.5104088708758 0 742.5104088708758 38.93727335333824Q742.5104088708758 63.11749552935362 771.165771484375 74.86859378218651L811.6366529613733 85.28539811074734Q830.578956104815 91.10524571686983 840.3684882521629 105.52670041099191Q850.1580203995109 119.94815510511398 846.802279368043 149.6000664755702L793.033841997385 628.326897829771Q782.972515925765 714.920933611691 749.3251560479403 757.8989443182945Q715.6777961701155 800.876955024898 649.7390615865588 800.876955024898Q608.3321449533105 800.876955024898 563.0798912160099 779.1259782724082Q517.8276374787092 757.3750015199184 467.64427322894335 714.3812972679734Z"/><path transform="translate(4920.0,0)" d="M123.56567420810461 848.9290322735906 71.67571584135294 862.9701560884714Q50.175936214625835 869.823666960001 41.38191817328334 879.2649204321206Q32.58790013194084 888.7061739042401 32.58790013194084 901.7046476453543Q32.58790013194084 919.217567704618 44.68634945899248 928.5740033201873Q56.78479878604412 937.9304389357567 76.60927993059158 937.9304389357567H141.39222465455532Q162.90590603649616 937.9304389357567 177.54359659552574 945.8618540540338Q192.18128715455532 953.7932691723108 207.36584758013487 974.9233771115541L327.45930495113134 1132.5537343248725Q346.10786851495504 1155.8256455659866 363.4855513051152 1166.790550161153Q380.8632340952754 1177.7554547563195 398.2036878168583 1177.7554547563195Q417.19141937047243 1177.7554547563195 427.79365069046617 1165.666975170374Q438.3958820104599 1153.5784955844283 438.3958820104599 1131.0962385609746V278.24711594730616Q438.3958820104599 206.39872689545155 466.28446965292096 169.18667412549257Q494.173057295382 131.9746213555336 544.0921765863895 131.9746213555336Q578.5444657281041 131.9746213555336 598.555996619165 145.200549736619Q618.5675275102258 158.4264781177044 630.9101858176291 176.5034361295402Q643.2528441250324 194.58039414137602 654.8527255915105 210.03496516123414Q666.4526070579886 225.48953618109226 683.234246276319 229.94682145863771Q696.4190322086215 230.86269637942314 704.3777159713209 222.1588486544788Q712.3363997340202 213.45500092953444 712.0311018824577 192.4200519323349Q709.6192414015532 134.13945031166077 673.9174244739115 85.86337698623538Q638.2156075462699 37.587303660809994 576.1766371689737 8.63808747753501Q514.1376667916775 -20.311128705739975 433.5616970360279 -20.311128705739975Q307.22611186653376 -20.311128705739975 235.5840784944594 42.70732967555523Q163.94204512238503 105.72578805685043 163.94204512238503 233.7900862172246V794.7099774777889Q163.94204512238503 818.2232078462839 154.81744660437107 829.940962459892Q145.69284808635712 841.6587170735002 123.56567420810461 848.9290322735906ZM332.25964241474867 849.4055955335498 333.3586699590087 937.9304389357567H659.8750317543745Q681.143820695579 937.9304389357567 692.9033606238663 929.4823566563427Q704.6629005521536 921.0342743769288 704.6629005521536 904.632757358253Q704.6629005521536 881.1000385209918 681.1469616293907 865.2528170272708Q657.6310227066278 849.4055955335498 605.8679488226771 849.4055955335498Z"/><path transform="translate(5645.0,0)" d="M587.5807308778167 960.6416106894612Q738.8689151182771 960.6416106894612 853.9022894650698 898.0286040976644Q968.9356638118625 835.4155975058675 1033.5210448652506 723.9132993705571Q1098.1064259186387 612.4110012352467 1098.1064259186387 465.87363383919Q1098.1064259186387 325.71170281618834 1031.6821965016425 214.82308028265834Q965.2579670846462 103.93445774912834 848.2025637999177 39.93366904556751Q731.1471605151892 -24.067119657993317 577.2757806032896 -24.067119657993317Q425.9875963628292 -24.067119657993317 311.1847658716142 38.871096316725016Q196.38193538039923 101.80931229144335 131.74920036271214 213.2063247822225Q67.11646534502506 324.60333727300167 67.11646534502506 469.60179238021374Q67.11646534502506 611.6889176890254 133.41855885088444 722.3980992399156Q199.7206523567438 833.1072807908058 316.73025351017714 896.8744457401335Q433.73985466361046 960.6416106894612 587.5807308778167 960.6416106894612ZM655.622300952673 68.82299101352692Q722.9860990047455 79.02932748943567 764.2668583467603 131.50454759597778Q805.5476176887751 183.9797677025199 816.9453132599592 277.0455923117697Q828.3430088311434 370.11141692101955 805.3812731206417 501.73691508919Q783.0973562076688 632.6984589472413 740.2178582400084 717.8068226836622Q697.3383602723479 802.915186420083 638.4192693121731 840.8601963110268Q579.5001783519983 878.8052062019706 509.75322060287 867.6599330231547Q442.0535650998354 857.3620109185576 400.80333740636706 804.7341325692832Q359.55310971289873 752.1062542200089 348.68438464030623 659.3556785695255Q337.81565956771374 566.6051029190421 360.1774196922779 434.71546798199415Q382.46133660525084 304.75082045793533 425.6713633313775 219.35773009434342Q468.8813900575042 133.96463973075151 527.5768176876009 96.12116657570004Q586.2722453176975 58.277693420648575 655.622300952673 68.82299101352692Z"/><path transform="translate(6781.0,0)" d="M587.5807308778167 960.6416106894612Q738.8689151182771 960.6416106894612 853.9022894650698 898.0286040976644Q968.9356638118625 835.4155975058675 1033.5210448652506 723.9132993705571Q1098.1064259186387 612.4110012352467 1098.1064259186387 465.87363383919Q1098.1064259186387 325.71170281618834 1031.6821965016425 214.82308028265834Q965.2579670846462 103.93445774912834 848.2025637999177 39.93366904556751Q731.1471605151892 -24.067119657993317 577.2757806032896 -24.067119657993317Q425.9875963628292 -24.067119657993317 311.1847658716142 38.871096316725016Q196.38193538039923 101.80931229144335 131.74920036271214 213.2063247822225Q67.11646534502506 324.60333727300167 67.11646534502506 469.60179238021374Q67.11646534502506 611.6889176890254 133.41855885088444 722.3980992399156Q199.7206523567438 833.1072807908058 316.73025351017714 896.8744457401335Q433.73985466361046 960.6416106894612 587.5807308778167 960.6416106894612ZM655.622300952673 68.82299101352692Q722.9860990047455 79.02932748943567 764.2668583467603 131.50454759597778Q805.5476176887751 183.9797677025199 816.9453132599592 277.0455923117697Q828.3430088311434 370.11141692101955 805.3812731206417 501.73691508919Q783.0973562076688 632.6984589472413 740.2178582400084 717.8068226836622Q697.3383602723479 802.915186420083 638.4192693121731 840.8601963110268Q579.5001783519983 878.8052062019706 509.75322060287 867.6599330231547Q442.0535650998354 857.3620109185576 400.80333740636706 804.7341325692832Q359.55310971289873 752.1062542200089 348.68438464030623 659.3556785695255Q337.81565956771374 566.6051029190421 360.1774196922779 434.71546798199415Q382.46133660525084 304.75082045793533 425.6713633313775 219.35773009434342Q468.8813900575042 133.96463973075151 527.5768176876009 96.12116657570004Q586.2722453176975 58.277693420648575 655.622300952673 68.82299101352692Z"/><path transform="translate(7917.0,0)" d="M458.8847937658429 1429.4154915958643V146.71141361445189Q458.8847937658429 117.92061436921358 467.21172877028584 104.25873506441712Q475.5386637747288 90.59685575962067 492.88399156183004 85.28539811074734L532.7715552970767 75.37698373943567Q550.4953569546342 69.52357630431652 558.6115044802427 60.05184290185571Q566.7276520058513 50.580109499394894 566.7276520058513 36.90371352434158Q566.7276520058513 19.86866109073162 554.883345939219 9.93433054536581Q543.0390398725867 0 517.6558290272951 0H122.65549856424332Q97.82496105879545 0 86.1043427363038 9.93433054536581Q74.38372441381216 19.86866109073162 74.38372441381216 36.90371352434158Q74.38372441381216 50.180085085332394 82.45251797512174 59.71288178488612Q90.52131153643131 69.24567848443985 108.02827867120504 75.16014921665192L149.14956028014421 85.28539811074734Q166.58647369593382 90.93581687659025 174.86761588603258 104.25873506441712Q183.14875807613134 117.581653252244 183.14875807613134 146.25032590329647V1270.1650519892573Q183.14875807613134 1293.111744530499 175.99677816033363 1303.205698646605Q168.84479824453592 1313.299652762711 152.971281722188 1315.8416025489569L98.6460907831788 1319.400332249701Q82.1833222284913 1322.9590619504452 74.99929191544652 1331.075054321438Q67.81526160240173 1339.191046692431 67.81526160240173 1351.820018351078Q67.81526160240173 1366.6046764329076 76.65496902167797 1375.6611759737134Q85.49467644095421 1384.7176755145192 109.09170294553041 1393.343628309667L308.4116954356432 1462.8047588020563Q343.7093583792448 1475.9115980863571 364.24072293937206 1481.1719011440873Q384.7720874994993 1486.4322042018175 399.9567513614893 1486.4322042018175Q429.5902531221509 1486.4322042018175 444.2375234439969 1470.7460122741759Q458.8847937658429 1455.0598203465343 458.8847937658429 1429.4154915958643Z"/><path transform="translate(8506.0,0)" d="M496.36730006337166 57.23188016563654Q565.0596309676766 57.23188016563654 603.17240748927 91.89195893332362Q641.2851840108633 126.5520377010107 641.2851840108633 180.00792354345322Q641.2851840108633 213.89084898680449 626.028420612216 241.53774672746658Q610.7716572135687 269.1846444681287 568.9298411346972 292.17038125544786Q527.0880250558257 315.15611804276705 447.74814327806234 334.2861561998725Q298.62843108922243 366.84625282138586 216.40050043165684 414.6559806652367Q134.17256977409124 462.46570850908756 102.07488538324833 524.8951683156192Q69.97720099240541 587.3246281221509 69.97720099240541 663.2049473077059Q69.97720099240541 800.4664964526892 166.58505211025476 880.737243462354Q263.1929032281041 961.0079904720187 443.7691021040082 961.0079904720187Q510.0222050100565 961.0079904720187 552.0335621125996 949.7317055203021Q594.0449192151427 938.4554205685854 620.3679501563311 927.0096550583839Q646.6909810975194 915.5638895481825 665.6011983826756 915.5638895481825Q685.8776547461748 915.5638895481825 699.2992790453136 927.0096550583839Q712.7209033444524 938.4554205685854 725.8661392554641 949.9011860787868Q739.0113751664758 961.3469515889883 758.2739670425653 961.3469515889883Q771.9029387012124 961.3469515889883 782.7898966483772 952.4446714408696Q793.676854595542 943.5423912927508 800.7776375189424 919.3654134869576L865.1635207906365 707.0566986203194Q875.2978635430336 675.7317390814424 871.3169770538807 655.8493355736136Q867.3360905647278 635.9669320657849 846.8810928687453 627.8661491423845Q826.7650562897325 620.256976261735 811.8482687883079 627.7425131164491Q796.9314812868834 635.2280499711633 783.1468232050538 655.9440621361136Q736.9015404060483 738.5039958059788 685.1199164949358 787.5127901919186Q633.3382925838232 836.5215845778584 576.8923812359571 858.1900416091084Q520.4464698880911 879.8584986403584 458.961001008749 879.8584986403584Q374.80846939980984 879.8584986403584 332.2910511828959 844.5999630354345Q289.77363296598196 809.3414274305105 289.77363296598196 750.2077227905393Q289.77363296598196 714.3386804684997 307.9028469584882 685.4070230163634Q326.0320609509945 656.4753655642271 375.5087998062372 632.1964180730283Q424.98553866147995 607.9174705818295 517.46396073699 585.8149358928204Q644.385802462697 557.4179676100612 719.0161614827812 513.1182332746685Q793.6465205028653 468.81849893927574 826.2830840982497 406.85854056850076Q858.919647693634 344.8985821977258 858.919647693634 262.7278862595558Q858.919647693634 177.40038111805916 815.0987085849047 112.56261969357729Q771.2777694761753 47.72485826909542 693.6256349757314 11.720452044159174Q615.9735004752874 -24.283954180777073 513.918912038207 -24.283954180777073Q449.9679660499096 -24.283954180777073 410.3612744100392 -11.141247045248747Q370.7545827701688 2.001460090279579 345.1836200840771 14.974686667323112Q319.61265739798546 27.947913244366646 298.0520027130842 27.947913244366646Q278.2167132124305 27.947913244366646 262.9332491196692 15.17312840744853Q247.64978502690792 2.3983435705304146 233.35419138520956 -10.545921824872494Q219.0585977435112 -23.490187220275402 201.53801026195288 -23.490187220275402Q187.95646291971207 -23.490187220275402 178.2268042638898 -13.513214111328125Q168.4971456080675 -3.536241002380848 163.9551958218217 20.28173276782036L124.25250757485628 218.78355222195387Q117.49058233201504 254.83404655009508 121.86456099152565 272.58296636119485Q126.23853965103626 290.3318861722946 144.4126020297408 297.78526919335127Q163.92866302281618 305.71651984006166 178.8691016472876 296.1905002295971Q193.80954027175903 286.6644806191325 209.59732065349817 261.85051615536213Q273.5581320896745 151.57801681011915 347.1183176971972 104.40494848787785Q420.6785033047199 57.23188016563654 496.36730006337166 57.23188016563654Z"/><path transform="translate(9427.0,0)" d="M457.3583045080304 899.1299029663205V146.52824235707521Q457.3583045080304 118.01219999790192 465.82261795550585 104.46713722869754Q474.2869314029813 90.92207445949316 491.5406735613942 85.10222685337067L530.4114573821425 74.77700815349817Q559.1004832610488 63.23962212353945 559.1004832610488 38.93727335333824Q559.1004832610488 0 509.3370990678668 0H121.31218056380749Q96.29847180098295 0 84.5778534784913 9.980123359709978Q72.85723515599966 19.960246719419956 72.85723515599966 36.90371352434158Q72.85723515599966 50.11902178823948 80.94128056615591 59.606016356498Q89.02532597631216 69.09301092475653 106.1964542940259 75.0074816569686L147.62307102233171 85.28539811074734Q165.05998443812132 90.93581687659025 173.34112662822008 104.16714943572879Q181.62226881831884 117.39848199486732 181.62226881831884 145.70081213116646V739.6962921023369Q181.62226881831884 762.7345702722669 174.5160817168653 772.9659028314054Q167.40989461541176 783.1972353905439 151.53637809306383 785.7391851767898L96.75325901061296 789.2979148775339Q80.56524734199047 792.8566445782781 73.33542421460152 800.972636949271Q66.10560108721256 809.0886293202639 66.10560108721256 821.6260153502226Q66.10560108721256 836.3190878033638 74.9453085064888 845.467172972858Q83.78501592576504 854.6152581423521 107.56521368771791 863.2412109375L306.97679180651903 932.7939270585775Q340.47452799230814 945.3923763856292 361.3516731597483 950.8610816076398Q382.2288183271885 956.3297868296504 400.46382193267345 956.3297868296504Q428.6637394502759 956.3297868296504 443.01102197915316 940.5520092733204Q457.3583045080304 924.7742317169905 457.3583045080304 899.1299029663205ZM427.86829525977373 679.9001191034913 387.0254567936063 721.9154239073396 425.55424751341343 756.4104479253292Q549.0151422321796 870.14277035743 640.4965080656111 915.5616710819304Q731.9778738990426 960.9805718064308 813.701656922698 960.9805718064308Q938.4777792096138 960.9805718064308 1013.6727273054421 881.6543701738119Q1088.8676754012704 802.328168541193 1088.8676754012704 665.1022028923035V148.3178676739335Q1088.8676754012704 118.44908451288939 1098.0557318478823 104.54819172620773Q1107.2437882944942 90.64729893952608 1125.3281388804317 84.51901254802942L1160.2449055612087 74.49909169971943Q1188.3170538693666 62.77853441238403 1188.3170538693666 38.93727335333824Q1188.3170538693666 0 1138.8652493953705 0H759.6411362886429Q710.1219680160284 0 710.1219680160284 38.93727335333824Q710.1219680160284 63.23962212353945 738.5941593721509 74.77700815349817L777.9660133048892 84.919055595994Q797.2746589630842 90.98313775658607 805.4779062233865 105.69461050257087Q813.6811534836888 120.40608324855566 813.6811534836888 150.33275150507689V625.9456714838743Q813.6811534836888 713.2450108975172 772.3413378745317 757.0609829612076Q731.0015222653747 800.876955024898 659.9909821972251 800.876955024898Q615.2376438975334 800.876955024898 567.2342140451074 780.0717955008149Q519.2307841926813 759.2666359767318 467.4000200405717 714.3812972679734ZM1058.6448879539967 679.9001191034913 1017.8020494878292 721.9154239073396 1055.7813264355063 756.9599616974592Q1173.3619428500533 866.1901946738362 1259.4526739865541 913.5853832401335Q1345.543405123055 960.9805718064308 1424.5020660683513 960.9805718064308Q1543.9559698849916 960.9805718064308 1611.3123682327569 881.2306946367025Q1678.668766580522 801.4808174669743 1693.1741563081741 664.9190316349268L1751.5361466929317 148.68421018868685Q1754.8918877243996 118.54067014157772 1762.5852449126542 104.2634650990367Q1770.2786021009088 89.98626005649567 1788.3629526868463 84.33584129065275L1824.113328024745 74.82431039959192Q1841.1928707137704 68.97090296447277 1849.1395376808941 59.57549402490258Q1857.0862046480179 50.180085085332394 1857.0862046480179 36.90371352434158Q1857.0862046480179 19.86866109073162 1845.5808596983552 9.93433054536581Q1834.0755147486925 0 1808.692303903401 0H1418.1191164776683Q1368.5999482050538 0 1368.5999482050538 38.93727335333824Q1368.5999482050538 63.11749552935362 1397.0721395611763 74.77700815349817L1436.4439934939146 84.919055595994Q1455.7526391521096 90.92207445949316 1465.6337569281459 105.75566448271275Q1475.5148747041821 120.58925450593233 1472.1591336727142 150.69909401983023L1418.6654531881213 625.9456714838743Q1408.6041271165013 712.9060497805476 1374.0409109517932 756.8915024027228Q1339.477694787085 800.876955024898 1272.8062751740217 800.876955024898Q1233.0161140412092 800.876955024898 1189.7011655047536 779.0091617368162Q1146.386216968298 757.1413684487343 1097.6270989626646 714.9308110401034Z"/><path transform="translate(11268.0,0)" d="M668.9569567143917 122.7652393952012V141.96383391320705L650.9788734689355 144.30487935245037V747.3507428020239Q650.9788734689355 817.9359288662672 616.0243959985673 856.3368874415755Q581.0699185281992 894.7378460168839 517.4724687710404 894.7378460168839Q457.720947265625 894.7378460168839 425.98811915516853 868.6754092387855Q394.25529104471207 842.6129724606872 394.25529104471207 805.9542097523808V718.4850979149342Q394.25529104471207 659.7045573294163 354.7348373271525 626.8458981141448Q315.2143836095929 593.9872388988733 244.9335426017642 593.9872388988733Q185.59871400147676 593.9872388988733 154.50693138688803 622.7860880345106Q123.41514877229929 651.5849371701479 123.41514877229929 702.4648715108633Q123.41514877229929 763.985562428832 174.0271387770772 823.2434853054583Q224.6391287818551 882.5014081820846 323.20716377720237 921.2936633341014Q421.77519877254963 960.0859184861183 566.0685187131166 960.0859184861183Q747.4138556271791 960.0859184861183 835.8849931284785 886.2867404073477Q924.3561306297779 812.487562328577 924.3561306297779 685.871247574687V166.05202306061983Q924.3561306297779 137.1218615397811 935.9783699773252 122.79277186095715Q947.6006093248725 108.4636821821332 968.3427544236183 108.4636821821332Q989.8103308752179 108.4636821821332 1001.0598754882812 119.14008566737175Q1012.3094201013446 129.8164891526103 1019.7461266443133 142.33676271140575Q1024.7522864416242 148.50931385159492 1030.1500289775431 152.7750304043293Q1035.547771513462 157.04074695706367 1043.2486334592104 157.04074695706367Q1054.3219129145145 157.04074695706367 1059.4891115948558 148.96210572496057Q1064.656310275197 140.88346449285746 1064.656310275197 127.59335051476955Q1064.656310275197 95.9447021484375 1041.8490101471543 60.86505839973688Q1019.0417100191116 25.785414651036263 973.5333858504891 1.0118057392537594Q928.0250616818666 -23.761803172528744 859.4372083246708 -23.761803172528744Q771.1344878301024 -23.761803172528744 720.0457222722471 15.55715923383832Q668.9569567143917 54.87612164020538 668.9569567143917 122.7652393952012ZM80.13263966143131 207.44898886978626Q80.13263966143131 329.94481033831835 188.9583912305534 405.39605731889606Q297.78414279967546 480.84730429947376 497.41929003596306 480.84730429947376Q561.9312803074718 480.84730429947376 612.5016229450703 469.67921110242605Q663.0719655826688 458.51111790537834 700.739896684885 440.3109412267804L680.9386841952801 383.457272157073Q646.4294770136476 399.1795998439193 611.1437407396734 408.34932454302907Q575.8580044656992 417.51904924213886 533.8904842957854 417.51904924213886Q452.4791212230921 417.51904924213886 406.6007851101458 374.043108407408Q360.72244899719954 330.56716757267714 360.72244899719954 253.09357564151287Q360.72244899719954 176.27806989848614 400.37052028626204 135.64653676003218Q440.01859157532454 95.01500362157822 502.75859093666077 95.01500362157822Q555.0061594173312 95.01500362157822 603.48794099316 119.15238025784492Q651.9697225689888 143.28975689411163 685.0413362011313 185.82264647632837L705.3315349817276 135.36152263730764Q651.6239587888122 59.20983525365591 561.2273380830884 17.693484392017126Q470.83071737736464 -23.82286646962166 368.8730944097042 -23.82286646962166Q240.51284191012383 -23.82286646962166 160.32274078577757 40.18311953917146Q80.13263966143131 104.18910554796457 80.13263966143131 207.44898886978626Z"/><path transform="translate(12332.0,0)" d="M118.07835925370455 0Q93.24782174825668 0 83.05252845212817 9.93433054536581Q72.85723515599966 19.86866109073162 72.85723515599966 36.90371352434158Q72.85723515599966 50.180085085332394 80.92602871730924 59.71288178488612Q88.99482227861881 69.24567848443985 106.50178941339254 75.16014921665192L147.62307102233171 85.28539811074734Q165.05998443812132 90.93581687659025 173.34112662822008 104.25873506441712Q181.62226881831884 117.581653252244 181.62226881831884 146.25032590329647V1270.1650519892573Q181.62226881831884 1293.111744530499 174.47028890252113 1303.205698646605Q167.31830898672342 1313.299652762711 151.4447924643755 1315.8416025489569L97.1196015253663 1319.400332249701Q80.6568329706788 1322.9590619504452 73.47280265763402 1331.075054321438Q66.28877234458923 1339.191046692431 66.28877234458923 1351.820018351078Q66.28877234458923 1366.6046764329076 75.12847976386547 1375.6611759737134Q83.96818718314171 1384.7176755145192 107.56521368771791 1393.343628309667L306.8852061778307 1462.8047588020563Q340.6576992496848 1475.403208129108 361.44325878843665 1480.9177061654627Q382.2288183271885 1486.4322042018175 400.46382193267345 1486.4322042018175Q428.57215382158756 1486.4322042018175 442.965229164809 1470.7460122741759Q457.3583045080304 1455.0598203465343 457.3583045080304 1429.4154915958643V146.71141361445189Q457.3583045080304 117.92061436921358 465.68523951247334 104.5129300430417Q474.0121745169163 91.10524571686983 491.35750230401754 85.28539811074734L530.2282861247659 74.86859378218651Q559.1004832610488 63.23962212353945 559.1004832610488 38.93727335333824Q559.1004832610488 0 509.5202703252435 0ZM378.57907969504595 420.79925575107336 786.120627142489 762.4883620589972Q821.8607540875673 792.6054702699184 817.5327717885375 818.9574768431485Q813.2047894895077 845.3094834163785 771.8876825720072 856.5091904476285L735.907067604363 865.2037705257535Q718.7526157647371 870.7014369294047 712.3853531591594 879.041144348681Q706.0180905535817 887.3808517679572 706.0180905535817 900.9656621143222Q706.0180905535817 918.492324590683 718.7013060189784 928.2113817632198Q731.384521484375 937.9304389357567 753.178480297327 937.9304389357567H1103.8136433139443Q1125.9907431900501 937.9304389357567 1138.6281658411026 928.2960961833596Q1151.265588492155 918.6617534309626 1151.265588492155 902.1518708691001Q1151.265588492155 885.7640962675214 1140.7701429314911 874.897700227797Q1130.2746973708272 864.0313041880727 1096.2685525938869 855.9916879981756Q1042.2800680845976 844.0729349181056 999.2506675831974 820.6598557308316Q956.2212670817971 797.2467765435576 896.2964949086308 747.3679872304201L407.0639418363571 345.60484128445387ZM720.12587787956 666.9306633025408 1071.7047510817647 146.94130490720272Q1094.2703170999885 115.07030033320189 1111.895838085562 101.92819185554981Q1129.5213590711355 88.78608337789774 1161.470535799861 78.76628459990025Q1180.702830851078 69.52671723812819 1190.04410873726 58.660321198403835Q1199.3853866234422 47.793925158679485 1199.3853866234422 34.517553597688675Q1199.3853866234422 18.760295547544956 1186.8090272694826 9.380147773772478Q1174.232667915523 0 1152.7471478879452 0H741.5520337074995Q721.91376131773 0 710.2778574153781 9.903798896819353Q698.6419535130262 19.807597793638706 698.6419535130262 36.39532356709242Q698.6419535130262 48.146525256335735 704.8160844370723 56.208386573940516Q710.9902153611183 64.2702478915453 726.1111073717475 70.12365532666445L759.7130788639188 78.81823540478945Q786.7030979990959 85.66860534250736 789.2747814133763 101.7275274656713Q791.8464648276567 117.78644958883524 766.5190956369042 154.5169841274619L534.3872347921133 500.45678121596575Z"/><path transform="translate(13506.0,0)" d="M976.0190583691001 581.5370504334569Q976.0190583691001 534.1597227305174 948.9119773209095 508.5085227712989Q921.8048962727189 482.8573228120804 870.0716392993927 482.8573228120804H246.57227037847042V551.6359233930707H652.9918707236648Q699.3879183456302 551.6359233930707 699.3879183456302 594.1614547222853Q699.3879183456302 732.135986328125 651.2936771176755 802.5775040946901Q603.1994358897209 873.0190218612552 524.4429705366492 873.0190218612552Q462.81822418421507 873.0190218612552 415.8855645954609 835.2809447273612Q368.9529050067067 797.5428675934672 342.35445510968566 725.5443764552474Q315.7560052126646 653.5458853170276 315.7560052126646 551.2951656356454Q315.7560052126646 356.1101578101516 406.0543172955513 258.4630252458155Q496.352629378438 160.81589268147945 645.104470320046 160.81589268147945Q735.456330768764 160.81589268147945 802.743917491287 198.88205374404788Q870.03150421381 236.9482148066163 903.234552398324 306.1087241470814Q918.7168466895819 323.6965533569455 928.1580484434962 330.026361387223Q937.5992501974106 336.3561694175005 947.5810474604368 336.3561694175005Q961.5353412553668 336.3561694175005 968.0414493344724 323.71035680919886Q974.547557413578 311.0645442008972 974.1475329995155 292.7547162473202Q969.9030356705189 206.38749509304762 914.6749847494066 134.1109818778932Q859.4469338282943 61.8344686627388 765.6115619018674 18.88367450237274Q671.7761899754405 -24.067119657993317 550.7861058115959 -24.067119657993317Q409.0533220991492 -24.067119657993317 299.49319296330214 34.71534885838628Q189.93306382745504 93.49781737476587 127.8126414641738 199.79180746525526Q65.69221910089254 306.08579755574465 65.69221910089254 448.545547246933Q65.69221910089254 599.1878951117396 125.22339874878526 714.5375112369657Q184.75457839667797 829.8871273621917 295.8420558460057 895.4949128814042Q406.9295332953334 961.1026984006166 560.5290344804525 961.1026984006166Q691.2137359902263 961.1026984006166 784.2576838694513 912.3501721918583Q877.3016317486763 863.5976459830999 926.6603450588882 778.0756915807724Q976.0190583691001 692.5537371784449 976.0190583691001 581.5370504334569Z"/><path transform="translate(14517.0,0)" d="M424.6968007311225 525.6361665800214Q424.6968007311225 669.268250271678 465.5931186378002 766.2417558804154Q506.48943654447794 863.2152614891529 572.4445782713592 912.0979166477919Q638.3997199982405 960.9805718064308 713.4456842243671 960.9805718064308Q806.1478794366121 960.9805718064308 856.5700524821877 907.7175643779337Q906.9922255277634 854.4545569494367 906.9922255277634 755.2374691590667Q906.9922255277634 667.7907064557076 870.2442654520273 624.6129534468055Q833.4963053762913 581.4352004379034 775.366361528635 581.4352004379034Q717.2775414958596 581.4352004379034 686.9535835236311 612.7712600082159Q656.6296255514026 644.1073195785284 656.2632830366492 700.5565664693713L656.0801117792726 736.5624634921551Q655.480136193335 767.7017548456788 641.7004754841328 783.2782013788819Q627.9208147749305 798.854647912085 596.6560676544905 798.854647912085Q561.6352075114846 798.854647912085 529.6837302707136 769.8334053009748Q497.7322530299425 740.8121626898646 477.6368643976748 681.376707367599Q457.5414757654071 621.9412520453334 457.5414757654071 529.4649384394288ZM443.3065569624305 898.2140466794372 457.5414757654071 657.5574827566743V147.62726990133524Q457.5414757654071 121.65317732840776 468.0393490418792 108.70121893659234Q478.53722231835127 95.74926054477692 506.46715357899666 91.11572512984276L593.7436622306705 77.318957939744Q614.9346079602838 73.77700815349817 625.0385225005448 64.21211865544319Q635.1424370408058 54.64722915738821 635.1424370408058 37.41210348159075Q635.1424370408058 19.86866109073162 622.4897532239556 9.93433054536581Q609.8370694071054 0 585.3790528476238 0H121.6785417124629Q96.60376965254545 0 84.82208803296089 10.010655008256435Q73.04040641337633 20.02131001651287 73.04040641337633 36.9647768214345Q73.04040641337633 50.24114838242531 81.1855151206255 59.75867459923029Q89.33062382787466 69.27620081603527 106.68494203686714 75.19067154824734L147.80624227970839 85.28539811074734Q165.243155695498 90.59685575962067 173.52429788559675 103.997668877244Q181.80544007569551 117.39848199486732 181.80544007569551 145.70081213116646V738.5785885602236Q181.80544007569551 761.6168667301536 174.69925297424197 771.8481992892921Q167.59306587278843 782.0795318484306 151.7195493504405 784.6214816346765L96.93643026798964 788.1802113354206Q80.74841859936714 791.7389410361648 73.51859547197819 799.8549334071577Q66.28877234458923 807.9709257781506 66.28877234458923 820.5083118081093Q66.28877234458923 835.2013842612505 75.38267474249005 844.6036644093692Q84.47657714039087 854.005944557488 107.74838494509459 862.1235073953867L303.60123336315155 928.8277310281992Q347.26676869392395 945.4017143845558 367.72023832425475 950.4078224636614Q388.17370795458555 955.413930542767 400.13860323280096 955.413930542767Q419.6958914771676 955.413930542767 429.72185936942697 942.1781027726829Q439.7478272616863 928.9422750025988 443.3065569624305 898.2140466794372Z"/></g></svg>