<svg xmlns="http://www.w3.org/2000/svg" width="361.5" height="70.0" viewBox="0 0 361.5 70.0"><g fill="#1f2937" transform="translate(61.90,49.16) scale(0.01900,-0.01900)"><path transform="translate(0.0,0)" d="M976.0190583691001 581.5370504334569Q976.0190583691001 534.1597227305174 948.9119773209095 508.5085227712989Q921.8048962727189 482.8573228120804 870.0716392993927 482.8573228120804H246.57227037847042V551.6359233930707H652.9918707236648Q699.3879183456302 551.6359233930707 699.3879183456302 594.1614547222853Q699.3879183456302 732.135986328125 651.2936771176755 802.5775040946901Q603.1994358897209 873.0190218612552 524.4429705366492 873.0190218612552Q462.81822418421507 873.0190218612552 415.8855645954609 835.2809447273612Q368.9529050067067 797.5428675934672 342.35445510968566 725.5443764552474Q315.7560052126646 653.5458853170276 315.7560052126646 551.2951656356454Q315.7560052126646 356.1101578101516 406.0543172955513 258.4630252458155Q496.352629378438 160.81589268147945 645.104470320046 160.81589268147945Q735.456330768764 160.81589268147945 802.743917491287 198.88205374404788Q870.03150421381 236.9482148066163 903.234552398324 306.1087241470814Q918.7168466895819 323.6965533569455 928.1580484434962 330.026361387223Q937.5992501974106 336.3561694175005 947.5810474604368 336.3561694175005Q961.5353412553668 336.3561694175005 968.0414493344724 323.71035680919886Q974.547557413578 311.0645442008972 974.1475329995155 292.7547162473202Q969.9030356705189 206.38749509304762 914.6749847494066 134.1109818778932Q859.4469338282943 61.8344686627388 765.6115619018674 18.88367450237274Q671.7761899754405 -24.067119657993317 550.7861058115959 -24.067119657993317Q409.0533220991492 -24.067119657993317 299.49319296330214 34.71534885838628Q189.93306382745504 93.49781737476587 127.8126414641738 199.79180746525526Q65.69221910089254 306.08579755574465 65.69221910089254 448.545547246933Q65.69221910089254 599.1878951117396 125.22339874878526 714.5375112369657Q184.75457839667797 829.8871273621917 295.8420558460057 895.4949128814042Q406.9295332953334 961.1026984006166 560.5290344804525 961.1026984006166Q691.2137359902263 961.1026984006166 784.2576838694513 912.3501721918583Q877.3016317486763 863.5976459830999 926.6603450588882 778.0756915807724Q976.0190583691001 692.5537371784449 976.0190583691001 581.5370504334569Z"/><path transform="translate(1011.0,0)" d="M123.56567420810461 848.9290322735906 71.67571584135294 862.9701560884714Q50.175936214625835 869.823666960001 41.38191817328334 879.2649204321206Q32.58790013194084 888.7061739042401 32.58790013194084 901.7046476453543Q32.58790013194084 919.217567704618 44.68634945899248 928.5740033201873Q56.78479878604412 937.9304389357567 76.60927993059158 937.9304389357567H141.39222465455532Q162.90590603649616 937.9304389357567 177.54359659552574 945.8618540540338Q192.18128715455532 953.7932691723108 207.36584758013487 974.9233771115541L327.45930495113134 1132.5537343248725Q346.10786851495504 1155.8256455659866 363.4855513051152 1166.790550161153Q380.8632340952754 1177.7554547563195 398.2036878168583 1177.7554547563195Q417.19141937047243 1177.7554547563195 427.79365069046617 1165.666975170374Q438.3958820104599 1153.5784955844283 438.3958820104599 1131.0962385609746V278.24711594730616Q438.3958820104599 206.39872689545155 466.28446965292096 169.18667412549257Q494.173057295382 131.9746213555336 544.0921765863895 131.9746213555336Q578.5444657281041 131.9746213555336 598.555996619165 145.200549736619Q618.5675275102258 158.4264781177044 630.9101858176291 176.5034361295402Q643.2528441250324 194.58039414137602 654.8527255915105 210.03496516123414Q666.4526070579886 225.48953618109226 683.234246276319 229.94682145863771Q696.4190322086215 230.86269637942314 704.3777159713209 222.1588486544788Q712.3363997340202 213.45500092953444 712.0311018824577 192.4200519323349Q709.6192414015532 134.13945031166077 673.9174244739115 85.86337698623538Q638.2156075462699 37.587303660809994 576.1766371689737 8.63808747753501Q514.1376667916775 -20.311128705739975 433.5616970360279 -20.311128705739975Q307.22611186653376 -20.311128705739975 235.5840784944594 42.70732967555523Q163.94204512238503 105.72578805685043 163.94204512238503 233.7900862172246V794.7099774777889Q163.94204512238503 818.2232078462839 154.81744660437107 829.940962459892Q145.69284808635712 841.6587170735002 123.56567420810461 848.9290322735906ZM332.25964241474867 849.4055955335498 333.3586699590087 937.9304389357567H659.8750317543745Q681.143820695579 937.9304389357567 692.9033606238663 929.4823566563427Q704.6629005521536 921.0342743769288 704.6629005521536 904.632757358253Q704.6629005521536 881.1000385209918 681.1469616293907 865.2528170272708Q657.6310227066278 849.4055955335498 605.8679488226771 849.4055955335498Z"/><path transform="translate(1736.0,0)" d="M457.3583045080304 899.1299029663205V146.52824235707521Q457.3583045080304 118.01219999790192 465.82261795550585 104.46713722869754Q474.2869314029813 90.92207445949316 491.5406735613942 85.10222685337067L530.4114573821425 74.77700815349817Q559.1004832610488 63.23962212353945 559.1004832610488 38.93727335333824Q559.1004832610488 0 509.3370990678668 0H121.31218056380749Q96.29847180098295 0 84.5778534784913 9.980123359709978Q72.85723515599966 19.960246719419956 72.85723515599966 36.90371352434158Q72.85723515599966 50.11902178823948 80.94128056615591 59.606016356498Q89.02532597631216 69.09301092475653 106.1964542940259 75.0074816569686L147.62307102233171 85.28539811074734Q165.05998443812132 90.93581687659025 173.34112662822008 104.16714943572879Q181.62226881831884 117.39848199486732 181.62226881831884 145.70081213116646V739.6962921023369Q181.62226881831884 762.7345702722669 174.5160817168653 772.9659028314054Q167.40989461541176 783.1972353905439 151.53637809306383 785.7391851767898L96.75325901061296 789.2979148775339Q80.56524734199047 792.8566445782781 73.33542421460152 800.972636949271Q66.10560108721256 809.0886293202639 66.10560108721256 821.6260153502226Q66.10560108721256 836.3190878033638 74.9453085064888 845.467172972858Q83.78501592576504 854.6152581423521 107.56521368771791 863.2412109375L306.97679180651903 932.7939270585775Q340.47452799230814 945.3923763856292 361.3516731597483 950.8610816076398Q382.2288183271885 956.3297868296504 400.46382193267345 956.3297868296504Q428.6637394502759 956.3297868296504 443.01102197915316 940.5520092733204Q457.3583045080304 924.7742317169905 457.3583045080304 899.1299029663205ZM427.86829525977373 679.9001191034913 387.0254567936063 721.9154239073396 425.55424751341343 756.4104479253292Q549.0151422321796 870.14277035743 640.4965080656111 915.5616710819304Q731.9778738990426 960.9805718064308 813.701656922698 960.9805718064308Q938.4777792096138 960.9805718064308 1013.6727273054421 881.6543701738119Q1088.8676754012704 802.328168541193 1088.8676754012704 665.1022028923035V148.3178676739335Q1088.8676754012704 118.44908451288939 1098.0557318478823 104.54819172620773Q1107.2437882944942 90.64729893952608 1125.3281388804317 84.51901254802942L1160.2449055612087 74.49909169971943Q1188.3170538693666 62.77853441238403 1188.3170538693666 38.93727335333824Q1188.3170538693666 0 1138.8652493953705 0H759.6411362886429Q710.1219680160284 0 710.1219680160284 38.93727335333824Q710.1219680160284 63.23962212353945 738.5941593721509 74.77700815349817L777.9660133048892 84.919055595994Q797.2746589630842 90.98313775658607 805.4779062233865 105.69461050257087Q813.6811534836888 120.40608324855566 813.6811534836888 150.33275150507689V625.9456714838743Q813.6811534836888 713.2450108975172 772.3413378745317 757.0609829612076Q731.0015222653747 800.876955024898 659.9909821972251 800.876955024898Q615.2376438975334 800.876955024898 567.2342140451074 780.0717955008149Q519.2307841926813 759.2666359767318 467.4000200405717 714.3812972679734ZM1058.6448879539967 679.9001191034913 1017.8020494878292 721.9154239073396 1055.7813264355063 756.9599616974592Q1173.3619428500533 866.1901946738362 1259.4526739865541 913.5853832401335Q1345.543405123055 960.9805718064308 1424.5020660683513 960.9805718064308Q1543.9559698849916 960.9805718064308 1611.3123682327569 881.2306946367025Q1678.668766580522 801.4808174669743 1693.1741563081741 664.9190316349268L1751.5361466929317 148.68421018868685Q1754.8918877243996 118.54067014157772 1762.5852449126542 104.2634650990367Q1770.2786021009088 89.98626005649567 1788.3629526868463 84.33584129065275L1824.113328024745 74.82431039959192Q1841.1928707137704 68.97090296447277 1849.1395376808941 59.57549402490258Q1857.0862046480179 50.180085085332394 1857.0862046480179 36.90371352434158Q1857.0862046480179 19.86866109073162 1845.5808596983552 9.93433054536581Q1834.0755147486925 0 1808.692303903401 0H1418.1191164776683Q1368.5999482050538 0 1368.5999482050538 38.93727335333824Q1368.5999482050538 63.11749552935362 1397.0721395611763 74.77700815349817L1436.4439934939146 84.919055595994Q1455.7526391521096 90.92207445949316 1465.6337569281459 105.75566448271275Q1475.5148747041821 120.58925450593233 1472.1591336727142 150.69909401983023L1418.6654531881213 625.9456714838743Q1408.6041271165013 712.9060497805476 1374.0409109517932 756.8915024027228Q1339.477694787085 800.876955024898 1272.8062751740217 800.876955024898Q1233.0161140412092 800.876955024898 1189.7011655047536 779.0091617368162Q1146.386216968298 757.1413684487343 1097.6270989626646 714.9308110401034Z"/></g></svg>